<svg width="109.326" height="71.289" viewBox="0 0 109.326 71.289" xmlns="http://www.w3.org/2000/svg"><g id="svgGroup" stroke-linecap="round" fill-rule="evenodd" font-size="9pt" stroke="#ffffff" stroke-width="0.25mm" fill="#000" style="stroke:#ffffff;stroke-width:0.25mm;fill:#000"><path d="M 0 7.764 L 16.797 0.928 L 26.367 0.928 L 26.367 63.037 L 42.48 63.037 L 42.48 70.313 L 2.051 70.313 L 2.051 63.037 L 18.359 63.037 L 18.359 8.936 L 3.125 14.941 L 0 7.764 Z M 89.771 0.977 A 24.523 24.523 0 0 0 82.959 0 A 24 24 0 0 0 78.198 0.488 Q 75.781 0.977 73.169 2.173 A 26.177 26.177 0 0 0 68.213 5.151 A 20.972 20.972 0 0 0 65.924 7.184 A 27.261 27.261 0 0 0 63.745 9.717 Q 61.621 12.5 60.059 15.991 A 26.469 26.469 0 0 0 59.736 16.743 Q 58.401 19.992 57.593 24.316 A 50.393 50.393 0 0 0 57.034 28.132 A 61.464 61.464 0 0 0 56.689 34.766 A 69.394 69.394 0 0 0 56.82 39.077 A 56.175 56.175 0 0 0 57.617 45.728 A 60.483 60.483 0 0 0 57.775 46.557 Q 58.214 48.772 58.775 50.711 A 35.09 35.09 0 0 0 60.083 54.468 A 35.78 35.78 0 0 0 60.89 56.264 A 30.778 30.778 0 0 0 63.77 61.084 A 29.606 29.606 0 0 0 65.757 63.523 A 22.19 22.19 0 0 0 68.262 65.894 Q 70.605 67.773 73.242 69.019 A 26.685 26.685 0 0 0 75.507 69.968 A 20.757 20.757 0 0 0 78.296 70.776 A 23.124 23.124 0 0 0 83.105 71.289 Q 86.523 71.289 89.893 70.288 Q 93.262 69.287 96.851 66.65 A 25.021 25.021 0 0 0 98.59 65.248 A 27.691 27.691 0 0 0 103.149 60.034 Q 104.843 57.547 106.155 54.078 A 47.17 47.17 0 0 0 107.593 49.561 A 49.274 49.274 0 0 0 108.906 42.524 A 66.612 66.612 0 0 0 109.326 34.863 A 60.707 60.707 0 0 0 108.978 28.22 A 45.553 45.553 0 0 0 107.568 20.825 Q 106.552 17.226 105.218 14.435 A 24.502 24.502 0 0 0 103.101 10.791 A 29.172 29.172 0 0 0 102.845 10.437 A 25.797 25.797 0 0 0 96.777 4.468 A 33.725 33.725 0 0 0 96.559 4.317 Q 93.061 1.924 89.771 0.977 Z M 87.646 8.276 A 14.408 14.408 0 0 0 83.252 7.474 A 13.639 13.639 0 0 0 82.959 7.471 A 14.741 14.741 0 0 0 78.29 8.246 A 16.352 16.352 0 0 0 78.271 8.252 A 12.717 12.717 0 0 0 75.913 9.333 Q 74.864 9.942 73.797 10.785 A 22.03 22.03 0 0 0 73.486 11.035 A 19.652 19.652 0 0 0 70.203 14.502 A 23.514 23.514 0 0 0 69.165 16.016 A 19.563 19.563 0 0 0 67.75 18.742 Q 66.799 20.958 66.089 23.828 A 39.784 39.784 0 0 0 65.138 29.466 A 52.837 52.837 0 0 0 64.893 34.668 A 60.702 60.702 0 0 0 65.192 40.839 A 45.132 45.132 0 0 0 66.089 46.362 A 42.252 42.252 0 0 0 67.06 49.911 Q 67.603 51.589 68.244 52.984 A 19.828 19.828 0 0 0 69.165 54.761 A 23.15 23.15 0 0 0 71.604 58.189 A 19.207 19.207 0 0 0 73.511 60.107 Q 75.611 61.937 77.64 62.828 A 11.24 11.24 0 0 0 78.345 63.11 Q 80.713 63.965 83.105 63.965 A 12.698 12.698 0 0 0 86.475 63.498 A 14.444 14.444 0 0 0 86.963 63.354 A 16.192 16.192 0 0 0 89.199 62.459 A 21.056 21.056 0 0 0 90.991 61.475 A 13.057 13.057 0 0 0 93.322 59.635 A 17.218 17.218 0 0 0 94.849 57.91 Q 96.631 55.615 98.047 52.539 A 24.923 24.923 0 0 0 99.165 49.605 Q 99.638 48.103 100.014 46.366 A 46.794 46.794 0 0 0 100.293 44.971 Q 101.123 40.479 101.123 35.059 Q 101.123 28.955 99.927 24.048 Q 99.011 20.291 97.694 17.636 A 18.273 18.273 0 0 0 96.851 16.113 A 21.015 21.015 0 0 0 94.262 12.73 A 17.938 17.938 0 0 0 92.48 11.084 Q 90.26 9.299 88.156 8.465 A 11.743 11.743 0 0 0 87.646 8.276 Z" vector-effect="non-scaling-stroke"/></g></svg>