<svg width="103.601" height="72.404" viewBox="0 0 103.601 72.404" xmlns="http://www.w3.org/2000/svg"><g id="svgGroup" stroke-linecap="round" fill-rule="evenodd" font-size="9pt" stroke="#000" stroke-width="0.25mm" fill="#000" style="stroke:#000;stroke-width:0.25mm;fill:#000"><path d="M 39.2 71.202 L 4 71.202 L 4 63.202 L 18.3 63.202 L 18.3 12.702 L 4.9 22.802 L 0 16.102 L 20.7 1.202 L 27.3 1.202 L 27.3 63.202 L 39.2 63.202 L 39.2 71.202 Z M 79.5 72.402 Q 67.8 72.402 61.7 62.852 Q 57.195 55.799 56.017 44.574 A 81.32 81.32 0 0 1 55.6 36.102 A 77.106 77.106 0 0 1 56.21 26.061 Q 57.553 15.864 61.85 9.402 A 20.992 20.992 0 0 1 68.613 2.813 Q 73.356 0.002 79.7 0.002 A 22.809 22.809 0 0 1 87.687 1.338 Q 93.395 3.456 97.122 8.931 A 25.382 25.382 0 0 1 97.5 9.502 Q 101.987 16.49 103.174 27.7 A 81.891 81.891 0 0 1 103.6 36.302 A 77.106 77.106 0 0 1 102.99 46.343 Q 101.647 56.539 97.35 63.002 A 20.992 20.992 0 0 1 90.587 69.591 Q 85.844 72.402 79.5 72.402 Z M 79.6 64.202 A 12.762 12.762 0 0 0 84.021 63.457 A 11.493 11.493 0 0 0 87.35 61.552 A 11.747 11.747 0 0 0 89.743 58.829 Q 91.311 56.424 92.35 52.802 Q 94.096 46.718 94.1 36.455 A 120.37 120.37 0 0 0 94.1 36.402 A 79.493 79.493 0 0 0 93.761 28.79 Q 93.028 21.196 90.711 16.317 A 21.455 21.455 0 0 0 90.25 15.402 A 17.262 17.262 0 0 0 87.778 11.841 A 10.682 10.682 0 0 0 79.6 8.202 A 12.762 12.762 0 0 0 75.179 8.947 A 11.493 11.493 0 0 0 71.85 10.852 Q 68.6 13.502 66.85 19.552 A 36.612 36.612 0 0 0 65.872 24.108 Q 65.1 29.096 65.1 36.002 A 79.493 79.493 0 0 0 65.439 43.614 Q 66.172 51.208 68.489 56.087 A 21.455 21.455 0 0 0 68.95 57.002 A 17.262 17.262 0 0 0 71.422 60.563 A 10.682 10.682 0 0 0 79.6 64.202 Z" vector-effect="non-scaling-stroke"/></g></svg>