<svg width="100.6" height="73.504" viewBox="0 0 100.6 73.504" xmlns="http://www.w3.org/2000/svg"><g id="svgGroup" stroke-linecap="round" fill-rule="evenodd" font-size="9pt" stroke="#1d6bd9" stroke-width="0.25mm" fill="#3388ff" style="stroke:#1d6bd9;stroke-width:0.25mm;fill:#3388ff"><path d="M 26.6 1.102 L 26.6 72.502 L 18 72.502 L 18 22.602 A 317.44 317.44 0 0 1 18.006 20.558 Q 18.025 17.652 18.1 15.702 A 160.117 160.117 0 0 1 18.306 11.689 A 179.301 179.301 0 0 1 18.4 10.302 A 62.675 62.675 0 0 1 17.242 11.431 Q 16.313 12.314 15.5 13.002 A 1200.429 1200.429 0 0 0 14.806 13.589 Q 13.7 14.527 12.2 15.802 L 4.6 22.002 L 0 16.102 L 19.3 1.102 L 26.6 1.102 Z M 100.204 45.509 A 92.55 92.55 0 0 0 100.6 36.702 A 85.13 85.13 0 0 0 100.15 27.684 Q 98.971 16.637 94.7 9.652 Q 88.8 0.002 76.8 0.002 A 32.748 32.748 0 0 0 76.385 0.004 Q 73.286 0.044 70.635 0.672 A 18.025 18.025 0 0 0 63.1 4.352 A 19.341 19.341 0 0 0 62.324 5.037 Q 57.721 9.326 55.55 16.902 A 50.315 50.315 0 0 0 54.649 20.582 Q 53.892 24.245 53.53 28.48 A 96.858 96.858 0 0 0 53.2 36.702 Q 53.2 47.244 55.335 54.983 A 36.084 36.084 0 0 0 58.95 63.752 A 24.407 24.407 0 0 0 59.069 63.951 Q 62.825 70.185 69.232 72.35 A 23.532 23.532 0 0 0 76.8 73.502 Q 80.294 73.502 83.226 72.776 A 17.878 17.878 0 0 0 90.6 69.102 Q 93.769 66.421 95.898 62.31 A 32.383 32.383 0 0 0 98.2 56.452 A 49.397 49.397 0 0 0 98.935 53.606 Q 99.788 49.853 100.204 45.509 Z M 62 36.702 Q 62 51.402 65.35 58.702 Q 68.303 65.136 74.945 65.899 A 16.248 16.248 0 0 0 76.8 66.002 A 13.649 13.649 0 0 0 81.762 65.145 Q 85.986 63.51 88.25 58.752 A 27.776 27.776 0 0 0 90.069 53.483 Q 91.438 47.936 91.658 39.874 A 116.576 116.576 0 0 0 91.7 36.702 A 99.385 99.385 0 0 0 91.427 29.067 Q 90.846 21.555 89.028 16.659 A 23.454 23.454 0 0 0 88.25 14.802 Q 85.14 8.221 78.333 7.573 A 16.159 16.159 0 0 0 76.8 7.502 A 13.858 13.858 0 0 0 71.945 8.307 Q 68.268 9.673 66.101 13.357 A 16.049 16.049 0 0 0 65.35 14.802 A 28.831 28.831 0 0 0 63.583 20.077 Q 62.231 25.702 62.034 33.844 A 117.926 117.926 0 0 0 62 36.702 Z" vector-effect="non-scaling-stroke"/></g></svg>