<svg width="99.101" height="71.2" viewBox="0 0 99.101 71.2" xmlns="http://www.w3.org/2000/svg"><g id="svgGroup" stroke-linecap="round" fill-rule="evenodd" font-size="9pt" stroke="#000" stroke-width="0.25mm" fill="#000" style="stroke:#000;stroke-width:0.25mm;fill:#000"><path d="M 99 71.2 L 58.4 71.2 Q 58.1 69.4 58.1 67.5 A 32.192 32.192 0 0 1 58.735 60.975 A 25.813 25.813 0 0 1 60.35 55.85 Q 62.6 50.7 66.2 46.45 Q 69.8 42.2 73.85 38.55 Q 77.9 34.9 81.45 31.55 A 46.218 46.218 0 0 0 84.869 27.977 A 35.601 35.601 0 0 0 87.3 24.8 Q 89.6 21.4 89.6 17.7 A 9.278 9.278 0 0 0 88.776 13.755 A 9.139 9.139 0 0 0 86.5 10.75 A 10.723 10.723 0 0 0 81.182 8.23 A 15.011 15.011 0 0 0 78.5 8 A 18.533 18.533 0 0 0 73.543 8.645 A 16.281 16.281 0 0 0 70.85 9.65 A 25.364 25.364 0 0 0 65.062 13.502 A 28.825 28.825 0 0 0 64.4 14.1 L 59.4 8 Q 63.4 4.4 68.25 2.2 A 24.132 24.132 0 0 1 74.556 0.363 A 32.297 32.297 0 0 1 79.5 0 A 26.13 26.13 0 0 1 84.702 0.495 A 19.778 19.778 0 0 1 89.8 2.25 A 17.784 17.784 0 0 1 94.686 5.862 A 16.365 16.365 0 0 1 96.65 8.4 Q 99.1 12.3 99.1 17.1 Q 99.1 21.9 97 26 A 34.778 34.778 0 0 1 92.008 33.248 A 38.693 38.693 0 0 1 91.6 33.7 Q 88.3 37.3 84.5 40.65 Q 80.7 44 77.2 47.5 A 45.932 45.932 0 0 0 72.626 52.803 A 40.289 40.289 0 0 0 71.25 54.8 Q 68.8 58.6 68.2 63 L 99 63 L 99 71.2 Z M 39.2 71.2 L 4 71.2 L 4 63.2 L 18.3 63.2 L 18.3 12.7 L 4.9 22.8 L 0 16.1 L 20.7 1.2 L 27.3 1.2 L 27.3 63.2 L 39.2 63.2 L 39.2 71.2 Z" vector-effect="non-scaling-stroke"/></g></svg>