<svg width="100.3" height="72.401" viewBox="0 0 100.3 72.401" xmlns="http://www.w3.org/2000/svg"><g id="svgGroup" stroke-linecap="round" fill-rule="evenodd" font-size="9pt" stroke="#1d6bd9" stroke-width="0.25mm" fill="#3388ff" style="stroke:#1d6bd9;stroke-width:0.25mm;fill:#3388ff"><path d="M 100.3 64.401 L 100.3 72.401 L 53.1 72.401 L 53.1 65.101 L 71.8 46.201 A 282.39 282.39 0 0 0 75.611 42.319 Q 77.471 40.386 79.072 38.635 A 147.086 147.086 0 0 0 80.9 36.601 A 42.98 42.98 0 0 0 83.793 32.954 Q 85.431 30.629 86.5 28.351 A 20.336 20.336 0 0 0 88.383 20.394 A 23.738 23.738 0 0 0 88.4 19.501 A 15.828 15.828 0 0 0 88.025 15.945 Q 87.461 13.497 86.047 11.741 A 9.39 9.39 0 0 0 84.9 10.551 A 12.111 12.111 0 0 0 79.249 7.829 A 17.259 17.259 0 0 0 75.8 7.501 Q 70.6 7.501 66.65 9.301 A 35.944 35.944 0 0 0 62.175 11.759 A 47.268 47.268 0 0 0 58.6 14.301 L 53.9 8.401 A 40.493 40.493 0 0 1 61.388 3.489 A 46.886 46.886 0 0 1 63.55 2.451 Q 69 0.001 75.8 0.001 A 32.09 32.09 0 0 1 82.179 0.597 Q 86.127 1.398 89.181 3.275 A 18.129 18.129 0 0 1 91.6 5.051 A 16.547 16.547 0 0 1 97.142 15.417 A 23.951 23.951 0 0 1 97.4 19.001 Q 97.4 24.601 95.1 29.501 Q 92.8 34.401 88.7 39.151 Q 84.6 43.901 79.1 49.301 L 64.2 64.001 L 64.2 64.401 L 100.3 64.401 Z M 26.6 1.001 L 26.6 72.401 L 18 72.401 L 18 22.501 A 317.44 317.44 0 0 1 18.006 20.457 Q 18.025 17.551 18.1 15.601 A 160.117 160.117 0 0 1 18.306 11.588 A 179.301 179.301 0 0 1 18.4 10.201 A 62.675 62.675 0 0 1 17.242 11.33 Q 16.313 12.213 15.5 12.901 A 1200.429 1200.429 0 0 0 14.806 13.488 Q 13.7 14.426 12.2 15.701 L 4.6 21.901 L 0 16.001 L 19.3 1.001 L 26.6 1.001 Z" vector-effect="non-scaling-stroke"/></g></svg>