<svg width="106.543" height="69.874" viewBox="0 0 106.543 69.874" xmlns="http://www.w3.org/2000/svg"><g id="svgGroup" stroke-linecap="round" fill-rule="evenodd" font-size="9pt" stroke="#000000" stroke-width="0.5mm" fill="#ffffff" style="stroke:#000000;stroke-width:0.5mm;fill:#ffffff"><path d="M 62.842 11.182 L 60.449 4.737 A 59.995 59.995 0 0 1 74.35 0.667 A 52.062 52.062 0 0 1 82.617 0.001 A 32.748 32.748 0 0 1 89.575 0.699 Q 94.244 1.713 97.778 4.204 A 20.058 20.058 0 0 1 99.048 5.177 A 18.281 18.281 0 0 1 103.079 9.769 A 15.385 15.385 0 0 1 105.273 17.872 Q 105.273 21.436 103.882 24.586 Q 102.49 27.735 100.122 30.299 A 58.663 58.663 0 0 1 96.265 34.093 A 67.907 67.907 0 0 1 94.824 35.352 A 17334.024 17334.024 0 0 0 91.809 37.916 A 20463.83 20463.83 0 0 0 88.623 40.626 Q 85.352 43.409 82.373 46.412 A 39.67 39.67 0 0 0 79.107 50.169 A 51.051 51.051 0 0 0 76.685 53.614 A 40.434 40.434 0 0 0 72.363 62.55 L 106.543 62.55 L 106.543 69.874 L 62.256 69.874 L 62.256 65.333 Q 64.16 59.376 67.114 54.176 A 63.422 63.422 0 0 1 69.927 49.654 Q 71.545 47.293 73.218 45.387 Q 76.367 41.798 79.736 38.648 A 130.1 130.1 0 0 1 83.008 35.688 A 98.118 98.118 0 0 1 86.084 33.106 A 121.1 121.1 0 0 0 88.916 30.763 A 94.964 94.964 0 0 0 91.455 28.516 A 24.175 24.175 0 0 0 93.597 26.295 A 18.1 18.1 0 0 0 95.239 24.024 A 9.846 9.846 0 0 0 96.32 21.577 A 8.262 8.262 0 0 0 96.631 19.337 A 9.95 9.95 0 0 0 93.829 12.404 A 14.903 14.903 0 0 0 92.041 10.767 A 16.87 16.87 0 0 0 82.818 7.25 A 21.529 21.529 0 0 0 81.055 7.179 A 32.726 32.726 0 0 0 76.015 7.61 Q 70.387 8.492 62.842 11.182 Z M 0 7.325 L 16.797 0.489 L 26.367 0.489 L 26.367 62.598 L 42.48 62.598 L 42.48 69.874 L 2.051 69.874 L 2.051 62.598 L 18.359 62.598 L 18.359 8.497 L 3.125 14.503 L 0 7.325 Z" vector-effect="non-scaling-stroke"/></g></svg>