<svg width="99.2" height="72.401" viewBox="0 0 99.2 72.401" xmlns="http://www.w3.org/2000/svg"><g id="svgGroup" stroke-linecap="round" fill-rule="evenodd" font-size="9pt" stroke="#000" stroke-width="0.25mm" fill="#000" style="stroke:#000;stroke-width:0.25mm;fill:#000"><path d="M 56 66.4 L 60.1 58.9 A 29.424 29.424 0 0 0 63.952 61.33 A 36.526 36.526 0 0 0 66.6 62.6 A 18.21 18.21 0 0 0 70.42 63.749 Q 72.267 64.102 74.39 64.179 A 33.313 33.313 0 0 0 75.6 64.2 Q 82.2 64.2 86.05 60.7 A 11.476 11.476 0 0 0 89.24 56.015 A 11.929 11.929 0 0 0 89.9 52 Q 89.9 48.3 87.9 45.25 Q 85.955 42.284 81.975 40.405 A 21.187 21.187 0 0 0 81.75 40.3 Q 78.543 38.832 73.874 38.499 A 40.356 40.356 0 0 0 71 38.4 L 65.4 38.4 L 65.4 31.1 L 70.6 31.1 A 31.908 31.908 0 0 0 74.656 30.858 Q 77.914 30.439 80.35 29.3 A 16.484 16.484 0 0 0 83.251 27.586 A 11.823 11.823 0 0 0 86.1 24.6 Q 88 21.7 88 18.5 A 10.072 10.072 0 0 0 87.271 14.611 A 9.418 9.418 0 0 0 84.45 10.9 A 12.755 12.755 0 0 0 77.896 8.139 A 16.888 16.888 0 0 0 75.7 8 Q 71 8 67.35 9.55 Q 63.7 11.1 61.4 13 L 57.7 5.9 A 32.63 32.63 0 0 1 60.189 4.407 Q 61.61 3.633 63.29 2.867 A 66.563 66.563 0 0 1 65.4 1.95 A 24.597 24.597 0 0 1 70.845 0.429 Q 73.447 0 76.4 0 Q 82.384 0 86.724 1.973 A 17.976 17.976 0 0 1 87.6 2.4 A 19.376 19.376 0 0 1 91.881 5.388 A 16.398 16.398 0 0 1 94.65 8.75 Q 97.1 12.7 97.1 17.3 A 19.531 19.531 0 0 1 96.575 21.94 A 14.587 14.587 0 0 1 94.15 27.2 A 19.553 19.553 0 0 1 89.783 31.457 A 26.455 26.455 0 0 1 85.8 33.8 A 24.812 24.812 0 0 1 91.258 36.653 A 19.796 19.796 0 0 1 95.65 40.85 A 17.3 17.3 0 0 1 99.197 51.314 A 21.406 21.406 0 0 1 99.2 51.7 Q 99.2 56.9 96.65 61.65 A 18.802 18.802 0 0 1 91.018 68.004 A 23.697 23.697 0 0 1 88.85 69.4 Q 84.341 71.977 77.729 72.341 A 40.608 40.608 0 0 1 75.5 72.4 A 40.712 40.712 0 0 1 70.138 72.065 Q 66.9 71.635 64.2 70.65 Q 59.4 68.9 56 66.4 Z M 39.2 71.2 L 4 71.2 L 4 63.2 L 18.3 63.2 L 18.3 12.7 L 4.9 22.8 L 0 16.1 L 20.7 1.2 L 27.3 1.2 L 27.3 63.2 L 39.2 63.2 L 39.2 71.2 Z" vector-effect="non-scaling-stroke"/></g></svg>