<svg width="104.884" height="72.413" viewBox="0 0 104.884 72.413" xmlns="http://www.w3.org/2000/svg"><g id="svgGroup" stroke-linecap="round" fill-rule="evenodd" font-size="9pt" stroke="#ffffff" stroke-width="0.25mm" fill="#000" style="stroke:#ffffff;stroke-width:0.25mm;fill:#000"><path d="M 63.965 11.573 L 61.279 4.981 A 50.359 50.359 0 0 1 71.139 1.265 A 39.328 39.328 0 0 1 80.908 0.001 A 28.909 28.909 0 0 1 87.737 0.767 A 21.015 21.015 0 0 1 95.923 4.688 A 16.525 16.525 0 0 1 99.736 8.848 A 14.016 14.016 0 0 1 101.855 16.456 A 17.197 17.197 0 0 1 100.513 23.282 A 16.519 16.519 0 0 1 98.95 26.124 Q 96.045 30.372 91.211 32.227 A 25.952 25.952 0 0 1 95.631 33.828 Q 99.424 35.634 101.587 38.502 A 16.332 16.332 0 0 1 104.8 47.053 A 20.878 20.878 0 0 1 104.883 48.927 A 23.43 23.43 0 0 1 103.684 56.515 A 21.056 21.056 0 0 1 101.392 61.231 A 22.865 22.865 0 0 1 91.987 69.416 A 27.167 27.167 0 0 1 91.797 69.508 A 29.898 29.898 0 0 1 82.417 72.157 A 37.491 37.491 0 0 1 77.979 72.413 A 46.084 46.084 0 0 1 62.122 69.534 A 53.452 53.452 0 0 1 59.863 68.653 L 62.207 61.915 A 119.23 119.23 0 0 0 67.568 63.26 Q 72.782 64.431 76.473 64.649 A 27.322 27.322 0 0 0 78.076 64.698 A 24.793 24.793 0 0 0 84.518 63.896 A 19.704 19.704 0 0 0 91.064 60.792 A 14.128 14.128 0 0 0 94.337 57.546 A 11.507 11.507 0 0 0 96.436 50.733 A 12.835 12.835 0 0 0 95.996 47.388 A 8.433 8.433 0 0 0 95.491 46.027 Q 95.183 45.365 94.741 44.653 A 18.151 18.151 0 0 0 94.141 43.751 A 12.433 12.433 0 0 0 91.525 41.062 A 15.08 15.08 0 0 0 90.405 40.284 A 14.178 14.178 0 0 0 88.502 39.291 Q 86.594 38.459 83.936 37.818 Q 79.785 36.817 74.316 36.817 L 74.316 29.688 Q 78.565 29.688 81.924 28.935 A 25.219 25.219 0 0 0 82.153 28.883 A 28.795 28.795 0 0 0 84.451 28.25 Q 85.514 27.906 86.4 27.508 A 13.068 13.068 0 0 0 87.671 26.856 A 13.809 13.809 0 0 0 89.826 25.306 A 11.4 11.4 0 0 0 91.089 24 Q 92.232 22.607 92.773 21.303 A 7.223 7.223 0 0 0 92.944 20.85 A 9.529 9.529 0 0 0 93.457 17.774 Q 93.457 13.526 89.746 10.523 A 12.867 12.867 0 0 0 84.799 8.095 Q 82.922 7.61 80.713 7.534 A 24.209 24.209 0 0 0 79.883 7.52 Q 73.85 7.52 66.629 10.422 A 58.137 58.137 0 0 0 63.965 11.573 Z M 0 7.667 L 16.797 0.831 L 26.367 0.831 L 26.367 62.94 L 42.48 62.94 L 42.48 70.216 L 2.051 70.216 L 2.051 62.94 L 18.359 62.94 L 18.359 8.839 L 3.125 14.845 L 0 7.667 Z" vector-effect="non-scaling-stroke"/></g></svg>