<svg width="103.5" height="71.8" viewBox="0 0 103.5 71.8" xmlns="http://www.w3.org/2000/svg"><g id="svgGroup" stroke-linecap="round" fill-rule="evenodd" font-size="9pt" stroke="#1d6bd9" stroke-width="0.25mm" fill="#3388ff" style="stroke:#1d6bd9;stroke-width:0.25mm;fill:#3388ff"><path d="M 103.5 47.7 L 103.5 55.6 L 93.1 55.6 L 93.1 71.8 L 84.6 71.8 L 84.6 55.6 L 50.4 55.6 L 50.4 48.1 L 84 0 L 93.1 0 L 93.1 47.7 L 103.5 47.7 Z M 26.6 0.4 L 26.6 71.8 L 18 71.8 L 18 21.9 A 317.44 317.44 0 0 1 18.006 19.856 Q 18.025 16.95 18.1 15 A 160.117 160.117 0 0 1 18.306 10.987 A 179.301 179.301 0 0 1 18.4 9.6 A 62.675 62.675 0 0 1 17.242 10.73 Q 16.313 11.612 15.5 12.3 A 1200.429 1200.429 0 0 0 14.806 12.887 Q 13.7 13.825 12.2 15.1 L 4.6 21.3 L 0 15.4 L 19.3 0.4 L 26.6 0.4 Z M 84.6 47.7 L 84.6 25.2 Q 84.6 20 84.8 16.35 Q 85 12.7 85.1 9.4 L 84.7 9.4 Q 83.9 11.3 82.7 13.5 A 43.586 43.586 0 0 1 81.814 15.052 Q 81.088 16.262 80.4 17.2 L 59 47.7 L 84.6 47.7 Z" vector-effect="non-scaling-stroke"/></g></svg>