<svg width="101.101" height="71.2" viewBox="0 0 101.101 71.2" xmlns="http://www.w3.org/2000/svg"><g id="svgGroup" stroke-linecap="round" fill-rule="evenodd" font-size="9pt" stroke="#000" stroke-width="0.25mm" fill="#000" style="stroke:#000;stroke-width:0.25mm;fill:#000"><path d="M 58.1 66 L 62.8 58.3 A 28.895 28.895 0 0 0 68.577 61.479 A 32.164 32.164 0 0 0 69 61.65 Q 72.4 63 76.7 63 A 18.948 18.948 0 0 0 81.449 62.436 A 13.678 13.678 0 0 0 87.5 59.15 A 12.805 12.805 0 0 0 91.591 49.861 A 17.128 17.128 0 0 0 91.6 49.3 A 14.735 14.735 0 0 0 90.757 44.224 A 12.876 12.876 0 0 0 87.35 39.15 A 13.782 13.782 0 0 0 81.901 36.097 Q 78.965 35.2 75.2 35.2 L 62.8 35.2 L 62.8 0 L 97.4 0 L 97.4 8.1 L 71.3 8.1 L 71.3 27.1 L 76.3 27.1 A 37.701 37.701 0 0 1 82.481 27.581 Q 85.946 28.157 88.836 29.424 A 22.674 22.674 0 0 1 89.65 29.8 A 21.393 21.393 0 0 1 95.071 33.502 A 18.764 18.764 0 0 1 98.15 37.3 A 20.024 20.024 0 0 1 101.021 46.303 A 24.706 24.706 0 0 1 101.1 48.3 A 25.044 25.044 0 0 1 100.239 54.981 A 21.101 21.101 0 0 1 98.05 60.15 Q 95 65.3 89.5 68.25 A 24.425 24.425 0 0 1 81.883 70.785 A 32.353 32.353 0 0 1 76.6 71.2 A 46.433 46.433 0 0 1 71.924 70.977 Q 68.712 70.652 66.1 69.85 Q 61.7 68.5 58.1 66 Z M 39.2 70 L 4 70 L 4 62 L 18.3 62 L 18.3 11.5 L 4.9 21.6 L 0 14.9 L 20.7 0 L 27.3 0 L 27.3 62 L 39.2 62 L 39.2 70 Z" vector-effect="non-scaling-stroke"/></g></svg>