<svg width="99.801" height="72.4" viewBox="0 0 99.801 72.4" xmlns="http://www.w3.org/2000/svg"><g id="svgGroup" stroke-linecap="round" fill-rule="evenodd" font-size="9pt" stroke="#1d6bd9" stroke-width="0.25mm" fill="#3388ff" style="stroke:#1d6bd9;stroke-width:0.25mm;fill:#3388ff"><path d="M 54.6 68.5 L 54.6 60.2 Q 57.975 62.263 62.712 63.49 A 42.607 42.607 0 0 0 63.35 63.65 A 44.734 44.734 0 0 0 69.612 64.724 A 37.434 37.434 0 0 0 73.2 64.9 A 27.202 27.202 0 0 0 78.484 64.416 Q 81.753 63.768 84.318 62.255 A 15.737 15.737 0 0 0 85.95 61.15 A 11.908 11.908 0 0 0 90.174 54.642 Q 90.722 52.627 90.79 50.201 A 24.843 24.843 0 0 0 90.8 49.5 A 18.199 18.199 0 0 0 90.303 45.118 A 12.068 12.068 0 0 0 86.5 38.75 A 12.969 12.969 0 0 0 82.378 36.393 Q 78.805 35.087 73.601 35.005 A 44.729 44.729 0 0 0 72.9 35 A 37.669 37.669 0 0 0 70.297 35.096 Q 68.968 35.188 67.497 35.369 A 65.221 65.221 0 0 0 66.5 35.5 Q 62.9 36 60.7 36.5 L 56.3 33.7 L 59 0 L 94.8 0 L 94.8 8 L 66.5 8 L 64.8 28.7 A 69.409 69.409 0 0 1 65.725 28.544 Q 66.756 28.376 68.107 28.182 A 227.618 227.618 0 0 1 69.4 28 Q 72.3 27.6 75.8 27.6 A 35.699 35.699 0 0 1 82.978 28.28 Q 89.085 29.534 93.3 33.1 A 17.924 17.924 0 0 1 99.443 44.16 A 26.439 26.439 0 0 1 99.8 48.6 A 28.1 28.1 0 0 1 98.849 56.111 A 20.416 20.416 0 0 1 92.75 66.05 Q 86.399 71.771 75.543 72.338 A 46.848 46.848 0 0 1 73.1 72.4 Q 67.6 72.4 62.75 71.4 A 34.59 34.59 0 0 1 58.934 70.396 Q 57.001 69.76 55.396 68.934 A 19.47 19.47 0 0 1 54.6 68.5 Z M 26.6 0 L 26.6 71.4 L 18 71.4 L 18 21.5 A 317.44 317.44 0 0 1 18.006 19.456 Q 18.025 16.55 18.1 14.6 A 160.117 160.117 0 0 1 18.306 10.587 A 179.301 179.301 0 0 1 18.4 9.2 A 62.675 62.675 0 0 1 17.242 10.33 Q 16.313 11.213 15.5 11.9 A 1200.429 1200.429 0 0 0 14.806 12.487 Q 13.7 13.425 12.2 14.7 L 4.6 20.9 L 0 15 L 19.3 0 L 26.6 0 Z" vector-effect="non-scaling-stroke"/></g></svg>