<svg width="106.836" height="70.361" viewBox="0 0 106.836 70.361" xmlns="http://www.w3.org/2000/svg"><g id="svgGroup" stroke-linecap="round" fill-rule="evenodd" font-size="9pt" stroke="#ffffff" stroke-width="0.25mm" fill="#000" style="stroke:#ffffff;stroke-width:0.25mm;fill:#000"><path d="M 62.744 34.229 L 62.744 0 L 104.541 0 L 104.541 7.324 L 70.703 7.324 L 70.703 26.27 A 80.318 80.318 0 0 1 80.01 25.637 A 73.975 73.975 0 0 1 80.615 25.635 A 44.942 44.942 0 0 1 85.5 25.89 A 35.986 35.986 0 0 1 88.989 26.44 A 35.782 35.782 0 0 1 91.906 27.176 Q 93.893 27.772 95.459 28.54 A 21.346 21.346 0 0 1 99.777 31.326 A 19.856 19.856 0 0 1 100.171 31.665 Q 102.246 33.496 103.467 35.425 A 20.81 20.81 0 0 1 105.469 39.526 A 26.036 26.036 0 0 1 106.124 41.604 A 19.085 19.085 0 0 1 106.543 43.555 A 23.454 23.454 0 0 1 106.836 47.217 A 23.921 23.921 0 0 1 106.543 50.903 A 18.657 18.657 0 0 1 106.184 52.632 Q 105.961 53.507 105.643 54.459 A 32.242 32.242 0 0 1 105.42 55.103 A 21.984 21.984 0 0 1 103.271 59.497 Q 102.036 61.443 99.941 63.367 A 27.711 27.711 0 0 1 99.658 63.623 Q 97.363 65.674 94.409 67.114 Q 91.883 68.346 88.358 69.185 A 45.53 45.53 0 0 1 87.134 69.458 A 41.839 41.839 0 0 1 81.987 70.188 A 53.963 53.963 0 0 1 77.588 70.361 A 93.916 93.916 0 0 1 59.717 68.652 L 61.279 61.279 A 71.294 71.294 0 0 0 71.835 62.689 A 84.322 84.322 0 0 0 76.953 62.842 A 43.936 43.936 0 0 0 80.914 62.671 A 33.427 33.427 0 0 0 84.497 62.158 A 28.675 28.675 0 0 0 86.881 61.577 Q 88.096 61.221 89.119 60.784 A 14.742 14.742 0 0 0 90.137 60.303 A 20.188 20.188 0 0 0 92.463 58.892 A 16.083 16.083 0 0 0 93.994 57.666 A 12.235 12.235 0 0 0 95.631 55.866 A 10.169 10.169 0 0 0 96.484 54.492 A 17.532 17.532 0 0 0 97.241 52.82 A 13.428 13.428 0 0 0 97.754 51.221 A 13.037 13.037 0 0 0 98.145 48.047 Q 98.145 46.143 97.583 44.238 Q 97.057 42.455 95.76 40.522 A 19.948 19.948 0 0 0 95.581 40.259 A 14.722 14.722 0 0 0 92.282 36.868 A 16.745 16.745 0 0 0 91.943 36.621 A 13.728 13.728 0 0 0 89.92 35.444 Q 88.888 34.949 87.657 34.531 A 27.595 27.595 0 0 0 86.108 34.058 A 27.046 27.046 0 0 0 81.975 33.277 A 36.411 36.411 0 0 0 77.881 33.057 Q 72.754 33.057 62.744 34.229 Z M 0 6.836 L 16.797 0 L 26.367 0 L 26.367 62.109 L 42.48 62.109 L 42.48 69.385 L 2.051 69.385 L 2.051 62.109 L 18.359 62.109 L 18.359 8.008 L 3.125 14.014 L 0 6.836 Z" vector-effect="non-scaling-stroke"/></g></svg>