<svg width="106.3" height="71.143" viewBox="0 0 106.3 71.143" xmlns="http://www.w3.org/2000/svg"><g id="svgGroup" stroke-linecap="round" fill-rule="evenodd" font-size="9pt" stroke="#ffffff" stroke-width="0.25mm" fill="#000" style="stroke:#ffffff;stroke-width:0.25mm;fill:#000"><path d="M 0 7.373 L 16.797 0.537 L 26.367 0.537 L 26.367 62.647 L 42.48 62.647 L 42.48 69.922 L 2.051 69.922 L 2.051 62.647 L 18.359 62.647 L 18.359 8.545 L 3.125 14.551 L 0 7.373 Z M 101.563 0.342 L 100.977 7.568 A 47.282 47.282 0 0 0 95.752 7.275 A 43.476 43.476 0 0 0 90.866 7.538 A 33.985 33.985 0 0 0 87.183 8.154 Q 83.949 8.886 81.579 9.957 A 18.883 18.883 0 0 0 80.664 10.4 Q 78.027 11.768 75.928 13.843 Q 73.828 15.918 72.607 17.92 A 21.378 21.378 0 0 0 71.216 20.639 A 26.65 26.65 0 0 0 70.508 22.485 A 45.752 45.752 0 0 0 69.921 24.315 Q 69.653 25.22 69.463 26.024 A 22.652 22.652 0 0 0 69.263 26.953 A 59.364 59.364 0 0 0 68.915 28.955 A 77.338 77.338 0 0 0 68.604 31.152 A 19.069 19.069 0 0 1 73.861 27.04 A 22.859 22.859 0 0 1 75.488 26.245 A 21.747 21.747 0 0 1 82.781 24.478 A 25.898 25.898 0 0 1 84.619 24.414 A 23.957 23.957 0 0 1 92.166 25.555 A 19.926 19.926 0 0 1 100.22 30.591 Q 106.299 36.768 106.299 46.387 A 26.165 26.165 0 0 1 103.345 58.716 A 22.884 22.884 0 0 1 94.849 67.749 A 23.213 23.213 0 0 1 83.796 71.102 A 28.17 28.17 0 0 1 82.275 71.143 Q 80.273 71.143 78.32 70.85 A 19.355 19.355 0 0 1 76.276 70.422 Q 75.274 70.159 74.192 69.778 A 31.439 31.439 0 0 1 74.048 69.727 A 20.2 20.2 0 0 1 69.727 67.578 Q 67.725 66.26 65.796 63.965 A 21.975 21.975 0 0 1 63.049 59.784 A 25.363 25.363 0 0 1 62.524 58.691 A 25.42 25.42 0 0 1 61.465 55.879 Q 61.005 54.418 60.631 52.726 A 48.101 48.101 0 0 1 60.352 51.367 A 45.803 45.803 0 0 1 59.68 46.185 A 59.675 59.675 0 0 1 59.521 41.748 Q 59.521 32.851 61.252 25.852 A 47.595 47.595 0 0 1 61.523 24.805 Q 63.525 17.432 66.821 12.817 Q 70.117 8.203 74.854 5.249 A 32.936 32.936 0 0 1 81.801 1.936 A 29.423 29.423 0 0 1 84.595 1.147 A 45.108 45.108 0 0 1 91.204 0.161 A 55.885 55.885 0 0 1 95.508 0 A 46.478 46.478 0 0 1 97.549 0.048 Q 99.365 0.128 101.563 0.342 Z M 82.715 31.25 A 15.042 15.042 0 0 0 76.158 32.663 A 14.931 14.931 0 0 0 72.046 35.596 A 14.647 14.647 0 0 0 67.728 45.234 A 19.636 19.636 0 0 0 67.676 46.68 Q 67.676 53.564 72.192 58.936 A 15.986 15.986 0 0 0 76.188 62.413 A 13.383 13.383 0 0 0 83.203 64.307 Q 89.404 64.307 93.848 59.253 Q 98.291 54.199 98.291 47.266 A 17.905 17.905 0 0 0 97.5 41.822 A 14.47 14.47 0 0 0 93.677 35.693 A 15.264 15.264 0 0 0 82.715 31.25 Z" vector-effect="non-scaling-stroke"/></g></svg>