<svg width="100.801" height="73.401" viewBox="0 0 100.801 73.401" xmlns="http://www.w3.org/2000/svg"><g id="svgGroup" stroke-linecap="round" fill-rule="evenodd" font-size="9pt" stroke="#1d6bd9" stroke-width="0.25mm" fill="#3388ff" style="stroke:#1d6bd9;stroke-width:0.25mm;fill:#3388ff"><path d="M 95.3 0.9 L 95.3 8.4 A 19.549 19.549 0 0 0 93.165 7.827 A 25.61 25.61 0 0 0 91.25 7.5 Q 89 7.2 86.7 7.2 A 34.35 34.35 0 0 0 81.848 7.523 Q 79.254 7.894 77.085 8.689 A 18.27 18.27 0 0 0 75.2 9.5 A 19.06 19.06 0 0 0 70.002 13.251 A 17.569 17.569 0 0 0 67.95 15.8 Q 65.3 19.8 64.1 25 Q 62.9 30.2 62.6 36.1 L 63.2 36.1 A 18.237 18.237 0 0 1 67.324 31.697 A 22.864 22.864 0 0 1 69.6 30.15 A 16.151 16.151 0 0 1 74.111 28.351 Q 76.8 27.7 80.1 27.7 Q 89.4 27.7 95.1 33.35 A 18.364 18.364 0 0 1 99.859 41.734 Q 100.653 44.637 100.777 48.099 A 36.342 36.342 0 0 1 100.8 49.4 Q 100.8 59.107 96.18 65.208 A 20.06 20.06 0 0 1 94.65 67 A 20.426 20.426 0 0 1 83.034 73 A 29.202 29.202 0 0 1 78.1 73.4 A 23.311 23.311 0 0 1 68.45 71.407 A 22.7 22.7 0 0 1 65.8 70 A 21.197 21.197 0 0 1 59.613 64.077 A 28.817 28.817 0 0 1 57.05 59.6 A 31.913 31.913 0 0 1 54.828 52.767 Q 54.125 49.453 53.903 45.592 A 64.222 64.222 0 0 1 53.8 41.9 Q 53.8 34.2 55.15 26.75 Q 56.5 19.3 60.05 13.25 Q 63.6 7.2 70 3.6 A 25.752 25.752 0 0 1 76.56 1.077 Q 80.977 0 86.5 0 Q 88.6 0 91.15 0.2 A 28.924 28.924 0 0 1 92.791 0.373 Q 93.566 0.479 94.226 0.621 A 12.288 12.288 0 0 1 95.3 0.9 Z M 26.6 1 L 26.6 72.4 L 18 72.4 L 18 22.5 A 317.44 317.44 0 0 1 18.006 20.456 Q 18.025 17.55 18.1 15.6 A 160.117 160.117 0 0 1 18.306 11.588 A 179.301 179.301 0 0 1 18.4 10.2 A 62.675 62.675 0 0 1 17.242 11.33 Q 16.313 12.213 15.5 12.9 A 1200.429 1200.429 0 0 0 14.806 13.488 Q 13.7 14.425 12.2 15.7 L 4.6 21.9 L 0 16 L 19.3 1 L 26.6 1 Z M 78 66 A 15.932 15.932 0 0 0 82.723 65.332 A 12.693 12.693 0 0 0 88.2 61.95 Q 91.187 58.848 91.886 53.134 A 30.801 30.801 0 0 0 92.1 49.4 A 21.726 21.726 0 0 0 91.674 44.965 Q 91.09 42.166 89.707 40.016 A 12.594 12.594 0 0 0 88.65 38.6 A 10.964 10.964 0 0 0 83.186 35.216 Q 81.009 34.6 78.3 34.6 A 19.174 19.174 0 0 0 74.157 35.028 A 14.88 14.88 0 0 0 70.1 36.55 A 16.437 16.437 0 0 0 66.663 39.066 A 13.906 13.906 0 0 0 64.65 41.5 A 12.401 12.401 0 0 0 63.158 44.647 A 10.43 10.43 0 0 0 62.7 47.7 A 22.703 22.703 0 0 0 64.194 55.719 A 25.933 25.933 0 0 0 64.4 56.25 Q 66.1 60.5 69.5 63.25 Q 72.9 66 78 66 Z" vector-effect="non-scaling-stroke"/></g></svg>