<svg width="102.701" height="71.401" viewBox="0 0 102.701 71.401" xmlns="http://www.w3.org/2000/svg"><g id="svgGroup" stroke-linecap="round" fill-rule="evenodd" font-size="9pt" stroke="#000" stroke-width="0.25mm" fill="#000" style="stroke:#000;stroke-width:0.25mm;fill:#000"><path d="M 96.3 0.2 L 96.3 8.4 Q 95.5 8.3 94.5 8.25 A 40.076 40.076 0 0 0 93.172 8.205 A 34.119 34.119 0 0 0 92.6 8.2 A 29.284 29.284 0 0 0 84.088 9.384 A 23.482 23.482 0 0 0 74.65 14.85 A 26.884 26.884 0 0 0 67.744 25.71 A 37.941 37.941 0 0 0 66 33.1 Q 68.622 30.572 72.648 28.438 A 42.254 42.254 0 0 1 73.2 28.15 A 20.497 20.497 0 0 1 80.145 26.078 A 25.578 25.578 0 0 1 83.2 25.9 A 20.631 20.631 0 0 1 89.274 26.769 A 18.128 18.128 0 0 1 93.2 28.5 Q 97.6 31.1 100.15 35.75 Q 102.7 40.4 102.7 46.8 A 30.622 30.622 0 0 1 101.965 53.65 A 24.26 24.26 0 0 1 99.75 59.65 A 22.279 22.279 0 0 1 93.828 66.827 A 21.642 21.642 0 0 1 91.7 68.3 A 21.377 21.377 0 0 1 82.422 71.291 A 26.436 26.436 0 0 1 80 71.4 Q 73.7 71.4 68.35 68.25 A 20.258 20.258 0 0 1 62.132 62.46 A 27.251 27.251 0 0 1 59.8 58.5 A 29.191 29.191 0 0 1 57.612 52.055 Q 56.916 48.911 56.699 45.243 A 58.177 58.177 0 0 1 56.6 41.8 A 57.323 57.323 0 0 1 57.973 29.099 A 51.807 51.807 0 0 1 58.85 25.75 A 40.567 40.567 0 0 1 63.96 14.733 A 37.643 37.643 0 0 1 65.65 12.4 Q 70.2 6.6 76.9 3.3 Q 83.6 0 92.5 0 Q 93.4 0 94.45 0.05 A 30.488 30.488 0 0 1 95.321 0.104 Q 95.718 0.134 96.07 0.173 A 17.166 17.166 0 0 1 96.3 0.2 Z M 39.2 70.2 L 4 70.2 L 4 62.2 L 18.3 62.2 L 18.3 11.7 L 4.9 21.8 L 0 15.1 L 20.7 0.2 L 27.3 0.2 L 27.3 62.2 L 39.2 62.2 L 39.2 70.2 Z M 65.8 41.1 L 65.8 43.3 Q 66 52.7 70.15 57.95 A 14.986 14.986 0 0 0 73.613 61.2 A 12.026 12.026 0 0 0 80.4 63.2 A 13.23 13.23 0 0 0 85.122 62.388 A 11.758 11.758 0 0 0 90.05 58.8 A 15.717 15.717 0 0 0 93.525 50.644 A 20.926 20.926 0 0 0 93.7 47.9 A 19.676 19.676 0 0 0 93.208 43.377 A 13.684 13.684 0 0 0 90.2 37.4 A 11.516 11.516 0 0 0 81.967 33.435 A 15.928 15.928 0 0 0 80.9 33.4 Q 76.6 33.4 72.7 35.5 Q 68.8 37.6 65.8 41.1 Z" vector-effect="non-scaling-stroke"/></g></svg>