<svg width="100.6" height="71.4" viewBox="0 0 100.6 71.4" xmlns="http://www.w3.org/2000/svg"><g id="svgGroup" stroke-linecap="round" fill-rule="evenodd" font-size="9pt" stroke="#1d6bd9" stroke-width="0.25mm" fill="#3388ff" style="stroke:#1d6bd9;stroke-width:0.25mm;fill:#3388ff"><path d="M 71.6 71.4 L 61.9 71.4 L 91.2 8 L 52.7 8 L 52.7 0 L 100.6 0 L 100.6 6.8 L 71.6 71.4 Z M 26.6 0 L 26.6 71.4 L 18 71.4 L 18 21.5 A 317.44 317.44 0 0 1 18.006 19.456 Q 18.025 16.55 18.1 14.6 A 160.117 160.117 0 0 1 18.306 10.587 A 179.301 179.301 0 0 1 18.4 9.2 A 62.675 62.675 0 0 1 17.242 10.33 Q 16.313 11.213 15.5 11.9 A 1200.429 1200.429 0 0 0 14.806 12.487 Q 13.7 13.425 12.2 14.7 L 4.6 20.9 L 0 15 L 19.3 0 L 26.6 0 Z" vector-effect="non-scaling-stroke"/></g></svg>