<svg width="103.3" height="70" viewBox="0 0 103.3 70" xmlns="http://www.w3.org/2000/svg"><g id="svgGroup" stroke-linecap="round" fill-rule="evenodd" font-size="9pt" stroke="#000" stroke-width="0.25mm" fill="#000" style="stroke:#000;stroke-width:0.25mm;fill:#000"><path d="M 39.2 70 L 4 70 L 4 62 L 18.3 62 L 18.3 11.5 L 4.9 21.6 L 0 14.9 L 20.7 0 L 27.3 0 L 27.3 62 L 39.2 62 L 39.2 70 Z M 79.2 70 L 69.1 70 A 147.157 147.157 0 0 1 69.397 60.426 Q 69.778 54.584 70.65 49.55 A 85.784 85.784 0 0 1 72.837 40.035 A 67.979 67.979 0 0 1 75.15 33.4 Q 78.1 26.2 82.5 20.1 A 100.624 100.624 0 0 1 90.508 10.386 A 113.526 113.526 0 0 1 92.6 8.2 L 58.9 8.2 L 58.9 0 L 103.3 0 L 103.3 7.2 Q 96.4 13.9 91.8 20.25 Q 87.2 26.6 84.4 33.65 A 60.778 60.778 0 0 0 81.756 42.151 A 77.888 77.888 0 0 0 80.4 49.55 A 123.029 123.029 0 0 0 79.58 57.82 Q 79.295 62.061 79.224 66.792 A 213.244 213.244 0 0 0 79.2 70 Z" vector-effect="non-scaling-stroke"/></g></svg>