<svg width="107.422" height="71.29" viewBox="0 0 107.422 71.29" xmlns="http://www.w3.org/2000/svg"><g id="svgGroup" stroke-linecap="round" fill-rule="evenodd" font-size="9pt" stroke="#ffffff" stroke-width="0.25mm" fill="#000" style="stroke:#ffffff;stroke-width:0.25mm;fill:#000"><path d="M 0 7.764 L 16.797 0.928 L 26.367 0.928 L 26.367 63.038 L 42.48 63.038 L 42.48 70.313 L 2.051 70.313 L 2.051 63.038 L 18.359 63.038 L 18.359 8.936 L 3.125 14.942 L 0 7.764 Z M 88.533 0.431 A 37.288 37.288 0 0 0 82.666 0.001 A 34.357 34.357 0 0 0 82.22 0.003 Q 78.891 0.047 76.057 0.738 A 18.69 18.69 0 0 0 67.993 4.835 A 19.578 19.578 0 0 0 67.288 5.486 A 15.063 15.063 0 0 0 62.5 16.7 Q 62.5 18.36 62.915 20.093 Q 63.155 21.095 63.583 22.236 A 27.762 27.762 0 0 0 64.307 23.975 A 10.423 10.423 0 0 0 64.34 24.049 Q 65.319 26.158 67.383 28.15 Q 69.482 30.176 72.461 31.69 A 29.943 29.943 0 0 0 72.266 31.784 A 25.584 25.584 0 0 0 62.402 40.015 A 23.503 23.503 0 0 0 61.181 41.912 A 18.479 18.479 0 0 0 58.594 51.27 A 17.261 17.261 0 0 0 61.914 61.597 A 20.593 20.593 0 0 0 64.862 64.886 A 23.058 23.058 0 0 0 70.874 68.751 A 27.828 27.828 0 0 0 74.693 70.143 A 31.159 31.159 0 0 0 83.252 71.29 Q 88.916 71.29 93.604 69.483 A 25.563 25.563 0 0 0 97.126 67.822 A 19.21 19.21 0 0 0 101.245 64.698 Q 104.199 61.719 105.811 58.008 A 19.06 19.06 0 0 0 107.422 50.342 A 18.398 18.398 0 0 0 104.053 39.625 A 18.2 18.2 0 0 0 102.912 38.149 Q 99.593 34.278 93.701 31.641 A 47.745 47.745 0 0 0 96.254 29.68 Q 99.385 27.093 101.123 24.61 A 13.055 13.055 0 0 0 103.516 16.944 Q 103.516 8.936 98.193 4.468 A 16.376 16.376 0 0 0 93.944 1.919 Q 91.529 0.91 88.533 0.431 Z M 81.543 34.864 A 26.441 26.441 0 0 0 76.2 37.073 A 19.578 19.578 0 0 0 70.947 41.26 A 17.317 17.317 0 0 0 68.522 44.768 A 12.5 12.5 0 0 0 67.09 50.538 A 11.767 11.767 0 0 0 70.541 58.903 A 16.502 16.502 0 0 0 71.68 59.986 A 15.892 15.892 0 0 0 79.003 63.516 A 22.804 22.804 0 0 0 83.643 63.965 A 20.139 20.139 0 0 0 88.399 63.433 A 14.216 14.216 0 0 0 94.678 60.181 A 12.823 12.823 0 0 0 97.752 56.138 A 12.033 12.033 0 0 0 98.877 50.928 A 13.25 13.25 0 0 0 98.347 47.142 A 12.068 12.068 0 0 0 97.852 45.777 A 14.77 14.77 0 0 0 96.528 43.345 A 12.129 12.129 0 0 0 95.264 41.773 A 15.034 15.034 0 0 0 93.369 40.111 A 20.297 20.297 0 0 0 91.309 38.77 A 37.142 37.142 0 0 0 88.366 37.252 A 30.848 30.848 0 0 0 86.646 36.524 A 46.775 46.775 0 0 0 84.235 35.67 A 61.995 61.995 0 0 0 81.543 34.864 Z M 82.666 6.983 Q 77.637 6.983 74.146 9.913 A 11.105 11.105 0 0 0 72.096 12.132 A 8.005 8.005 0 0 0 70.654 16.749 Q 70.654 18.262 71.216 19.654 A 11.929 11.929 0 0 0 71.826 20.948 A 9.1 9.1 0 0 0 72.534 22.046 A 7.351 7.351 0 0 0 73.318 22.918 Q 73.9 23.475 74.683 24.024 Q 75.748 24.772 76.627 25.29 A 17.877 17.877 0 0 0 77.148 25.587 A 16.973 16.973 0 0 0 77.971 26.004 Q 78.403 26.21 78.912 26.429 A 41.245 41.245 0 0 0 80.005 26.88 Q 81.369 27.423 82.233 27.721 A 18.819 18.819 0 0 0 82.715 27.881 A 1040.803 1040.803 0 0 0 83.228 28.043 Q 84.07 28.309 85.352 28.712 A 110.61 110.61 0 0 0 86.6 27.938 Q 88.367 26.826 89.502 26.002 A 31.83 31.83 0 0 0 91.413 24.495 A 38.552 38.552 0 0 0 92.578 23.463 Q 94.03 22.124 94.723 20.701 A 6.841 6.841 0 0 0 94.824 20.484 A 8.023 8.023 0 0 0 95.508 17.188 A 9.861 9.861 0 0 0 94.901 13.658 A 8.687 8.687 0 0 0 91.797 9.693 A 13.888 13.888 0 0 0 85.887 7.248 A 18.845 18.845 0 0 0 82.666 6.983 Z" vector-effect="non-scaling-stroke"/></g></svg>