<svg width="100.501" height="73.401" viewBox="0 0 100.501 73.401" xmlns="http://www.w3.org/2000/svg"><g id="svgGroup" stroke-linecap="round" fill-rule="evenodd" font-size="9pt" stroke="#1d6bd9" stroke-width="0.25mm" fill="#3388ff" style="stroke:#1d6bd9;stroke-width:0.25mm;fill:#3388ff"><path d="M 76.8 0.001 Q 86.2 0.001 92.2 4.401 A 14.274 14.274 0 0 1 98.081 14.843 A 20.858 20.858 0 0 1 98.2 17.101 A 16.935 16.935 0 0 1 97.794 20.89 A 13.301 13.301 0 0 1 96.35 24.601 A 19.631 19.631 0 0 1 91.97 29.785 A 22.493 22.493 0 0 1 91.4 30.251 Q 88.3 32.701 84.6 34.601 Q 89 36.701 92.6 39.351 A 22.726 22.726 0 0 1 96.865 43.396 A 20.305 20.305 0 0 1 98.35 45.501 A 14.29 14.29 0 0 1 100.222 50.56 A 19.292 19.292 0 0 1 100.5 53.901 A 20.557 20.557 0 0 1 99.531 60.36 A 16.751 16.751 0 0 1 94.15 68.151 A 21.791 21.791 0 0 1 85.699 72.378 Q 81.823 73.401 77.1 73.401 Q 69.306 73.401 63.947 71.081 A 19.27 19.27 0 0 1 59.4 68.351 A 16.469 16.469 0 0 1 53.383 57.209 A 23.912 23.912 0 0 1 53.2 54.201 A 19.697 19.697 0 0 1 53.647 49.909 A 15.079 15.079 0 0 1 55.25 45.701 Q 57.3 42.101 60.7 39.501 Q 64.1 36.901 68 35.101 A 34.482 34.482 0 0 1 60.635 29.463 A 31.707 31.707 0 0 1 59.15 27.851 A 14.883 14.883 0 0 1 55.797 20.574 A 20.654 20.654 0 0 1 55.5 17.001 A 17.888 17.888 0 0 1 56.017 12.597 A 13.588 13.588 0 0 1 58.3 7.751 A 17.14 17.14 0 0 1 64.033 2.885 A 21.238 21.238 0 0 1 65.9 2.001 A 25.695 25.695 0 0 1 72.408 0.282 A 33.153 33.153 0 0 1 76.8 0.001 Z M 26.6 1.001 L 26.6 72.401 L 18 72.401 L 18 22.501 A 317.44 317.44 0 0 1 18.006 20.457 Q 18.025 17.551 18.1 15.601 A 160.117 160.117 0 0 1 18.306 11.588 A 179.301 179.301 0 0 1 18.4 10.201 A 62.675 62.675 0 0 1 17.242 11.33 Q 16.313 12.213 15.5 12.901 A 1200.429 1200.429 0 0 0 14.806 13.488 Q 13.7 14.426 12.2 15.701 L 4.6 21.901 L 0 16.001 L 19.3 1.001 L 26.6 1.001 Z M 76.9 39.301 L 75.3 38.701 Q 68.7 41.501 65.25 45.151 A 12.519 12.519 0 0 0 61.844 53.078 A 16.59 16.59 0 0 0 61.8 54.301 A 11.961 11.961 0 0 0 62.754 59.131 A 11.465 11.465 0 0 0 65.5 62.951 A 11.378 11.378 0 0 0 69.503 65.309 Q 71.228 65.923 73.352 66.192 A 28.337 28.337 0 0 0 76.9 66.401 A 24.789 24.789 0 0 0 81.126 66.064 Q 83.448 65.661 85.29 64.778 A 11.663 11.663 0 0 0 88.05 62.951 A 11.333 11.333 0 0 0 91.885 54.68 A 15.184 15.184 0 0 0 91.9 54.001 A 10.727 10.727 0 0 0 88.474 45.957 A 13.77 13.77 0 0 0 87.8 45.351 A 29.18 29.18 0 0 0 83.696 42.495 Q 80.725 40.763 76.9 39.301 Z M 76.7 7.101 A 18.727 18.727 0 0 0 72.701 7.505 Q 69.904 8.116 67.786 9.651 A 11.933 11.933 0 0 0 67.65 9.751 A 8.605 8.605 0 0 0 64.187 15.896 A 12.659 12.659 0 0 0 64.1 17.401 A 12.94 12.94 0 0 0 64.4 20.259 A 9.363 9.363 0 0 0 65.85 23.601 A 13.899 13.899 0 0 0 68.929 26.746 A 17.327 17.327 0 0 0 70.6 27.851 A 62.931 62.931 0 0 0 74.584 29.98 A 76.015 76.015 0 0 0 77.2 31.201 Q 82.4 29.001 85.95 25.901 A 10.176 10.176 0 0 0 89.37 19.384 A 14.605 14.605 0 0 0 89.5 17.401 A 11.373 11.373 0 0 0 89.067 14.176 A 8.399 8.399 0 0 0 86 9.751 A 12.337 12.337 0 0 0 81.669 7.693 Q 79.929 7.23 77.875 7.129 A 23.881 23.881 0 0 0 76.7 7.101 Z" vector-effect="non-scaling-stroke"/></g></svg>