<svg width="104.001" height="72.401" viewBox="0 0 104.001 72.401" xmlns="http://www.w3.org/2000/svg"><g id="svgGroup" stroke-linecap="round" fill-rule="evenodd" font-size="9pt" stroke="#000" stroke-width="0.25mm" fill="#000" style="stroke:#000;stroke-width:0.25mm;fill:#000"><path d="M 39.2 71.2 L 4 71.2 L 4 63.2 L 18.3 63.2 L 18.3 12.7 L 4.9 22.8 L 0 16.1 L 20.7 1.2 L 27.3 1.2 L 27.3 63.2 L 39.2 63.2 L 39.2 71.2 Z M 73.833 71.903 A 37.581 37.581 0 0 0 80.1 72.4 A 34.218 34.218 0 0 0 84.667 72.105 A 26.807 26.807 0 0 0 92.4 69.9 A 24.246 24.246 0 0 0 93.554 69.329 A 20.07 20.07 0 0 0 100.9 62.85 A 17.359 17.359 0 0 0 103.046 58.51 A 19.649 19.649 0 0 0 104 52.3 Q 104 45.8 100.1 41.15 A 21.099 21.099 0 0 0 98.577 39.521 Q 94.863 35.94 88.8 33.4 A 29.571 29.571 0 0 0 92.474 31.234 A 22.514 22.514 0 0 0 97.1 27 Q 99.038 24.625 99.764 21.352 A 19.609 19.609 0 0 0 100.2 17.1 Q 100.2 12.3 97.55 8.4 A 16.893 16.893 0 0 0 94.839 5.304 A 19.543 19.543 0 0 0 90.2 2.25 A 22.156 22.156 0 0 0 84.783 0.495 A 29.076 29.076 0 0 0 79.3 0 Q 73.6 0 68.95 2.2 A 21.728 21.728 0 0 0 67.544 2.928 A 17.894 17.894 0 0 0 61.6 8.25 A 14.501 14.501 0 0 0 59.742 11.893 A 16.27 16.27 0 0 0 58.9 17.2 Q 58.9 22.9 61.75 26.75 A 18.362 18.362 0 0 0 62.115 27.227 Q 64.931 30.781 69.9 33.5 Q 65.744 35.305 62.799 37.558 A 20.397 20.397 0 0 0 58.75 41.6 A 17.604 17.604 0 0 0 56.202 46.474 A 20.003 20.003 0 0 0 55.2 52.9 Q 55.2 58.3 58.25 62.75 Q 61.3 67.2 66.9 69.8 A 23.866 23.866 0 0 0 66.999 69.846 Q 70.109 71.273 73.833 71.903 Z M 80.2 64.4 Q 86.6 64.4 90.7 61.05 Q 94.8 57.7 94.8 52.5 A 10.465 10.465 0 0 0 92.508 45.99 A 15.373 15.373 0 0 0 90.55 43.9 A 26.566 26.566 0 0 0 86.386 40.89 Q 84.253 39.624 81.653 38.517 A 53.779 53.779 0 0 0 78.8 37.4 Q 75 38.3 71.7 40.2 A 17.587 17.587 0 0 0 68.122 42.888 A 15.239 15.239 0 0 0 66.4 44.9 Q 64.4 47.7 64.4 51.3 Q 64.4 55 66.45 58 A 13.468 13.468 0 0 0 71.013 62.137 A 16.445 16.445 0 0 0 72.1 62.7 A 17.765 17.765 0 0 0 77.74 64.266 A 21.981 21.981 0 0 0 80.2 64.4 Z M 80.6 30.1 Q 85 28.6 88.25 25.5 A 10.393 10.393 0 0 0 90.809 21.78 A 10.216 10.216 0 0 0 91.5 18 A 9.822 9.822 0 0 0 90.468 13.477 A 10.071 10.071 0 0 0 88 10.4 A 12.366 12.366 0 0 0 81.266 7.515 A 16.449 16.449 0 0 0 79.3 7.4 A 16.109 16.109 0 0 0 75.522 7.821 A 11.621 11.621 0 0 0 70.9 10.05 A 8.4 8.4 0 0 0 67.634 16.144 A 10.592 10.592 0 0 0 67.6 17 A 10.099 10.099 0 0 0 69.681 23.116 A 14.22 14.22 0 0 0 71.15 24.8 A 19.625 19.625 0 0 0 75.887 28.2 Q 78.002 29.304 80.56 30.088 A 33.124 33.124 0 0 0 80.6 30.1 Z" vector-effect="non-scaling-stroke"/></g></svg>