<svg width="100.3" height="73.402" viewBox="0 0 100.3 73.402" xmlns="http://www.w3.org/2000/svg"><g id="svgGroup" stroke-linecap="round" fill-rule="evenodd" font-size="9pt" stroke="#1d6bd9" stroke-width="0.25mm" fill="#3388ff" style="stroke:#1d6bd9;stroke-width:0.25mm;fill:#3388ff"><path d="M 58.5 72.402 L 58.5 64.902 A 24.834 24.834 0 0 0 63.344 65.97 A 32.553 32.553 0 0 0 67.3 66.202 A 35.063 35.063 0 0 0 72.158 65.885 Q 75.988 65.348 78.85 63.902 A 19.476 19.476 0 0 0 84.435 59.743 A 18.275 18.275 0 0 0 86.1 57.652 A 25.321 25.321 0 0 0 89.206 51.302 A 30.862 30.862 0 0 0 90 48.452 A 57.528 57.528 0 0 0 91.313 39.201 A 64.8 64.8 0 0 0 91.4 37.402 L 90.8 37.402 A 16.885 16.885 0 0 1 87.342 41.237 A 22.397 22.397 0 0 1 84.45 43.252 A 16.355 16.355 0 0 1 80.043 45.01 Q 77.253 45.702 73.8 45.702 A 24.376 24.376 0 0 1 67.154 44.84 A 18.527 18.527 0 0 1 58.95 40.052 A 18.405 18.405 0 0 1 54.232 31.703 Q 53.3 28.286 53.3 24.102 A 33.086 33.086 0 0 1 53.846 17.941 A 23.866 23.866 0 0 1 56.15 11.202 Q 59 5.802 64.1 2.902 Q 69.2 0.002 76.1 0.002 Q 82.9 0.002 88.4 3.452 A 21.51 21.51 0 0 1 94.752 9.668 A 28.784 28.784 0 0 1 97.1 13.852 A 31.71 31.71 0 0 1 99.259 20.517 Q 99.942 23.721 100.177 27.45 A 64.518 64.518 0 0 1 100.3 31.502 Q 100.3 39.202 98.95 46.652 Q 97.6 54.102 94.05 60.152 A 26.011 26.011 0 0 1 84.151 69.745 A 30.63 30.63 0 0 1 84.05 69.802 A 26.199 26.199 0 0 1 77.328 72.356 Q 72.945 73.402 67.5 73.402 A 38.214 38.214 0 0 1 65.909 73.367 Q 64.944 73.326 63.86 73.24 A 69.997 69.997 0 0 1 62.85 73.152 A 34.857 34.857 0 0 1 61.14 72.95 Q 59.616 72.73 58.5 72.402 Z M 26.6 1.002 L 26.6 72.402 L 18 72.402 L 18 22.502 A 317.44 317.44 0 0 1 18.006 20.458 Q 18.025 17.552 18.1 15.602 A 160.117 160.117 0 0 1 18.306 11.589 A 179.301 179.301 0 0 1 18.4 10.202 A 62.675 62.675 0 0 1 17.242 11.331 Q 16.313 12.214 15.5 12.902 A 1200.429 1200.429 0 0 0 14.806 13.489 Q 13.7 14.427 12.2 15.702 L 4.6 21.902 L 0 16.002 L 19.3 1.002 L 26.6 1.002 Z M 76.1 7.402 A 15.29 15.29 0 0 0 71.146 8.172 A 12.908 12.908 0 0 0 65.95 11.502 A 12.701 12.701 0 0 0 63.148 16.195 Q 62 19.474 62 24.002 A 22.935 22.935 0 0 0 62.391 28.374 Q 63.145 32.252 65.35 34.852 Q 68.34 38.377 74.238 38.756 A 22.818 22.818 0 0 0 75.7 38.802 Q 80.5 38.802 84 36.852 A 16.437 16.437 0 0 0 87.437 34.336 A 13.906 13.906 0 0 0 89.45 31.902 A 12.401 12.401 0 0 0 90.942 28.755 A 10.43 10.43 0 0 0 91.4 25.702 A 22.474 22.474 0 0 0 89.713 17.234 A 25.347 25.347 0 0 0 89.7 17.202 Q 88 13.002 84.6 10.202 A 12.14 12.14 0 0 0 78.617 7.588 A 16.437 16.437 0 0 0 76.1 7.402 Z" vector-effect="non-scaling-stroke"/></g></svg>