<svg width="101.1" height="72.402" viewBox="0 0 101.1 72.402" xmlns="http://www.w3.org/2000/svg"><g id="svgGroup" stroke-linecap="round" fill-rule="evenodd" font-size="9pt" stroke="#000" stroke-width="0.25mm" fill="#000" style="stroke:#000;stroke-width:0.25mm;fill:#000"><path d="M 57.2 64.6 L 63.1 57.9 A 22.787 22.787 0 0 0 67.784 61.732 A 16.566 16.566 0 0 0 76.5 64.2 Q 80.6 64.2 84.1 61.45 A 14.208 14.208 0 0 0 86.949 58.376 Q 88.005 56.865 88.881 54.936 A 29.986 29.986 0 0 0 89.75 52.8 A 31.001 31.001 0 0 0 91.06 47.897 Q 91.9 43.413 91.9 37.6 Q 88.8 40.4 85 42.3 Q 81.2 44.2 76.8 44.2 Q 71.5 44.2 66.75 41.75 Q 62 39.3 59.05 34.55 Q 56.181 29.93 56.102 23.181 A 32.787 32.787 0 0 1 56.1 22.8 A 24.091 24.091 0 0 1 57.67 14.055 A 22.792 22.792 0 0 1 58.95 11.3 Q 61.8 6.1 66.9 3.05 A 21.482 21.482 0 0 1 75.45 0.191 A 27.036 27.036 0 0 1 78.7 0 A 28.398 28.398 0 0 1 82.677 0.264 Q 84.849 0.572 86.686 1.238 A 16.303 16.303 0 0 1 87.6 1.6 Q 91.3 3.2 93.8 5.8 A 22.776 22.776 0 0 1 97.412 10.801 A 26.029 26.029 0 0 1 97.85 11.65 Q 99.5 15 100.3 20.45 A 63.367 63.367 0 0 1 100.755 24.581 Q 101.1 28.891 101.1 34.6 Q 101.1 47.9 97.8 56.25 A 34.561 34.561 0 0 1 95.011 61.861 Q 92.392 66.055 88.85 68.5 Q 83.2 72.4 76 72.4 A 28.172 28.172 0 0 1 70.176 71.822 A 22.735 22.735 0 0 1 65.6 70.35 Q 61 68.3 57.2 64.6 Z M 39.2 71.2 L 4 71.2 L 4 63.2 L 18.3 63.2 L 18.3 12.7 L 4.9 22.8 L 0 16.1 L 20.7 1.2 L 27.3 1.2 L 27.3 63.2 L 39.2 63.2 L 39.2 71.2 Z M 91.9 30.3 L 91.9 27.3 A 39.751 39.751 0 0 0 91.578 22.065 Q 91.221 19.384 90.468 17.203 A 15.762 15.762 0 0 0 88.25 12.9 A 12.066 12.066 0 0 0 84.116 9.303 Q 81.764 8.087 78.822 8.006 A 15.366 15.366 0 0 0 78.4 8 Q 72.7 8 68.75 11.95 A 13.262 13.262 0 0 0 65.024 19.447 A 18.712 18.712 0 0 0 64.8 22.4 A 17.953 17.953 0 0 0 65.164 26.098 A 13.451 13.451 0 0 0 66.7 30.15 Q 68.6 33.4 71.65 35.1 Q 74.7 36.8 78.3 36.8 A 15.326 15.326 0 0 0 85.421 35.021 A 17.939 17.939 0 0 0 85.65 34.9 A 26.394 26.394 0 0 0 91.815 30.384 A 25.001 25.001 0 0 0 91.9 30.3 Z" vector-effect="non-scaling-stroke"/></g></svg>