<svg width="106.397" height="71.094" viewBox="0 0 106.397 71.094" xmlns="http://www.w3.org/2000/svg"><g id="svgGroup" stroke-linecap="round" fill-rule="evenodd" font-size="9pt" stroke="#000000" stroke-width="0.5mm" fill="#ffffff" style="stroke:#000000;stroke-width:0.5mm;fill:#ffffff"><path d="M 0 7.813 L 16.797 0.977 L 26.367 0.977 L 26.367 63.086 L 42.48 63.086 L 42.48 70.361 L 2.051 70.361 L 2.051 63.086 L 18.359 63.086 L 18.359 8.984 L 3.125 14.99 L 0 7.813 Z M 64.355 70.801 L 64.941 63.574 Q 67.139 63.818 70.215 63.818 A 47.422 47.422 0 0 0 74.314 63.648 A 37.657 37.657 0 0 0 77.246 63.281 A 39.095 39.095 0 0 0 79.912 62.746 Q 81.526 62.36 82.886 61.865 A 18.232 18.232 0 0 0 87.094 59.702 A 17.109 17.109 0 0 0 87.28 59.57 A 28.582 28.582 0 0 0 89.079 58.176 A 20.791 20.791 0 0 0 90.625 56.738 A 14.102 14.102 0 0 0 92.22 54.739 A 17.601 17.601 0 0 0 93.066 53.32 A 43.268 43.268 0 0 0 93.922 51.643 Q 94.418 50.613 94.775 49.707 A 19.84 19.84 0 0 0 95.303 48.176 Q 95.544 47.379 95.758 46.469 A 35.995 35.995 0 0 0 95.898 45.85 Q 96.387 43.604 96.606 42.09 A 80.242 80.242 0 0 0 96.775 40.858 Q 96.846 40.305 96.92 39.685 A 164.43 164.43 0 0 0 97.07 38.379 A 19.061 19.061 0 0 1 89.893 43.189 A 23.605 23.605 0 0 1 81.396 44.775 A 23.511 23.511 0 0 1 73.242 43.406 A 20.903 20.903 0 0 1 65.869 38.745 A 20.138 20.138 0 0 1 59.625 24.106 A 26.539 26.539 0 0 1 59.619 23.535 A 22.574 22.574 0 0 1 66.361 7.151 A 27.978 27.978 0 0 1 66.577 6.934 A 23.368 23.368 0 0 1 83.469 0.002 A 30.101 30.101 0 0 1 83.789 0 A 26.157 26.157 0 0 1 87.891 0.317 A 19.681 19.681 0 0 1 90.1 0.806 A 26.169 26.169 0 0 1 92.187 1.489 Q 94.482 2.344 96.46 3.735 A 17.14 17.14 0 0 1 98.534 5.469 A 23.372 23.372 0 0 1 100.317 7.422 A 21.855 21.855 0 0 1 102.821 11.263 A 25.692 25.692 0 0 1 103.516 12.72 A 25.663 25.663 0 0 1 104.566 15.6 Q 105.022 17.106 105.383 18.846 A 47.666 47.666 0 0 1 105.615 20.044 A 48.002 48.002 0 0 1 106.247 25.191 A 62.351 62.351 0 0 1 106.396 29.59 A 76.411 76.411 0 0 1 105.957 37.998 Q 105.489 42.215 104.525 45.898 A 46.634 46.634 0 0 1 104.395 46.387 Q 102.769 52.334 100.29 56.479 A 26.023 26.023 0 0 1 99.097 58.301 A 28.142 28.142 0 0 1 91.064 65.845 A 32.696 32.696 0 0 1 83.795 69.26 A 29.484 29.484 0 0 1 81.299 69.946 A 45.791 45.791 0 0 1 74.34 70.958 A 55.684 55.684 0 0 1 70.41 71.094 Q 67.383 71.094 64.355 70.801 Z M 82.715 6.836 A 13.455 13.455 0 0 0 73.909 10.122 A 18.828 18.828 0 0 0 72.217 11.719 Q 67.627 16.602 67.627 22.754 A 14.242 14.242 0 0 0 71.986 33.199 A 17.907 17.907 0 0 0 72.29 33.496 A 15.315 15.315 0 0 0 83.203 37.939 Q 89.404 37.939 93.823 33.643 A 14.506 14.506 0 0 0 97.271 28.595 A 14.081 14.081 0 0 0 98.242 23.34 A 15.646 15.646 0 0 0 96.792 16.83 A 18.966 18.966 0 0 0 96.167 15.576 A 17.74 17.74 0 0 0 90.454 9.302 A 14.249 14.249 0 0 0 85.879 7.22 A 13.083 13.083 0 0 0 82.715 6.836 Z" vector-effect="non-scaling-stroke"/></g></svg>