<svg width="46.094" height="69.874" viewBox="0 0 46.094 69.874" xmlns="http://www.w3.org/2000/svg"><g id="svgGroup" stroke-linecap="round" fill-rule="evenodd" font-size="9pt" stroke="#ffffff" stroke-width="0.25mm" fill="#000" style="stroke:#ffffff;stroke-width:0.25mm;fill:#000"><path d="M 2.393 11.182 L 0 4.737 A 59.995 59.995 0 0 1 13.901 0.667 A 52.062 52.062 0 0 1 22.168 0.001 A 32.748 32.748 0 0 1 29.126 0.699 Q 33.794 1.713 37.329 4.204 A 20.058 20.058 0 0 1 38.599 5.177 A 18.281 18.281 0 0 1 42.629 9.769 A 15.385 15.385 0 0 1 44.824 17.872 Q 44.824 21.436 43.433 24.586 Q 42.041 27.735 39.673 30.299 A 58.663 58.663 0 0 1 35.816 34.093 A 67.907 67.907 0 0 1 34.375 35.352 A 17334.024 17334.024 0 0 0 31.36 37.916 A 20463.83 20463.83 0 0 0 28.174 40.626 Q 24.902 43.409 21.924 46.412 A 39.67 39.67 0 0 0 18.658 50.169 A 51.051 51.051 0 0 0 16.235 53.614 A 40.434 40.434 0 0 0 11.914 62.55 L 46.094 62.55 L 46.094 69.874 L 1.807 69.874 L 1.807 65.333 Q 3.711 59.376 6.665 54.176 A 63.422 63.422 0 0 1 9.477 49.654 Q 11.095 47.293 12.769 45.387 Q 15.918 41.798 19.287 38.648 A 130.1 130.1 0 0 1 22.559 35.688 A 98.118 98.118 0 0 1 25.635 33.106 A 121.1 121.1 0 0 0 28.467 30.763 A 94.964 94.964 0 0 0 31.006 28.516 A 24.175 24.175 0 0 0 33.148 26.295 A 18.1 18.1 0 0 0 34.79 24.024 A 9.846 9.846 0 0 0 35.871 21.577 A 8.262 8.262 0 0 0 36.182 19.337 A 9.95 9.95 0 0 0 33.38 12.404 A 14.903 14.903 0 0 0 31.592 10.767 A 16.87 16.87 0 0 0 22.369 7.25 A 21.529 21.529 0 0 0 20.605 7.179 A 32.726 32.726 0 0 0 15.566 7.61 Q 9.938 8.492 2.393 11.182 Z" vector-effect="non-scaling-stroke"/></g></svg>