<svg width="112.354" height="71.289" viewBox="0 0 112.354 71.289" xmlns="http://www.w3.org/2000/svg"><g id="svgGroup" stroke-linecap="round" fill-rule="evenodd" font-size="9pt" stroke="#000000" stroke-width="0.5mm" fill="#ffffff" style="stroke:#000000;stroke-width:0.5mm;fill:#ffffff"><path d="M 2.393 11.621 L 0 5.176 A 59.995 59.995 0 0 1 13.901 1.105 A 52.062 52.062 0 0 1 22.168 0.439 A 32.748 32.748 0 0 1 29.126 1.137 Q 33.794 2.152 37.329 4.642 A 20.058 20.058 0 0 1 38.599 5.615 A 18.281 18.281 0 0 1 42.629 10.207 A 15.385 15.385 0 0 1 44.824 18.311 Q 44.824 21.875 43.433 25.024 Q 42.041 28.174 39.673 30.737 A 58.663 58.663 0 0 1 35.816 34.532 A 67.907 67.907 0 0 1 34.375 35.791 A 17334.024 17334.024 0 0 0 31.36 38.354 A 20463.83 20463.83 0 0 0 28.174 41.064 Q 24.902 43.848 21.924 46.851 A 39.67 39.67 0 0 0 18.658 50.607 A 51.051 51.051 0 0 0 16.235 54.053 A 40.434 40.434 0 0 0 11.914 62.988 L 46.094 62.988 L 46.094 70.313 L 1.807 70.313 L 1.807 65.771 Q 3.711 59.814 6.665 54.614 A 63.422 63.422 0 0 1 9.477 50.093 Q 11.095 47.732 12.769 45.825 Q 15.918 42.236 19.287 39.087 A 130.1 130.1 0 0 1 22.559 36.127 A 98.118 98.118 0 0 1 25.635 33.545 A 121.1 121.1 0 0 0 28.467 31.201 A 94.964 94.964 0 0 0 31.006 28.955 A 24.175 24.175 0 0 0 33.148 26.733 A 18.1 18.1 0 0 0 34.79 24.463 A 9.846 9.846 0 0 0 35.871 22.015 A 8.262 8.262 0 0 0 36.182 19.775 A 9.95 9.95 0 0 0 33.38 12.843 A 14.903 14.903 0 0 0 31.592 11.206 A 16.87 16.87 0 0 0 22.369 7.688 A 21.529 21.529 0 0 0 20.605 7.617 A 32.726 32.726 0 0 0 15.566 8.048 Q 9.938 8.931 2.393 11.621 Z M 92.798 0.977 A 24.523 24.523 0 0 0 85.986 0 A 24 24 0 0 0 81.226 0.488 Q 78.809 0.977 76.196 2.173 A 26.177 26.177 0 0 0 71.24 5.151 A 20.972 20.972 0 0 0 68.951 7.184 A 27.261 27.261 0 0 0 66.772 9.717 Q 64.648 12.5 63.086 15.991 A 26.469 26.469 0 0 0 62.764 16.743 Q 61.428 19.992 60.62 24.316 A 50.393 50.393 0 0 0 60.061 28.132 A 61.464 61.464 0 0 0 59.717 34.766 A 69.394 69.394 0 0 0 59.847 39.077 A 56.175 56.175 0 0 0 60.645 45.728 A 60.483 60.483 0 0 0 60.803 46.557 Q 61.241 48.772 61.803 50.711 A 35.09 35.09 0 0 0 63.11 54.468 A 35.78 35.78 0 0 0 63.918 56.264 A 30.778 30.778 0 0 0 66.797 61.084 A 29.606 29.606 0 0 0 68.784 63.523 A 22.19 22.19 0 0 0 71.289 65.894 Q 73.633 67.773 76.27 69.019 A 26.685 26.685 0 0 0 78.535 69.968 A 20.757 20.757 0 0 0 81.323 70.776 A 23.124 23.124 0 0 0 86.133 71.289 Q 89.551 71.289 92.92 70.288 Q 96.289 69.287 99.878 66.65 A 25.021 25.021 0 0 0 101.617 65.248 A 27.691 27.691 0 0 0 106.177 60.034 Q 107.87 57.547 109.183 54.078 A 47.17 47.17 0 0 0 110.62 49.561 A 49.274 49.274 0 0 0 111.934 42.524 A 66.612 66.612 0 0 0 112.354 34.863 A 60.707 60.707 0 0 0 112.005 28.22 A 45.553 45.553 0 0 0 110.596 20.825 Q 109.579 17.226 108.245 14.435 A 24.502 24.502 0 0 0 106.128 10.791 A 29.172 29.172 0 0 0 105.872 10.437 A 25.797 25.797 0 0 0 99.805 4.468 A 33.725 33.725 0 0 0 99.586 4.317 Q 96.089 1.924 92.798 0.977 Z M 90.674 8.276 A 14.408 14.408 0 0 0 86.279 7.474 A 13.639 13.639 0 0 0 85.986 7.471 A 14.741 14.741 0 0 0 81.317 8.246 A 16.352 16.352 0 0 0 81.299 8.252 A 12.717 12.717 0 0 0 78.94 9.333 Q 77.892 9.942 76.824 10.785 A 22.03 22.03 0 0 0 76.514 11.035 A 19.652 19.652 0 0 0 73.231 14.502 A 23.514 23.514 0 0 0 72.192 16.016 A 19.563 19.563 0 0 0 70.778 18.742 Q 69.827 20.958 69.116 23.828 A 39.784 39.784 0 0 0 68.166 29.466 A 52.837 52.837 0 0 0 67.92 34.668 A 60.702 60.702 0 0 0 68.219 40.839 A 45.132 45.132 0 0 0 69.116 46.362 A 42.252 42.252 0 0 0 70.087 49.911 Q 70.631 51.589 71.271 52.984 A 19.828 19.828 0 0 0 72.192 54.761 A 23.15 23.15 0 0 0 74.631 58.189 A 19.207 19.207 0 0 0 76.538 60.107 Q 78.638 61.937 80.667 62.828 A 11.24 11.24 0 0 0 81.372 63.11 Q 83.74 63.965 86.133 63.965 A 12.698 12.698 0 0 0 89.503 63.498 A 14.444 14.444 0 0 0 89.99 63.354 A 16.192 16.192 0 0 0 92.226 62.459 A 21.056 21.056 0 0 0 94.019 61.475 A 13.057 13.057 0 0 0 96.35 59.635 A 17.218 17.218 0 0 0 97.876 57.91 Q 99.658 55.615 101.074 52.539 A 24.923 24.923 0 0 0 102.192 49.605 Q 102.665 48.103 103.041 46.366 A 46.794 46.794 0 0 0 103.32 44.971 Q 104.15 40.479 104.15 35.059 Q 104.15 28.955 102.954 24.048 Q 102.038 20.291 100.722 17.636 A 18.273 18.273 0 0 0 99.878 16.113 A 21.015 21.015 0 0 0 97.29 12.73 A 17.938 17.938 0 0 0 95.508 11.084 Q 93.288 9.299 91.184 8.465 A 11.743 11.743 0 0 0 90.674 8.276 Z" vector-effect="non-scaling-stroke"/></g></svg>