<svg width="105.501" height="72.404" viewBox="0 0 105.501 72.404" xmlns="http://www.w3.org/2000/svg"><g id="svgGroup" stroke-linecap="round" fill-rule="evenodd" font-size="9pt" stroke="#000" stroke-width="0.25mm" fill="#000" style="stroke:#000;stroke-width:0.25mm;fill:#000"><path d="M 40.9 71.202 L 0.3 71.202 Q 0 69.402 0 67.502 A 32.192 32.192 0 0 1 0.635 60.977 A 25.813 25.813 0 0 1 2.25 55.852 Q 4.5 50.702 8.1 46.452 Q 11.7 42.202 15.75 38.552 Q 19.8 34.902 23.35 31.552 A 46.218 46.218 0 0 0 26.769 27.978 A 35.601 35.601 0 0 0 29.2 24.802 Q 31.5 21.402 31.5 17.702 A 9.278 9.278 0 0 0 30.676 13.756 A 9.139 9.139 0 0 0 28.4 10.752 A 10.723 10.723 0 0 0 23.083 8.232 A 15.011 15.011 0 0 0 20.4 8.002 A 18.533 18.533 0 0 0 15.443 8.646 A 16.281 16.281 0 0 0 12.75 9.652 A 25.364 25.364 0 0 0 6.962 13.503 A 28.825 28.825 0 0 0 6.3 14.102 L 1.3 8.002 Q 5.3 4.402 10.15 2.202 A 24.132 24.132 0 0 1 16.456 0.365 A 32.297 32.297 0 0 1 21.4 0.002 A 26.13 26.13 0 0 1 26.602 0.496 A 19.778 19.778 0 0 1 31.7 2.252 A 17.784 17.784 0 0 1 36.587 5.864 A 16.365 16.365 0 0 1 38.55 8.402 Q 41 12.302 41 17.102 Q 41 21.902 38.9 26.002 A 34.778 34.778 0 0 1 33.908 33.25 A 38.693 38.693 0 0 1 33.5 33.702 Q 30.2 37.302 26.4 40.652 Q 22.6 44.002 19.1 47.502 A 45.932 45.932 0 0 0 14.526 52.804 A 40.289 40.289 0 0 0 13.15 54.802 Q 10.7 58.602 10.1 63.002 L 40.9 63.002 L 40.9 71.202 Z M 81.4 72.402 Q 69.7 72.402 63.6 62.852 Q 59.095 55.799 57.917 44.574 A 81.32 81.32 0 0 1 57.5 36.102 A 77.106 77.106 0 0 1 58.111 26.061 Q 59.454 15.864 63.75 9.402 A 20.992 20.992 0 0 1 70.513 2.813 Q 75.257 0.002 81.6 0.002 A 22.809 22.809 0 0 1 89.588 1.338 Q 95.295 3.456 99.023 8.931 A 25.382 25.382 0 0 1 99.4 9.502 Q 103.888 16.49 105.074 27.7 A 81.891 81.891 0 0 1 105.5 36.302 A 77.106 77.106 0 0 1 104.89 46.343 Q 103.547 56.539 99.25 63.002 A 20.992 20.992 0 0 1 92.488 69.591 Q 87.744 72.402 81.4 72.402 Z M 81.5 64.202 A 12.762 12.762 0 0 0 85.921 63.457 A 11.493 11.493 0 0 0 89.25 61.552 A 11.747 11.747 0 0 0 91.643 58.829 Q 93.211 56.424 94.25 52.802 Q 95.996 46.718 96 36.455 A 120.37 120.37 0 0 0 96 36.402 A 79.493 79.493 0 0 0 95.661 28.79 Q 94.928 21.196 92.612 16.317 A 21.455 21.455 0 0 0 92.15 15.402 A 17.262 17.262 0 0 0 89.678 11.841 A 10.682 10.682 0 0 0 81.5 8.202 A 12.762 12.762 0 0 0 77.079 8.947 A 11.493 11.493 0 0 0 73.75 10.852 Q 70.5 13.502 68.75 19.552 A 36.612 36.612 0 0 0 67.772 24.108 Q 67 29.096 67 36.002 A 79.493 79.493 0 0 0 67.34 43.614 Q 68.073 51.208 70.389 56.087 A 21.455 21.455 0 0 0 70.85 57.002 A 17.262 17.262 0 0 0 73.323 60.563 A 10.682 10.682 0 0 0 81.5 64.202 Z" vector-effect="non-scaling-stroke"/></g></svg>