<svg width="104.7" height="73.504" viewBox="0 0 104.7 73.504" xmlns="http://www.w3.org/2000/svg"><g id="svgGroup" stroke-linecap="round" fill-rule="evenodd" font-size="9pt" stroke="#1d6bd9" stroke-width="0.25mm" fill="#3388ff" style="stroke:#1d6bd9;stroke-width:0.25mm;fill:#3388ff"><path d="M 47.2 64.502 L 47.2 72.502 L 0 72.502 L 0 65.202 L 18.7 46.302 A 282.39 282.39 0 0 0 22.511 42.421 Q 24.371 40.487 25.972 38.736 A 147.086 147.086 0 0 0 27.8 36.702 A 42.98 42.98 0 0 0 30.693 33.055 Q 32.331 30.73 33.4 28.452 A 20.336 20.336 0 0 0 35.283 20.495 A 23.738 23.738 0 0 0 35.3 19.602 A 15.828 15.828 0 0 0 34.925 16.046 Q 34.361 13.598 32.947 11.842 A 9.39 9.39 0 0 0 31.8 10.652 A 12.111 12.111 0 0 0 26.149 7.93 A 17.259 17.259 0 0 0 22.7 7.602 Q 17.5 7.602 13.55 9.402 A 35.944 35.944 0 0 0 9.075 11.86 A 47.268 47.268 0 0 0 5.5 14.402 L 0.8 8.502 A 40.493 40.493 0 0 1 8.288 3.59 A 46.886 46.886 0 0 1 10.45 2.552 Q 15.9 0.102 22.7 0.102 A 32.09 32.09 0 0 1 29.079 0.699 Q 33.027 1.5 36.081 3.376 A 18.129 18.129 0 0 1 38.5 5.152 A 16.547 16.547 0 0 1 44.042 15.518 A 23.951 23.951 0 0 1 44.3 19.102 Q 44.3 24.702 42 29.602 Q 39.7 34.502 35.6 39.252 Q 31.5 44.002 26 49.402 L 11.1 64.102 L 11.1 64.502 L 47.2 64.502 Z M 104.304 45.509 A 92.55 92.55 0 0 0 104.7 36.702 A 85.13 85.13 0 0 0 104.25 27.684 Q 103.071 16.637 98.8 9.652 Q 92.9 0.002 80.9 0.002 A 32.748 32.748 0 0 0 80.485 0.004 Q 77.386 0.044 74.735 0.672 A 18.025 18.025 0 0 0 67.2 4.352 A 19.341 19.341 0 0 0 66.424 5.037 Q 61.821 9.326 59.65 16.902 A 50.315 50.315 0 0 0 58.749 20.582 Q 57.992 24.245 57.63 28.48 A 96.858 96.858 0 0 0 57.3 36.702 Q 57.3 47.244 59.435 54.983 A 36.084 36.084 0 0 0 63.05 63.752 A 24.407 24.407 0 0 0 63.169 63.951 Q 66.925 70.185 73.332 72.35 A 23.532 23.532 0 0 0 80.9 73.502 Q 84.394 73.502 87.326 72.776 A 17.878 17.878 0 0 0 94.7 69.102 Q 97.869 66.421 99.998 62.31 A 32.383 32.383 0 0 0 102.3 56.452 A 49.397 49.397 0 0 0 103.035 53.606 Q 103.888 49.853 104.304 45.509 Z M 66.1 36.702 Q 66.1 51.402 69.45 58.702 Q 72.403 65.136 79.045 65.899 A 16.248 16.248 0 0 0 80.9 66.002 A 13.649 13.649 0 0 0 85.862 65.145 Q 90.086 63.51 92.35 58.752 A 27.776 27.776 0 0 0 94.169 53.483 Q 95.538 47.936 95.758 39.874 A 116.576 116.576 0 0 0 95.8 36.702 A 99.385 99.385 0 0 0 95.527 29.067 Q 94.946 21.555 93.128 16.659 A 23.454 23.454 0 0 0 92.35 14.802 Q 89.24 8.221 82.433 7.573 A 16.159 16.159 0 0 0 80.9 7.502 A 13.858 13.858 0 0 0 76.045 8.307 Q 72.368 9.673 70.201 13.357 A 16.049 16.049 0 0 0 69.45 14.802 A 28.831 28.831 0 0 0 67.683 20.077 Q 66.331 25.702 66.134 33.844 A 117.926 117.926 0 0 0 66.1 36.702 Z" vector-effect="non-scaling-stroke"/></g></svg>