<svg width="101.1" height="71.2" viewBox="0 0 101.1 71.2" xmlns="http://www.w3.org/2000/svg"><g id="svgGroup" stroke-linecap="round" fill-rule="evenodd" font-size="9pt" stroke="#000" stroke-width="0.25mm" fill="#000" style="stroke:#000;stroke-width:0.25mm;fill:#000"><path d="M 40.9 71.2 L 0.3 71.2 Q 0 69.4 0 67.5 A 32.192 32.192 0 0 1 0.635 60.975 A 25.813 25.813 0 0 1 2.25 55.85 Q 4.5 50.7 8.1 46.45 Q 11.7 42.2 15.75 38.55 Q 19.8 34.9 23.35 31.55 A 46.218 46.218 0 0 0 26.769 27.977 A 35.601 35.601 0 0 0 29.2 24.8 Q 31.5 21.4 31.5 17.7 A 9.278 9.278 0 0 0 30.676 13.755 A 9.139 9.139 0 0 0 28.4 10.75 A 10.723 10.723 0 0 0 23.083 8.23 A 15.011 15.011 0 0 0 20.4 8 A 18.533 18.533 0 0 0 15.443 8.645 A 16.281 16.281 0 0 0 12.75 9.65 A 25.364 25.364 0 0 0 6.962 13.502 A 28.825 28.825 0 0 0 6.3 14.1 L 1.3 8 Q 5.3 4.4 10.15 2.2 A 24.132 24.132 0 0 1 16.456 0.363 A 32.297 32.297 0 0 1 21.4 0 A 26.13 26.13 0 0 1 26.602 0.495 A 19.778 19.778 0 0 1 31.7 2.25 A 17.784 17.784 0 0 1 36.587 5.862 A 16.365 16.365 0 0 1 38.55 8.4 Q 41 12.3 41 17.1 Q 41 21.9 38.9 26 A 34.778 34.778 0 0 1 33.908 33.248 A 38.693 38.693 0 0 1 33.5 33.7 Q 30.2 37.3 26.4 40.65 Q 22.6 44 19.1 47.5 A 45.932 45.932 0 0 0 14.526 52.803 A 40.289 40.289 0 0 0 13.15 54.8 Q 10.7 58.6 10.1 63 L 40.9 63 L 40.9 71.2 Z M 101.1 71.2 L 65.9 71.2 L 65.9 63.2 L 80.2 63.2 L 80.2 12.7 L 66.8 22.8 L 61.9 16.1 L 82.6 1.2 L 89.2 1.2 L 89.2 63.2 L 101.1 63.2 L 101.1 71.2 Z" vector-effect="non-scaling-stroke"/></g></svg>