<svg width="104.4" height="72.401" viewBox="0 0 104.4 72.401" xmlns="http://www.w3.org/2000/svg"><g id="svgGroup" stroke-linecap="round" fill-rule="evenodd" font-size="9pt" stroke="#1d6bd9" stroke-width="0.25mm" fill="#3388ff" style="stroke:#1d6bd9;stroke-width:0.25mm;fill:#3388ff"><path d="M 47.2 64.401 L 47.2 72.401 L 0 72.401 L 0 65.101 L 18.7 46.201 A 282.39 282.39 0 0 0 22.511 42.319 Q 24.371 40.386 25.972 38.635 A 147.086 147.086 0 0 0 27.8 36.601 A 42.98 42.98 0 0 0 30.693 32.954 Q 32.331 30.629 33.4 28.351 A 20.336 20.336 0 0 0 35.283 20.394 A 23.738 23.738 0 0 0 35.3 19.501 A 15.828 15.828 0 0 0 34.925 15.945 Q 34.361 13.497 32.947 11.741 A 9.39 9.39 0 0 0 31.8 10.551 A 12.111 12.111 0 0 0 26.149 7.829 A 17.259 17.259 0 0 0 22.7 7.501 Q 17.5 7.501 13.55 9.301 A 35.944 35.944 0 0 0 9.075 11.759 A 47.268 47.268 0 0 0 5.5 14.301 L 0.8 8.401 A 40.493 40.493 0 0 1 8.288 3.489 A 46.886 46.886 0 0 1 10.45 2.451 Q 15.9 0.001 22.7 0.001 A 32.09 32.09 0 0 1 29.079 0.597 Q 33.027 1.398 36.081 3.275 A 18.129 18.129 0 0 1 38.5 5.051 A 16.547 16.547 0 0 1 44.042 15.417 A 23.951 23.951 0 0 1 44.3 19.001 Q 44.3 24.601 42 29.501 Q 39.7 34.401 35.6 39.151 Q 31.5 43.901 26 49.301 L 11.1 64.001 L 11.1 64.401 L 47.2 64.401 Z M 104.4 64.401 L 104.4 72.401 L 57.2 72.401 L 57.2 65.101 L 75.9 46.201 A 282.39 282.39 0 0 0 79.711 42.319 Q 81.571 40.386 83.172 38.635 A 147.086 147.086 0 0 0 85 36.601 A 42.98 42.98 0 0 0 87.893 32.954 Q 89.531 30.629 90.6 28.351 A 20.336 20.336 0 0 0 92.483 20.394 A 23.738 23.738 0 0 0 92.5 19.501 A 15.828 15.828 0 0 0 92.125 15.945 Q 91.561 13.497 90.147 11.741 A 9.39 9.39 0 0 0 89 10.551 A 12.111 12.111 0 0 0 83.349 7.829 A 17.259 17.259 0 0 0 79.9 7.501 Q 74.7 7.501 70.75 9.301 A 35.944 35.944 0 0 0 66.275 11.759 A 47.268 47.268 0 0 0 62.7 14.301 L 58 8.401 A 40.493 40.493 0 0 1 65.488 3.489 A 46.886 46.886 0 0 1 67.65 2.451 Q 73.1 0.001 79.9 0.001 A 32.09 32.09 0 0 1 86.279 0.597 Q 90.227 1.398 93.281 3.275 A 18.129 18.129 0 0 1 95.7 5.051 A 16.547 16.547 0 0 1 101.242 15.417 A 23.951 23.951 0 0 1 101.5 19.001 Q 101.5 24.601 99.2 29.501 Q 96.9 34.401 92.8 39.151 Q 88.7 43.901 83.2 49.301 L 68.3 64.001 L 68.3 64.401 L 104.4 64.401 Z" vector-effect="non-scaling-stroke"/></g></svg>