<svg width="101.1" height="72.401" viewBox="0 0 101.1 72.401" xmlns="http://www.w3.org/2000/svg"><g id="svgGroup" stroke-linecap="round" fill-rule="evenodd" font-size="9pt" stroke="#000" stroke-width="0.25mm" fill="#000" style="stroke:#000;stroke-width:0.25mm;fill:#000"><path d="M 57.9 66.4 L 62 58.9 A 29.424 29.424 0 0 0 65.852 61.33 A 36.526 36.526 0 0 0 68.5 62.6 A 18.21 18.21 0 0 0 72.321 63.749 Q 74.168 64.102 76.29 64.179 A 33.313 33.313 0 0 0 77.5 64.2 Q 84.1 64.2 87.95 60.7 A 11.476 11.476 0 0 0 91.14 56.015 A 11.929 11.929 0 0 0 91.8 52 Q 91.8 48.3 89.8 45.25 Q 87.855 42.284 83.876 40.405 A 21.187 21.187 0 0 0 83.65 40.3 Q 80.444 38.832 75.774 38.499 A 40.356 40.356 0 0 0 72.9 38.4 L 67.3 38.4 L 67.3 31.1 L 72.5 31.1 A 31.908 31.908 0 0 0 76.557 30.858 Q 79.814 30.439 82.25 29.3 A 16.484 16.484 0 0 0 85.152 27.586 A 11.823 11.823 0 0 0 88 24.6 Q 89.9 21.7 89.9 18.5 A 10.072 10.072 0 0 0 89.172 14.611 A 9.418 9.418 0 0 0 86.35 10.9 A 12.755 12.755 0 0 0 79.796 8.139 A 16.888 16.888 0 0 0 77.6 8 Q 72.9 8 69.25 9.55 Q 65.6 11.1 63.3 13 L 59.6 5.9 A 32.63 32.63 0 0 1 62.089 4.407 Q 63.51 3.633 65.191 2.867 A 66.563 66.563 0 0 1 67.3 1.95 A 24.597 24.597 0 0 1 72.746 0.429 Q 75.347 0 78.3 0 Q 84.284 0 88.624 1.973 A 17.976 17.976 0 0 1 89.5 2.4 A 19.376 19.376 0 0 1 93.781 5.388 A 16.398 16.398 0 0 1 96.55 8.75 Q 99 12.7 99 17.3 A 19.531 19.531 0 0 1 98.475 21.94 A 14.587 14.587 0 0 1 96.05 27.2 A 19.553 19.553 0 0 1 91.684 31.457 A 26.455 26.455 0 0 1 87.7 33.8 A 24.812 24.812 0 0 1 93.158 36.653 A 19.796 19.796 0 0 1 97.55 40.85 A 17.3 17.3 0 0 1 101.097 51.314 A 21.406 21.406 0 0 1 101.1 51.7 Q 101.1 56.9 98.55 61.65 A 18.802 18.802 0 0 1 92.918 68.004 A 23.697 23.697 0 0 1 90.75 69.4 Q 86.241 71.977 79.63 72.341 A 40.608 40.608 0 0 1 77.4 72.4 A 40.712 40.712 0 0 1 72.038 72.065 Q 68.8 71.635 66.1 70.65 Q 61.3 68.9 57.9 66.4 Z M 40.9 71.2 L 0.3 71.2 Q 0 69.4 0 67.5 A 32.192 32.192 0 0 1 0.635 60.975 A 25.813 25.813 0 0 1 2.25 55.85 Q 4.5 50.7 8.1 46.45 Q 11.7 42.2 15.75 38.55 Q 19.8 34.9 23.35 31.55 A 46.218 46.218 0 0 0 26.769 27.977 A 35.601 35.601 0 0 0 29.2 24.8 Q 31.5 21.4 31.5 17.7 A 9.278 9.278 0 0 0 30.676 13.755 A 9.139 9.139 0 0 0 28.4 10.75 A 10.723 10.723 0 0 0 23.083 8.23 A 15.011 15.011 0 0 0 20.4 8 A 18.533 18.533 0 0 0 15.443 8.645 A 16.281 16.281 0 0 0 12.75 9.65 A 25.364 25.364 0 0 0 6.962 13.502 A 28.825 28.825 0 0 0 6.3 14.1 L 1.3 8 Q 5.3 4.4 10.15 2.2 A 24.132 24.132 0 0 1 16.456 0.363 A 32.297 32.297 0 0 1 21.4 0 A 26.13 26.13 0 0 1 26.602 0.495 A 19.778 19.778 0 0 1 31.7 2.25 A 17.784 17.784 0 0 1 36.587 5.862 A 16.365 16.365 0 0 1 38.55 8.4 Q 41 12.3 41 17.1 Q 41 21.9 38.9 26 A 34.778 34.778 0 0 1 33.908 33.248 A 38.693 38.693 0 0 1 33.5 33.7 Q 30.2 37.3 26.4 40.65 Q 22.6 44 19.1 47.5 A 45.932 45.932 0 0 0 14.526 52.803 A 40.289 40.289 0 0 0 13.15 54.8 Q 10.7 58.6 10.1 63 L 40.9 63 L 40.9 71.2 Z" vector-effect="non-scaling-stroke"/></g></svg>