<svg width="103.901" height="73.401" viewBox="0 0 103.901 73.401" xmlns="http://www.w3.org/2000/svg"><g id="svgGroup" stroke-linecap="round" fill-rule="evenodd" font-size="9pt" stroke="#1d6bd9" stroke-width="0.25mm" fill="#3388ff" style="stroke:#1d6bd9;stroke-width:0.25mm;fill:#3388ff"><path d="M 86.9 34.801 L 86.9 35.201 Q 92.851 35.893 96.696 38.213 A 14.439 14.439 0 0 1 99.7 40.601 Q 103.9 45.001 103.9 52.101 Q 103.9 58.301 101 63.151 A 17.65 17.65 0 0 1 95.524 68.803 A 23.644 23.644 0 0 1 92.05 70.701 A 27.775 27.775 0 0 1 86.565 72.449 Q 82.141 73.401 76.5 73.401 A 65.018 65.018 0 0 1 70.132 73.101 A 52.799 52.799 0 0 1 66.1 72.551 Q 61.3 71.701 56.9 69.501 L 56.9 61.301 A 46.592 46.592 0 0 0 65.631 64.508 A 51.988 51.988 0 0 0 66.6 64.751 Q 71.8 66.001 76.6 66.001 A 38.923 38.923 0 0 0 81.45 65.72 Q 86.704 65.058 89.727 62.833 A 10.487 10.487 0 0 0 90.45 62.251 A 12.301 12.301 0 0 0 94.489 54.698 A 17.852 17.852 0 0 0 94.7 51.901 A 13.325 13.325 0 0 0 94.161 47.993 A 9.647 9.647 0 0 0 89.45 42.251 A 19.683 19.683 0 0 0 84.915 40.453 Q 82.643 39.841 79.902 39.554 A 50.083 50.083 0 0 0 74.7 39.301 L 67.8 39.301 L 67.8 31.801 L 74.8 31.801 A 33.522 33.522 0 0 0 79.768 31.457 Q 82.336 31.071 84.407 30.252 A 14.109 14.109 0 0 0 88.15 28.101 A 11.842 11.842 0 0 0 92.657 19.469 A 15.467 15.467 0 0 0 92.7 18.301 A 12.344 12.344 0 0 0 92.248 14.867 A 9.059 9.059 0 0 0 89.2 10.251 A 11.96 11.96 0 0 0 84.776 8.027 Q 83.078 7.557 81.072 7.44 A 23.488 23.488 0 0 0 79.7 7.401 Q 73.9 7.401 69.8 9.101 A 49.31 49.31 0 0 0 62.764 12.726 A 55.322 55.322 0 0 0 61.7 13.401 L 57.3 7.401 Q 61.1 4.401 66.75 2.201 A 31.71 31.71 0 0 1 74.006 0.364 A 41.502 41.502 0 0 1 79.6 0.001 Q 90.8 0.001 96.25 5.001 A 16.363 16.363 0 0 1 101.686 16.926 A 21.194 21.194 0 0 1 101.7 17.701 A 21.012 21.012 0 0 1 101.183 22.495 A 14.244 14.244 0 0 1 97.7 29.151 A 18.148 18.148 0 0 1 91.153 33.538 A 24.743 24.743 0 0 1 86.9 34.801 Z M 47.2 64.401 L 47.2 72.401 L 0 72.401 L 0 65.101 L 18.7 46.201 A 282.39 282.39 0 0 0 22.511 42.319 Q 24.371 40.386 25.972 38.635 A 147.086 147.086 0 0 0 27.8 36.601 A 42.98 42.98 0 0 0 30.693 32.954 Q 32.331 30.629 33.4 28.351 A 20.336 20.336 0 0 0 35.283 20.394 A 23.738 23.738 0 0 0 35.3 19.501 A 15.828 15.828 0 0 0 34.925 15.945 Q 34.361 13.497 32.947 11.741 A 9.39 9.39 0 0 0 31.8 10.551 A 12.111 12.111 0 0 0 26.149 7.829 A 17.259 17.259 0 0 0 22.7 7.501 Q 17.5 7.501 13.55 9.301 A 35.944 35.944 0 0 0 9.075 11.759 A 47.268 47.268 0 0 0 5.5 14.301 L 0.8 8.401 A 40.493 40.493 0 0 1 8.288 3.489 A 46.886 46.886 0 0 1 10.45 2.451 Q 15.9 0.001 22.7 0.001 A 32.09 32.09 0 0 1 29.079 0.597 Q 33.027 1.398 36.081 3.275 A 18.129 18.129 0 0 1 38.5 5.051 A 16.547 16.547 0 0 1 44.042 15.417 A 23.951 23.951 0 0 1 44.3 19.001 Q 44.3 24.601 42 29.501 Q 39.7 34.401 35.6 39.151 Q 31.5 43.901 26 49.301 L 11.1 64.001 L 11.1 64.401 L 47.2 64.401 Z" vector-effect="non-scaling-stroke"/></g></svg>