<svg width="43.2" height="72.401" viewBox="0 0 43.2 72.401" xmlns="http://www.w3.org/2000/svg"><g id="svgGroup" stroke-linecap="round" fill-rule="evenodd" font-size="9pt" stroke="#000" stroke-width="0.25mm" fill="#000" style="stroke:#000;stroke-width:0.25mm;fill:#000"><path d="M 0 66.4 L 4.1 58.9 A 29.424 29.424 0 0 0 7.952 61.33 A 36.526 36.526 0 0 0 10.6 62.6 A 18.21 18.21 0 0 0 14.42 63.749 Q 16.267 64.102 18.39 64.179 A 33.313 33.313 0 0 0 19.6 64.2 Q 26.2 64.2 30.05 60.7 A 11.476 11.476 0 0 0 33.24 56.015 A 11.929 11.929 0 0 0 33.9 52 Q 33.9 48.3 31.9 45.25 Q 29.955 42.284 25.975 40.405 A 21.187 21.187 0 0 0 25.75 40.3 Q 22.543 38.832 17.874 38.499 A 40.356 40.356 0 0 0 15 38.4 L 9.4 38.4 L 9.4 31.1 L 14.6 31.1 A 31.908 31.908 0 0 0 18.656 30.858 Q 21.914 30.439 24.35 29.3 A 16.484 16.484 0 0 0 27.251 27.586 A 11.823 11.823 0 0 0 30.1 24.6 Q 32 21.7 32 18.5 A 10.072 10.072 0 0 0 31.271 14.611 A 9.418 9.418 0 0 0 28.45 10.9 A 12.755 12.755 0 0 0 21.896 8.139 A 16.888 16.888 0 0 0 19.7 8 Q 15 8 11.35 9.55 Q 7.7 11.1 5.4 13 L 1.7 5.9 A 32.63 32.63 0 0 1 4.189 4.407 Q 5.61 3.633 7.29 2.867 A 66.563 66.563 0 0 1 9.4 1.95 A 24.597 24.597 0 0 1 14.845 0.429 Q 17.447 0 20.4 0 Q 26.384 0 30.724 1.973 A 17.976 17.976 0 0 1 31.6 2.4 A 19.376 19.376 0 0 1 35.881 5.388 A 16.398 16.398 0 0 1 38.65 8.75 Q 41.1 12.7 41.1 17.3 A 19.531 19.531 0 0 1 40.575 21.94 A 14.587 14.587 0 0 1 38.15 27.2 A 19.553 19.553 0 0 1 33.783 31.457 A 26.455 26.455 0 0 1 29.8 33.8 A 24.812 24.812 0 0 1 35.258 36.653 A 19.796 19.796 0 0 1 39.65 40.85 A 17.3 17.3 0 0 1 43.197 51.314 A 21.406 21.406 0 0 1 43.2 51.7 Q 43.2 56.9 40.65 61.65 A 18.802 18.802 0 0 1 35.018 68.004 A 23.697 23.697 0 0 1 32.85 69.4 Q 28.341 71.977 21.729 72.341 A 40.608 40.608 0 0 1 19.5 72.4 A 40.712 40.712 0 0 1 14.138 72.065 Q 10.9 71.635 8.2 70.65 Q 3.4 68.9 0 66.4 Z" vector-effect="non-scaling-stroke"/></g></svg>