<svg width="47.001" height="73.401" viewBox="0 0 47.001 73.401" xmlns="http://www.w3.org/2000/svg"><g id="svgGroup" stroke-linecap="round" fill-rule="evenodd" font-size="9pt" stroke="#1d6bd9" stroke-width="0.25mm" fill="#3388ff" style="stroke:#1d6bd9;stroke-width:0.25mm;fill:#3388ff"><path d="M 30 34.801 L 30 35.201 Q 35.951 35.893 39.796 38.213 A 14.439 14.439 0 0 1 42.8 40.601 Q 47 45.001 47 52.101 Q 47 58.301 44.1 63.151 A 17.65 17.65 0 0 1 38.624 68.803 A 23.644 23.644 0 0 1 35.15 70.701 A 27.775 27.775 0 0 1 29.665 72.449 Q 25.241 73.401 19.6 73.401 A 65.018 65.018 0 0 1 13.232 73.101 A 52.799 52.799 0 0 1 9.2 72.551 Q 4.4 71.701 0 69.501 L 0 61.301 A 46.592 46.592 0 0 0 8.731 64.508 A 51.988 51.988 0 0 0 9.7 64.751 Q 14.9 66.001 19.7 66.001 A 38.923 38.923 0 0 0 24.55 65.72 Q 29.804 65.058 32.827 62.833 A 10.487 10.487 0 0 0 33.55 62.251 A 12.301 12.301 0 0 0 37.589 54.698 A 17.852 17.852 0 0 0 37.8 51.901 A 13.325 13.325 0 0 0 37.261 47.993 A 9.647 9.647 0 0 0 32.55 42.251 A 19.683 19.683 0 0 0 28.015 40.453 Q 25.743 39.841 23.002 39.554 A 50.083 50.083 0 0 0 17.8 39.301 L 10.9 39.301 L 10.9 31.801 L 17.9 31.801 A 33.522 33.522 0 0 0 22.868 31.457 Q 25.436 31.071 27.507 30.252 A 14.109 14.109 0 0 0 31.25 28.101 A 11.842 11.842 0 0 0 35.757 19.469 A 15.467 15.467 0 0 0 35.8 18.301 A 12.344 12.344 0 0 0 35.348 14.867 A 9.059 9.059 0 0 0 32.3 10.251 A 11.96 11.96 0 0 0 27.876 8.027 Q 26.178 7.557 24.172 7.44 A 23.488 23.488 0 0 0 22.8 7.401 Q 17 7.401 12.9 9.101 A 49.31 49.31 0 0 0 5.864 12.726 A 55.322 55.322 0 0 0 4.8 13.401 L 0.4 7.401 Q 4.2 4.401 9.85 2.201 A 31.71 31.71 0 0 1 17.106 0.364 A 41.502 41.502 0 0 1 22.7 0.001 Q 33.9 0.001 39.35 5.001 A 16.363 16.363 0 0 1 44.786 16.926 A 21.194 21.194 0 0 1 44.8 17.701 A 21.012 21.012 0 0 1 44.283 22.495 A 14.244 14.244 0 0 1 40.8 29.151 A 18.148 18.148 0 0 1 34.253 33.538 A 24.743 24.743 0 0 1 30 34.801 Z" vector-effect="non-scaling-stroke"/></g></svg>