<svg width="45.02" height="72.413" viewBox="0 0 45.02 72.413" xmlns="http://www.w3.org/2000/svg"><g id="svgGroup" stroke-linecap="round" fill-rule="evenodd" font-size="9pt" stroke="#000000" stroke-width="0.5mm" fill="#ffffff" style="stroke:#000000;stroke-width:0.5mm;fill:#ffffff"><path d="M 4.102 11.573 L 1.416 4.981 A 50.359 50.359 0 0 1 11.276 1.265 A 39.328 39.328 0 0 1 21.045 0.001 A 28.909 28.909 0 0 1 27.874 0.767 A 21.015 21.015 0 0 1 36.06 4.688 A 16.525 16.525 0 0 1 39.873 8.848 A 14.016 14.016 0 0 1 41.992 16.456 A 17.197 17.197 0 0 1 40.65 23.282 A 16.519 16.519 0 0 1 39.087 26.124 Q 36.182 30.372 31.348 32.227 A 25.952 25.952 0 0 1 35.768 33.828 Q 39.561 35.634 41.724 38.502 A 16.332 16.332 0 0 1 44.937 47.053 A 20.878 20.878 0 0 1 45.02 48.927 A 23.43 23.43 0 0 1 43.821 56.515 A 21.056 21.056 0 0 1 41.528 61.231 A 22.865 22.865 0 0 1 32.124 69.416 A 27.167 27.167 0 0 1 31.934 69.508 A 29.898 29.898 0 0 1 22.554 72.157 A 37.491 37.491 0 0 1 18.115 72.413 A 46.084 46.084 0 0 1 2.259 69.534 A 53.452 53.452 0 0 1 0 68.653 L 2.344 61.915 A 119.23 119.23 0 0 0 7.705 63.26 Q 12.919 64.431 16.61 64.649 A 27.322 27.322 0 0 0 18.213 64.698 A 24.793 24.793 0 0 0 24.655 63.896 A 19.704 19.704 0 0 0 31.201 60.792 A 14.128 14.128 0 0 0 34.474 57.546 A 11.507 11.507 0 0 0 36.572 50.733 A 12.835 12.835 0 0 0 36.133 47.388 A 8.433 8.433 0 0 0 35.628 46.027 Q 35.32 45.365 34.878 44.653 A 18.151 18.151 0 0 0 34.277 43.751 A 12.433 12.433 0 0 0 31.662 41.062 A 15.08 15.08 0 0 0 30.542 40.284 A 14.178 14.178 0 0 0 28.638 39.291 Q 26.731 38.459 24.072 37.818 Q 19.922 36.817 14.453 36.817 L 14.453 29.688 Q 18.702 29.688 22.06 28.935 A 25.219 25.219 0 0 0 22.29 28.883 A 28.795 28.795 0 0 0 24.588 28.25 Q 25.651 27.906 26.537 27.508 A 13.068 13.068 0 0 0 27.808 26.856 A 13.809 13.809 0 0 0 29.962 25.306 A 11.4 11.4 0 0 0 31.226 24 Q 32.369 22.607 32.91 21.303 A 7.223 7.223 0 0 0 33.081 20.85 A 9.529 9.529 0 0 0 33.594 17.774 Q 33.594 13.526 29.883 10.523 A 12.867 12.867 0 0 0 24.936 8.095 Q 23.059 7.61 20.849 7.534 A 24.209 24.209 0 0 0 20.02 7.52 Q 13.987 7.52 6.766 10.422 A 58.137 58.137 0 0 0 4.102 11.573 Z" vector-effect="non-scaling-stroke"/></g></svg>