<svg width="43.001" height="71.2" viewBox="0 0 43.001 71.2" xmlns="http://www.w3.org/2000/svg"><g id="svgGroup" stroke-linecap="round" fill-rule="evenodd" font-size="9pt" stroke="#000" stroke-width="0.25mm" fill="#000" style="stroke:#000;stroke-width:0.25mm;fill:#000"><path d="M 0 66 L 4.7 58.3 A 28.895 28.895 0 0 0 10.477 61.479 A 32.164 32.164 0 0 0 10.9 61.65 Q 14.3 63 18.6 63 A 18.948 18.948 0 0 0 23.349 62.436 A 13.678 13.678 0 0 0 29.4 59.15 A 12.805 12.805 0 0 0 33.491 49.861 A 17.128 17.128 0 0 0 33.5 49.3 A 14.735 14.735 0 0 0 32.657 44.224 A 12.876 12.876 0 0 0 29.25 39.15 A 13.782 13.782 0 0 0 23.801 36.097 Q 20.865 35.2 17.1 35.2 L 4.7 35.2 L 4.7 0 L 39.3 0 L 39.3 8.1 L 13.2 8.1 L 13.2 27.1 L 18.2 27.1 A 37.701 37.701 0 0 1 24.381 27.581 Q 27.846 28.157 30.736 29.424 A 22.674 22.674 0 0 1 31.55 29.8 A 21.393 21.393 0 0 1 36.971 33.502 A 18.764 18.764 0 0 1 40.05 37.3 A 20.024 20.024 0 0 1 42.921 46.303 A 24.706 24.706 0 0 1 43 48.3 A 25.044 25.044 0 0 1 42.139 54.981 A 21.101 21.101 0 0 1 39.95 60.15 Q 36.9 65.3 31.4 68.25 A 24.425 24.425 0 0 1 23.783 70.785 A 32.353 32.353 0 0 1 18.5 71.2 A 46.433 46.433 0 0 1 13.824 70.977 Q 10.613 70.652 8 69.85 Q 3.6 68.5 0 66 Z" vector-effect="non-scaling-stroke"/></g></svg>