<svg width="45.201" height="72.4" viewBox="0 0 45.201 72.4" xmlns="http://www.w3.org/2000/svg"><g id="svgGroup" stroke-linecap="round" fill-rule="evenodd" font-size="9pt" stroke="#1d6bd9" stroke-width="0.25mm" fill="#3388ff" style="stroke:#1d6bd9;stroke-width:0.25mm;fill:#3388ff"><path d="M 0 68.5 L 0 60.2 Q 3.375 62.263 8.112 63.49 A 42.607 42.607 0 0 0 8.75 63.65 A 44.734 44.734 0 0 0 15.012 64.724 A 37.434 37.434 0 0 0 18.6 64.9 A 27.202 27.202 0 0 0 23.884 64.416 Q 27.153 63.768 29.718 62.255 A 15.737 15.737 0 0 0 31.35 61.15 A 11.908 11.908 0 0 0 35.574 54.642 Q 36.122 52.627 36.19 50.201 A 24.843 24.843 0 0 0 36.2 49.5 A 18.199 18.199 0 0 0 35.703 45.118 A 12.068 12.068 0 0 0 31.9 38.75 A 12.969 12.969 0 0 0 27.778 36.393 Q 24.205 35.087 19.001 35.005 A 44.729 44.729 0 0 0 18.3 35 A 37.669 37.669 0 0 0 15.697 35.096 Q 14.368 35.188 12.897 35.369 A 65.221 65.221 0 0 0 11.9 35.5 Q 8.3 36 6.1 36.5 L 1.7 33.7 L 4.4 0 L 40.2 0 L 40.2 8 L 11.9 8 L 10.2 28.7 A 69.409 69.409 0 0 1 11.125 28.544 Q 12.156 28.376 13.507 28.182 A 227.618 227.618 0 0 1 14.8 28 Q 17.7 27.6 21.2 27.6 A 35.699 35.699 0 0 1 28.378 28.28 Q 34.485 29.534 38.7 33.1 A 17.924 17.924 0 0 1 44.843 44.16 A 26.439 26.439 0 0 1 45.2 48.6 A 28.1 28.1 0 0 1 44.249 56.111 A 20.416 20.416 0 0 1 38.15 66.05 Q 31.799 71.771 20.943 72.338 A 46.848 46.848 0 0 1 18.5 72.4 Q 13 72.4 8.15 71.4 A 34.59 34.59 0 0 1 4.334 70.396 Q 2.401 69.76 0.796 68.934 A 19.47 19.47 0 0 1 0 68.5 Z" vector-effect="non-scaling-stroke"/></g></svg>