<svg width="47.119" height="70.361" viewBox="0 0 47.119 70.361" xmlns="http://www.w3.org/2000/svg"><g id="svgGroup" stroke-linecap="round" fill-rule="evenodd" font-size="9pt" stroke="#ffffff" stroke-width="0.25mm" fill="#000" style="stroke:#ffffff;stroke-width:0.25mm;fill:#000"><path d="M 3.027 34.229 L 3.027 0 L 44.824 0 L 44.824 7.324 L 10.986 7.324 L 10.986 26.27 A 80.318 80.318 0 0 1 20.293 25.637 A 73.975 73.975 0 0 1 20.898 25.635 A 44.942 44.942 0 0 1 25.783 25.89 A 35.986 35.986 0 0 1 29.272 26.44 A 35.782 35.782 0 0 1 32.189 27.176 Q 34.177 27.772 35.742 28.54 A 21.346 21.346 0 0 1 40.06 31.326 A 19.856 19.856 0 0 1 40.454 31.665 Q 42.529 33.496 43.75 35.425 A 20.81 20.81 0 0 1 45.752 39.526 A 26.036 26.036 0 0 1 46.407 41.604 A 19.085 19.085 0 0 1 46.826 43.555 A 23.454 23.454 0 0 1 47.119 47.217 A 23.921 23.921 0 0 1 46.826 50.903 A 18.657 18.657 0 0 1 46.467 52.632 Q 46.244 53.507 45.926 54.459 A 32.242 32.242 0 0 1 45.703 55.103 A 21.984 21.984 0 0 1 43.555 59.497 Q 42.319 61.443 40.224 63.367 A 27.711 27.711 0 0 1 39.941 63.623 Q 37.646 65.674 34.692 67.114 Q 32.167 68.346 28.642 69.185 A 45.53 45.53 0 0 1 27.417 69.458 A 41.839 41.839 0 0 1 22.27 70.188 A 53.963 53.963 0 0 1 17.871 70.361 A 93.916 93.916 0 0 1 0 68.652 L 1.563 61.279 A 71.294 71.294 0 0 0 12.118 62.689 A 84.322 84.322 0 0 0 17.236 62.842 A 43.936 43.936 0 0 0 21.198 62.671 A 33.427 33.427 0 0 0 24.78 62.158 A 28.675 28.675 0 0 0 27.164 61.577 Q 28.379 61.221 29.402 60.784 A 14.742 14.742 0 0 0 30.42 60.303 A 20.188 20.188 0 0 0 32.746 58.892 A 16.083 16.083 0 0 0 34.277 57.666 A 12.235 12.235 0 0 0 35.914 55.866 A 10.169 10.169 0 0 0 36.768 54.492 A 17.532 17.532 0 0 0 37.524 52.82 A 13.428 13.428 0 0 0 38.037 51.221 A 13.037 13.037 0 0 0 38.428 48.047 Q 38.428 46.143 37.866 44.238 Q 37.34 42.455 36.044 40.522 A 19.948 19.948 0 0 0 35.864 40.259 A 14.722 14.722 0 0 0 32.565 36.868 A 16.745 16.745 0 0 0 32.227 36.621 A 13.728 13.728 0 0 0 30.204 35.444 Q 29.171 34.949 27.94 34.531 A 27.595 27.595 0 0 0 26.392 34.058 A 27.046 27.046 0 0 0 22.258 33.277 A 36.411 36.411 0 0 0 18.164 33.057 Q 13.037 33.057 3.027 34.229 Z" vector-effect="non-scaling-stroke"/></g></svg>