<svg width="46.101" height="71.401" viewBox="0 0 46.101 71.401" xmlns="http://www.w3.org/2000/svg"><g id="svgGroup" stroke-linecap="round" fill-rule="evenodd" font-size="9pt" stroke="#000" stroke-width="0.25mm" fill="#000" style="stroke:#000;stroke-width:0.25mm;fill:#000"><path d="M 39.7 0.2 L 39.7 8.4 Q 38.9 8.3 37.9 8.25 A 40.076 40.076 0 0 0 36.573 8.205 A 34.119 34.119 0 0 0 36 8.2 A 29.284 29.284 0 0 0 27.489 9.384 A 23.482 23.482 0 0 0 18.05 14.85 A 26.884 26.884 0 0 0 11.144 25.71 A 37.941 37.941 0 0 0 9.4 33.1 Q 12.023 30.572 16.048 28.438 A 42.254 42.254 0 0 1 16.6 28.15 A 20.497 20.497 0 0 1 23.545 26.078 A 25.578 25.578 0 0 1 26.6 25.9 A 20.631 20.631 0 0 1 32.674 26.769 A 18.128 18.128 0 0 1 36.6 28.5 Q 41 31.1 43.55 35.75 Q 46.1 40.4 46.1 46.8 A 30.622 30.622 0 0 1 45.366 53.65 A 24.26 24.26 0 0 1 43.15 59.65 A 22.279 22.279 0 0 1 37.229 66.827 A 21.642 21.642 0 0 1 35.1 68.3 A 21.377 21.377 0 0 1 25.823 71.291 A 26.436 26.436 0 0 1 23.4 71.4 Q 17.1 71.4 11.75 68.25 A 20.258 20.258 0 0 1 5.532 62.46 A 27.251 27.251 0 0 1 3.2 58.5 A 29.191 29.191 0 0 1 1.013 52.055 Q 0.317 48.911 0.099 45.243 A 58.177 58.177 0 0 1 0 41.8 A 57.323 57.323 0 0 1 1.374 29.099 A 51.807 51.807 0 0 1 2.25 25.75 A 40.567 40.567 0 0 1 7.361 14.733 A 37.643 37.643 0 0 1 9.05 12.4 Q 13.6 6.6 20.3 3.3 Q 27 0 35.9 0 Q 36.8 0 37.85 0.05 A 30.488 30.488 0 0 1 38.721 0.104 Q 39.118 0.134 39.471 0.173 A 17.166 17.166 0 0 1 39.7 0.2 Z M 9.2 41.1 L 9.2 43.3 Q 9.4 52.7 13.55 57.95 A 14.986 14.986 0 0 0 17.014 61.2 A 12.026 12.026 0 0 0 23.8 63.2 A 13.23 13.23 0 0 0 28.523 62.388 A 11.758 11.758 0 0 0 33.45 58.8 A 15.717 15.717 0 0 0 36.926 50.644 A 20.926 20.926 0 0 0 37.1 47.9 A 19.676 19.676 0 0 0 36.608 43.377 A 13.684 13.684 0 0 0 33.6 37.4 A 11.516 11.516 0 0 0 25.368 33.435 A 15.928 15.928 0 0 0 24.3 33.4 Q 20 33.4 16.1 35.5 Q 12.2 37.6 9.2 41.1 Z" vector-effect="non-scaling-stroke"/></g></svg>