<svg width="46.779" height="71.143" viewBox="0 0 46.779 71.143" xmlns="http://www.w3.org/2000/svg"><g id="svgGroup" stroke-linecap="round" fill-rule="evenodd" font-size="9pt" stroke="#000000" stroke-width="0.5mm" fill="#ffffff" style="stroke:#000000;stroke-width:0.5mm;fill:#ffffff"><path d="M 42.041 0.342 L 41.455 7.568 A 47.282 47.282 0 0 0 36.231 7.275 A 43.476 43.476 0 0 0 31.345 7.538 A 33.985 33.985 0 0 0 27.661 8.154 Q 24.428 8.886 22.058 9.957 A 18.883 18.883 0 0 0 21.143 10.4 Q 18.506 11.768 16.406 13.843 Q 14.307 15.918 13.086 17.92 A 21.378 21.378 0 0 0 11.695 20.639 A 26.65 26.65 0 0 0 10.987 22.485 A 45.752 45.752 0 0 0 10.399 24.315 Q 10.131 25.22 9.941 26.024 A 22.652 22.652 0 0 0 9.741 26.953 A 59.364 59.364 0 0 0 9.394 28.955 A 77.338 77.338 0 0 0 9.082 31.152 A 19.069 19.069 0 0 1 14.339 27.04 A 22.859 22.859 0 0 1 15.967 26.245 A 21.747 21.747 0 0 1 23.259 24.478 A 25.898 25.898 0 0 1 25.098 24.414 A 23.957 23.957 0 0 1 32.645 25.555 A 19.926 19.926 0 0 1 40.698 30.591 Q 46.778 36.768 46.778 46.387 A 26.165 26.165 0 0 1 43.823 58.716 A 22.884 22.884 0 0 1 35.327 67.749 A 23.213 23.213 0 0 1 24.274 71.102 A 28.17 28.17 0 0 1 22.754 71.143 Q 20.752 71.143 18.799 70.85 A 19.355 19.355 0 0 1 16.754 70.422 Q 15.753 70.159 14.671 69.778 A 31.439 31.439 0 0 1 14.527 69.727 A 20.2 20.2 0 0 1 10.205 67.578 Q 8.203 66.26 6.275 63.965 A 21.975 21.975 0 0 1 3.527 59.784 A 25.363 25.363 0 0 1 3.003 58.691 A 25.42 25.42 0 0 1 1.944 55.879 Q 1.484 54.418 1.11 52.726 A 48.101 48.101 0 0 1 0.83 51.367 A 45.803 45.803 0 0 1 0.159 46.185 A 59.675 59.675 0 0 1 0 41.748 Q 0 32.851 1.731 25.852 A 47.595 47.595 0 0 1 2.002 24.805 Q 4.004 17.432 7.3 12.817 Q 10.596 8.203 15.332 5.249 A 32.936 32.936 0 0 1 22.279 1.936 A 29.423 29.423 0 0 1 25.073 1.147 A 45.108 45.108 0 0 1 31.682 0.161 A 55.885 55.885 0 0 1 35.987 0 A 46.478 46.478 0 0 1 38.028 0.048 Q 39.844 0.128 42.041 0.342 Z M 23.194 31.25 A 15.042 15.042 0 0 0 16.636 32.663 A 14.931 14.931 0 0 0 12.525 35.596 A 14.647 14.647 0 0 0 8.207 45.234 A 19.636 19.636 0 0 0 8.155 46.68 Q 8.155 53.564 12.671 58.936 A 15.986 15.986 0 0 0 16.667 62.413 A 13.383 13.383 0 0 0 23.682 64.307 Q 29.883 64.307 34.326 59.253 Q 38.77 54.199 38.77 47.266 A 17.905 17.905 0 0 0 37.979 41.822 A 14.47 14.47 0 0 0 34.156 35.693 A 15.264 15.264 0 0 0 23.194 31.25 Z" vector-effect="non-scaling-stroke"/></g></svg>