<svg width="47.001" height="73.401" viewBox="0 0 47.001 73.401" xmlns="http://www.w3.org/2000/svg"><g id="svgGroup" stroke-linecap="round" fill-rule="evenodd" font-size="9pt" stroke="#1d6bd9" stroke-width="0.25mm" fill="#3388ff" style="stroke:#1d6bd9;stroke-width:0.25mm;fill:#3388ff"><path d="M 41.5 0.9 L 41.5 8.4 A 19.549 19.549 0 0 0 39.365 7.827 A 25.61 25.61 0 0 0 37.45 7.5 Q 35.2 7.2 32.9 7.2 A 34.35 34.35 0 0 0 28.048 7.523 Q 25.454 7.894 23.285 8.689 A 18.27 18.27 0 0 0 21.4 9.5 A 19.06 19.06 0 0 0 16.202 13.251 A 17.569 17.569 0 0 0 14.15 15.8 Q 11.5 19.8 10.3 25 Q 9.1 30.2 8.8 36.1 L 9.4 36.1 A 18.237 18.237 0 0 1 13.524 31.697 A 22.864 22.864 0 0 1 15.8 30.15 A 16.151 16.151 0 0 1 20.312 28.351 Q 23 27.7 26.3 27.7 Q 35.6 27.7 41.3 33.35 A 18.364 18.364 0 0 1 46.059 41.734 Q 46.853 44.637 46.977 48.099 A 36.342 36.342 0 0 1 47 49.4 Q 47 59.107 42.38 65.208 A 20.06 20.06 0 0 1 40.85 67 A 20.426 20.426 0 0 1 29.234 73 A 29.202 29.202 0 0 1 24.3 73.4 A 23.311 23.311 0 0 1 14.65 71.407 A 22.7 22.7 0 0 1 12 70 A 21.197 21.197 0 0 1 5.813 64.077 A 28.817 28.817 0 0 1 3.25 59.6 A 31.913 31.913 0 0 1 1.028 52.767 Q 0.325 49.453 0.103 45.592 A 64.222 64.222 0 0 1 0 41.9 Q 0 34.2 1.35 26.75 Q 2.7 19.3 6.25 13.25 Q 9.8 7.2 16.2 3.6 A 25.752 25.752 0 0 1 22.76 1.077 Q 27.177 0 32.7 0 Q 34.8 0 37.35 0.2 A 28.924 28.924 0 0 1 38.991 0.373 Q 39.766 0.479 40.426 0.621 A 12.288 12.288 0 0 1 41.5 0.9 Z M 24.2 66 A 15.932 15.932 0 0 0 28.923 65.332 A 12.693 12.693 0 0 0 34.4 61.95 Q 37.387 58.848 38.086 53.134 A 30.801 30.801 0 0 0 38.3 49.4 A 21.726 21.726 0 0 0 37.874 44.965 Q 37.29 42.166 35.907 40.016 A 12.594 12.594 0 0 0 34.85 38.6 A 10.964 10.964 0 0 0 29.386 35.216 Q 27.209 34.6 24.5 34.6 A 19.174 19.174 0 0 0 20.357 35.028 A 14.88 14.88 0 0 0 16.3 36.55 A 16.437 16.437 0 0 0 12.863 39.066 A 13.906 13.906 0 0 0 10.85 41.5 A 12.401 12.401 0 0 0 9.358 44.647 A 10.43 10.43 0 0 0 8.9 47.7 A 22.703 22.703 0 0 0 10.394 55.719 A 25.933 25.933 0 0 0 10.6 56.25 Q 12.3 60.5 15.7 63.25 Q 19.1 66 24.2 66 Z" vector-effect="non-scaling-stroke"/></g></svg>