<svg width="44.4" height="70" viewBox="0 0 44.4 70" xmlns="http://www.w3.org/2000/svg"><g id="svgGroup" stroke-linecap="round" fill-rule="evenodd" font-size="9pt" stroke="#000" stroke-width="0.25mm" fill="#000" style="stroke:#000;stroke-width:0.25mm;fill:#000"><path d="M 20.3 70 L 10.2 70 A 147.157 147.157 0 0 1 10.497 60.426 Q 10.878 54.584 11.75 49.55 A 85.784 85.784 0 0 1 13.937 40.035 A 67.979 67.979 0 0 1 16.25 33.4 Q 19.2 26.2 23.6 20.1 A 100.624 100.624 0 0 1 31.608 10.386 A 113.526 113.526 0 0 1 33.7 8.2 L 0 8.2 L 0 0 L 44.4 0 L 44.4 7.2 Q 37.5 13.9 32.9 20.25 Q 28.3 26.6 25.5 33.65 A 60.778 60.778 0 0 0 22.856 42.151 A 77.888 77.888 0 0 0 21.5 49.55 A 123.029 123.029 0 0 0 20.68 57.82 Q 20.395 62.061 20.324 66.792 A 213.244 213.244 0 0 0 20.3 70 Z" vector-effect="non-scaling-stroke"/></g></svg>