<svg width="47.302" height="73.401" viewBox="0 0 47.302 73.401" xmlns="http://www.w3.org/2000/svg"><g id="svgGroup" stroke-linecap="round" fill-rule="evenodd" font-size="9pt" stroke="#1d6bd9" stroke-width="0.25mm" fill="#3388ff" style="stroke:#1d6bd9;stroke-width:0.25mm;fill:#3388ff"><path d="M 23.6 0.001 Q 33 0.001 39 4.401 A 14.274 14.274 0 0 1 44.882 14.843 A 20.858 20.858 0 0 1 45 17.101 A 16.935 16.935 0 0 1 44.594 20.89 A 13.301 13.301 0 0 1 43.15 24.601 A 19.631 19.631 0 0 1 38.771 29.785 A 22.493 22.493 0 0 1 38.2 30.251 Q 35.1 32.701 31.4 34.601 Q 35.8 36.701 39.4 39.351 A 22.726 22.726 0 0 1 43.665 43.396 A 20.305 20.305 0 0 1 45.15 45.501 A 14.29 14.29 0 0 1 47.023 50.56 A 19.292 19.292 0 0 1 47.3 53.901 A 20.557 20.557 0 0 1 46.331 60.36 A 16.751 16.751 0 0 1 40.95 68.151 A 21.791 21.791 0 0 1 32.499 72.378 Q 28.623 73.401 23.9 73.401 Q 16.106 73.401 10.747 71.081 A 19.27 19.27 0 0 1 6.2 68.351 A 16.469 16.469 0 0 1 0.184 57.209 A 23.912 23.912 0 0 1 0 54.201 A 19.697 19.697 0 0 1 0.447 49.909 A 15.079 15.079 0 0 1 2.05 45.701 Q 4.1 42.101 7.5 39.501 Q 10.9 36.901 14.8 35.101 A 34.482 34.482 0 0 1 7.435 29.463 A 31.707 31.707 0 0 1 5.95 27.851 A 14.883 14.883 0 0 1 2.597 20.574 A 20.654 20.654 0 0 1 2.3 17.001 A 17.888 17.888 0 0 1 2.817 12.597 A 13.588 13.588 0 0 1 5.1 7.751 A 17.14 17.14 0 0 1 10.833 2.885 A 21.238 21.238 0 0 1 12.7 2.001 A 25.695 25.695 0 0 1 19.208 0.282 A 33.153 33.153 0 0 1 23.6 0.001 Z M 23.7 39.301 L 22.1 38.701 Q 15.5 41.501 12.05 45.151 A 12.519 12.519 0 0 0 8.645 53.078 A 16.59 16.59 0 0 0 8.6 54.301 A 11.961 11.961 0 0 0 9.554 59.131 A 11.465 11.465 0 0 0 12.3 62.951 A 11.378 11.378 0 0 0 16.303 65.309 Q 18.028 65.923 20.153 66.192 A 28.337 28.337 0 0 0 23.7 66.401 A 24.789 24.789 0 0 0 27.926 66.064 Q 30.249 65.661 32.09 64.778 A 11.663 11.663 0 0 0 34.85 62.951 A 11.333 11.333 0 0 0 38.685 54.68 A 15.184 15.184 0 0 0 38.7 54.001 A 10.727 10.727 0 0 0 35.275 45.957 A 13.77 13.77 0 0 0 34.6 45.351 A 29.18 29.18 0 0 0 30.496 42.495 Q 27.525 40.763 23.7 39.301 Z M 23.5 7.101 A 18.727 18.727 0 0 0 19.501 7.505 Q 16.704 8.116 14.586 9.651 A 11.933 11.933 0 0 0 14.45 9.751 A 8.605 8.605 0 0 0 10.987 15.896 A 12.659 12.659 0 0 0 10.9 17.401 A 12.94 12.94 0 0 0 11.2 20.259 A 9.363 9.363 0 0 0 12.65 23.601 A 13.899 13.899 0 0 0 15.729 26.746 A 17.327 17.327 0 0 0 17.4 27.851 A 62.931 62.931 0 0 0 21.385 29.98 A 76.015 76.015 0 0 0 24 31.201 Q 29.2 29.001 32.75 25.901 A 10.176 10.176 0 0 0 36.17 19.384 A 14.605 14.605 0 0 0 36.3 17.401 A 11.373 11.373 0 0 0 35.868 14.176 A 8.399 8.399 0 0 0 32.8 9.751 A 12.337 12.337 0 0 0 28.469 7.693 Q 26.729 7.23 24.675 7.129 A 23.881 23.881 0 0 0 23.5 7.101 Z" vector-effect="non-scaling-stroke"/></g></svg>