<svg width="48.801" height="72.401" viewBox="0 0 48.801 72.401" xmlns="http://www.w3.org/2000/svg"><g id="svgGroup" stroke-linecap="round" fill-rule="evenodd" font-size="9pt" stroke="#000" stroke-width="0.25mm" fill="#000" style="stroke:#000;stroke-width:0.25mm;fill:#000"><path d="M 18.634 71.903 A 37.581 37.581 0 0 0 24.901 72.4 A 34.218 34.218 0 0 0 29.467 72.105 A 26.807 26.807 0 0 0 37.201 69.9 A 24.246 24.246 0 0 0 38.354 69.329 A 20.07 20.07 0 0 0 45.701 62.85 A 17.359 17.359 0 0 0 47.847 58.51 A 19.649 19.649 0 0 0 48.801 52.3 Q 48.801 45.8 44.901 41.15 A 21.099 21.099 0 0 0 43.377 39.521 Q 39.664 35.94 33.601 33.4 A 29.571 29.571 0 0 0 37.274 31.234 A 22.514 22.514 0 0 0 41.901 27 Q 43.838 24.625 44.565 21.352 A 19.609 19.609 0 0 0 45.001 17.1 Q 45.001 12.3 42.351 8.4 A 16.893 16.893 0 0 0 39.64 5.304 A 19.543 19.543 0 0 0 35.001 2.25 A 22.156 22.156 0 0 0 29.584 0.495 A 29.076 29.076 0 0 0 24.101 0 Q 18.401 0 13.751 2.2 A 21.728 21.728 0 0 0 12.345 2.928 A 17.894 17.894 0 0 0 6.401 8.25 A 14.501 14.501 0 0 0 4.543 11.893 A 16.27 16.27 0 0 0 3.701 17.2 Q 3.701 22.9 6.551 26.75 A 18.362 18.362 0 0 0 6.916 27.227 Q 9.731 30.781 14.701 33.5 Q 10.544 35.305 7.599 37.558 A 20.397 20.397 0 0 0 3.551 41.6 A 17.604 17.604 0 0 0 1.003 46.474 A 20.003 20.003 0 0 0 0.001 52.9 Q 0.001 58.3 3.051 62.75 Q 6.101 67.2 11.701 69.8 A 23.866 23.866 0 0 0 11.799 69.846 Q 14.91 71.273 18.634 71.903 Z M 25.001 64.4 Q 31.401 64.4 35.501 61.05 Q 39.601 57.7 39.601 52.5 A 10.465 10.465 0 0 0 37.309 45.99 A 15.373 15.373 0 0 0 35.351 43.9 A 26.566 26.566 0 0 0 31.186 40.89 Q 29.054 39.624 26.453 38.517 A 53.779 53.779 0 0 0 23.601 37.4 Q 19.801 38.3 16.501 40.2 A 17.587 17.587 0 0 0 12.923 42.888 A 15.239 15.239 0 0 0 11.201 44.9 Q 9.201 47.7 9.201 51.3 Q 9.201 55 11.251 58 A 13.468 13.468 0 0 0 15.814 62.137 A 16.445 16.445 0 0 0 16.901 62.7 A 17.765 17.765 0 0 0 22.541 64.266 A 21.981 21.981 0 0 0 25.001 64.4 Z M 25.401 30.1 Q 29.801 28.6 33.051 25.5 A 10.393 10.393 0 0 0 35.61 21.78 A 10.216 10.216 0 0 0 36.301 18 A 9.822 9.822 0 0 0 35.269 13.477 A 10.071 10.071 0 0 0 32.801 10.4 A 12.366 12.366 0 0 0 26.067 7.515 A 16.449 16.449 0 0 0 24.101 7.4 A 16.109 16.109 0 0 0 20.322 7.821 A 11.621 11.621 0 0 0 15.701 10.05 A 8.4 8.4 0 0 0 12.435 16.144 A 10.592 10.592 0 0 0 12.401 17 A 10.099 10.099 0 0 0 14.482 23.116 A 14.22 14.22 0 0 0 15.951 24.8 A 19.625 19.625 0 0 0 20.688 28.2 Q 22.803 29.304 25.36 30.088 A 33.124 33.124 0 0 0 25.401 30.1 Z" vector-effect="non-scaling-stroke"/></g></svg>