<svg width="48.829" height="71.29" viewBox="0 0 48.829 71.29" xmlns="http://www.w3.org/2000/svg"><g id="svgGroup" stroke-linecap="round" fill-rule="evenodd" font-size="9pt" stroke="#000000" stroke-width="0.5mm" fill="#ffffff" style="stroke:#000000;stroke-width:0.5mm;fill:#ffffff"><path d="M 29.94 0.431 A 37.288 37.288 0 0 0 24.073 0.001 A 34.357 34.357 0 0 0 23.627 0.003 Q 20.298 0.047 17.464 0.738 A 18.69 18.69 0 0 0 9.4 4.835 A 19.578 19.578 0 0 0 8.695 5.486 A 15.063 15.063 0 0 0 3.907 16.7 Q 3.907 18.36 4.322 20.093 Q 4.562 21.095 4.989 22.236 A 27.762 27.762 0 0 0 5.714 23.975 A 10.423 10.423 0 0 0 5.747 24.049 Q 6.726 26.158 8.79 28.15 Q 10.889 30.176 13.868 31.69 A 29.943 29.943 0 0 0 13.673 31.784 A 25.584 25.584 0 0 0 3.809 40.015 A 23.503 23.503 0 0 0 2.588 41.912 A 18.479 18.479 0 0 0 0.001 51.27 A 17.261 17.261 0 0 0 3.321 61.597 A 20.593 20.593 0 0 0 6.269 64.886 A 23.058 23.058 0 0 0 12.281 68.751 A 27.828 27.828 0 0 0 16.1 70.143 A 31.159 31.159 0 0 0 24.659 71.29 Q 30.323 71.29 35.01 69.483 A 25.563 25.563 0 0 0 38.533 67.822 A 19.21 19.21 0 0 0 42.652 64.698 Q 45.606 61.719 47.217 58.008 A 19.06 19.06 0 0 0 48.829 50.342 A 18.398 18.398 0 0 0 45.46 39.625 A 18.2 18.2 0 0 0 44.319 38.149 Q 40.999 34.278 35.108 31.641 A 47.745 47.745 0 0 0 37.661 29.68 Q 40.792 27.093 42.53 24.61 A 13.055 13.055 0 0 0 44.923 16.944 Q 44.923 8.936 39.6 4.468 A 16.376 16.376 0 0 0 35.351 1.919 Q 32.936 0.91 29.94 0.431 Z M 22.95 34.864 A 26.441 26.441 0 0 0 17.607 37.073 A 19.578 19.578 0 0 0 12.354 41.26 A 17.317 17.317 0 0 0 9.929 44.768 A 12.5 12.5 0 0 0 8.497 50.538 A 11.767 11.767 0 0 0 11.948 58.903 A 16.502 16.502 0 0 0 13.087 59.986 A 15.892 15.892 0 0 0 20.41 63.516 A 22.804 22.804 0 0 0 25.049 63.965 A 20.139 20.139 0 0 0 29.806 63.433 A 14.216 14.216 0 0 0 36.085 60.181 A 12.823 12.823 0 0 0 39.159 56.138 A 12.033 12.033 0 0 0 40.284 50.928 A 13.25 13.25 0 0 0 39.754 47.142 A 12.068 12.068 0 0 0 39.258 45.777 A 14.77 14.77 0 0 0 37.935 43.345 A 12.129 12.129 0 0 0 36.671 41.773 A 15.034 15.034 0 0 0 34.776 40.111 A 20.297 20.297 0 0 0 32.715 38.77 A 37.142 37.142 0 0 0 29.772 37.252 A 30.848 30.848 0 0 0 28.052 36.524 A 46.775 46.775 0 0 0 25.642 35.67 A 61.995 61.995 0 0 0 22.95 34.864 Z M 24.073 6.983 Q 19.044 6.983 15.552 9.913 A 11.105 11.105 0 0 0 13.503 12.132 A 8.005 8.005 0 0 0 12.061 16.749 Q 12.061 18.262 12.623 19.654 A 11.929 11.929 0 0 0 13.233 20.948 A 9.1 9.1 0 0 0 13.941 22.046 A 7.351 7.351 0 0 0 14.725 22.918 Q 15.307 23.475 16.09 24.024 Q 17.155 24.772 18.034 25.29 A 17.877 17.877 0 0 0 18.555 25.587 A 16.973 16.973 0 0 0 19.378 26.004 Q 19.81 26.21 20.318 26.429 A 41.245 41.245 0 0 0 21.412 26.88 Q 22.776 27.423 23.64 27.721 A 18.819 18.819 0 0 0 24.122 27.881 A 1040.803 1040.803 0 0 0 24.634 28.043 Q 25.477 28.309 26.758 28.712 A 110.61 110.61 0 0 0 28.007 27.938 Q 29.774 26.826 30.909 26.002 A 31.83 31.83 0 0 0 32.82 24.495 A 38.552 38.552 0 0 0 33.985 23.463 Q 35.437 22.124 36.13 20.701 A 6.841 6.841 0 0 0 36.231 20.484 A 8.023 8.023 0 0 0 36.915 17.188 A 9.861 9.861 0 0 0 36.308 13.658 A 8.687 8.687 0 0 0 33.204 9.693 A 13.888 13.888 0 0 0 27.293 7.248 A 18.845 18.845 0 0 0 24.073 6.983 Z" vector-effect="non-scaling-stroke"/></g></svg>