<svg width="46.78" height="71.094" viewBox="0 0 46.78 71.094" xmlns="http://www.w3.org/2000/svg"><g id="svgGroup" stroke-linecap="round" fill-rule="evenodd" font-size="9pt" stroke="#ffffff" stroke-width="0.25mm" fill="#000" style="stroke:#ffffff;stroke-width:0.25mm;fill:#000"><path d="M 4.738 70.801 L 5.324 63.574 Q 7.521 63.818 10.598 63.818 A 47.422 47.422 0 0 0 14.697 63.648 A 37.657 37.657 0 0 0 17.629 63.281 A 39.095 39.095 0 0 0 20.294 62.746 Q 21.909 62.36 23.268 61.865 A 18.232 18.232 0 0 0 27.477 59.702 A 17.109 17.109 0 0 0 27.663 59.57 A 28.582 28.582 0 0 0 29.462 58.176 A 20.791 20.791 0 0 0 31.008 56.738 A 14.102 14.102 0 0 0 32.602 54.739 A 17.601 17.601 0 0 0 33.449 53.32 A 43.268 43.268 0 0 0 34.305 51.643 Q 34.801 50.613 35.158 49.707 A 19.84 19.84 0 0 0 35.686 48.176 Q 35.926 47.379 36.141 46.469 A 35.995 35.995 0 0 0 36.281 45.85 Q 36.769 43.604 36.989 42.09 A 80.242 80.242 0 0 0 37.157 40.858 Q 37.229 40.305 37.303 39.685 A 164.43 164.43 0 0 0 37.453 38.379 A 19.061 19.061 0 0 1 30.275 43.189 A 23.605 23.605 0 0 1 21.779 44.775 A 23.511 23.511 0 0 1 13.624 43.406 A 20.903 20.903 0 0 1 6.252 38.745 A 20.138 20.138 0 0 1 0.008 24.106 A 26.539 26.539 0 0 1 0.002 23.535 A 22.574 22.574 0 0 1 6.744 7.151 A 27.978 27.978 0 0 1 6.96 6.934 A 23.368 23.368 0 0 1 23.852 0.002 A 30.101 30.101 0 0 1 24.172 0 A 26.157 26.157 0 0 1 28.273 0.317 A 19.681 19.681 0 0 1 30.483 0.806 A 26.169 26.169 0 0 1 32.57 1.489 Q 34.865 2.344 36.843 3.735 A 17.14 17.14 0 0 1 38.916 5.469 A 23.372 23.372 0 0 1 40.7 7.422 A 21.855 21.855 0 0 1 43.204 11.263 A 25.692 25.692 0 0 1 43.898 12.72 A 25.663 25.663 0 0 1 44.949 15.6 Q 45.405 17.106 45.766 18.846 A 47.666 47.666 0 0 1 45.998 20.044 A 48.002 48.002 0 0 1 46.63 25.191 A 62.351 62.351 0 0 1 46.779 29.59 A 76.411 76.411 0 0 1 46.339 37.998 Q 45.872 42.215 44.908 45.898 A 46.634 46.634 0 0 1 44.777 46.387 Q 43.152 52.334 40.673 56.479 A 26.023 26.023 0 0 1 39.479 58.301 A 28.142 28.142 0 0 1 31.447 65.845 A 32.696 32.696 0 0 1 24.178 69.26 A 29.484 29.484 0 0 1 21.682 69.946 A 45.791 45.791 0 0 1 14.723 70.958 A 55.684 55.684 0 0 1 10.793 71.094 Q 7.766 71.094 4.738 70.801 Z M 23.098 6.836 A 13.455 13.455 0 0 0 14.292 10.122 A 18.828 18.828 0 0 0 12.6 11.719 Q 8.01 16.602 8.01 22.754 A 14.242 14.242 0 0 0 12.368 33.199 A 17.907 17.907 0 0 0 12.673 33.496 A 15.315 15.315 0 0 0 23.586 37.939 Q 29.787 37.939 34.206 33.643 A 14.506 14.506 0 0 0 37.654 28.595 A 14.081 14.081 0 0 0 38.625 23.34 A 15.646 15.646 0 0 0 37.175 16.83 A 18.966 18.966 0 0 0 36.55 15.576 A 17.74 17.74 0 0 0 30.837 9.302 A 14.249 14.249 0 0 0 26.262 7.22 A 13.083 13.083 0 0 0 23.098 6.836 Z" vector-effect="non-scaling-stroke"/></g></svg>