<svg width="47" height="73.402" viewBox="0 0 47 73.402" xmlns="http://www.w3.org/2000/svg"><g id="svgGroup" stroke-linecap="round" fill-rule="evenodd" font-size="9pt" stroke="#1d6bd9" stroke-width="0.25mm" fill="#3388ff" style="stroke:#1d6bd9;stroke-width:0.25mm;fill:#3388ff"><path d="M 5.2 72.402 L 5.2 64.902 A 24.834 24.834 0 0 0 10.044 65.97 A 32.553 32.553 0 0 0 14 66.202 A 35.063 35.063 0 0 0 18.858 65.885 Q 22.689 65.348 25.55 63.902 A 19.476 19.476 0 0 0 31.135 59.743 A 18.275 18.275 0 0 0 32.8 57.652 A 25.321 25.321 0 0 0 35.907 51.302 A 30.862 30.862 0 0 0 36.7 48.452 A 57.528 57.528 0 0 0 38.014 39.201 A 64.8 64.8 0 0 0 38.1 37.402 L 37.5 37.402 A 16.885 16.885 0 0 1 34.042 41.237 A 22.397 22.397 0 0 1 31.15 43.252 A 16.355 16.355 0 0 1 26.743 45.01 Q 23.954 45.702 20.5 45.702 A 24.376 24.376 0 0 1 13.855 44.84 A 18.527 18.527 0 0 1 5.65 40.052 A 18.405 18.405 0 0 1 0.933 31.703 Q 0 28.286 0 24.102 A 33.086 33.086 0 0 1 0.546 17.941 A 23.866 23.866 0 0 1 2.85 11.202 Q 5.7 5.802 10.8 2.902 Q 15.9 0.002 22.8 0.002 Q 29.6 0.002 35.1 3.452 A 21.51 21.51 0 0 1 41.453 9.668 A 28.784 28.784 0 0 1 43.8 13.852 A 31.71 31.71 0 0 1 45.96 20.517 Q 46.643 23.721 46.877 27.45 A 64.518 64.518 0 0 1 47 31.502 Q 47 39.202 45.65 46.652 Q 44.3 54.102 40.75 60.152 A 26.011 26.011 0 0 1 30.851 69.745 A 30.63 30.63 0 0 1 30.75 69.802 A 26.199 26.199 0 0 1 24.029 72.356 Q 19.645 73.402 14.2 73.402 A 38.214 38.214 0 0 1 12.609 73.367 Q 11.645 73.326 10.561 73.24 A 69.997 69.997 0 0 1 9.55 73.152 A 34.857 34.857 0 0 1 7.841 72.95 Q 6.316 72.73 5.2 72.402 Z M 22.8 7.402 A 15.29 15.29 0 0 0 17.847 8.172 A 12.908 12.908 0 0 0 12.65 11.502 A 12.701 12.701 0 0 0 9.848 16.195 Q 8.7 19.474 8.7 24.002 A 22.935 22.935 0 0 0 9.092 28.374 Q 9.845 32.252 12.05 34.852 Q 15.041 38.377 20.939 38.756 A 22.818 22.818 0 0 0 22.4 38.802 Q 27.2 38.802 30.7 36.852 A 16.437 16.437 0 0 0 34.137 34.336 A 13.906 13.906 0 0 0 36.15 31.902 A 12.401 12.401 0 0 0 37.643 28.755 A 10.43 10.43 0 0 0 38.1 25.702 A 22.474 22.474 0 0 0 36.414 17.234 A 25.347 25.347 0 0 0 36.4 17.202 Q 34.7 13.002 31.3 10.202 A 12.14 12.14 0 0 0 25.317 7.588 A 16.437 16.437 0 0 0 22.8 7.402 Z" vector-effect="non-scaling-stroke"/></g></svg>