<svg width="45.001" height="72.402" viewBox="0 0 45.001 72.402" xmlns="http://www.w3.org/2000/svg"><g id="svgGroup" stroke-linecap="round" fill-rule="evenodd" font-size="9pt" stroke="#000" stroke-width="0.25mm" fill="#000" style="stroke:#000;stroke-width:0.25mm;fill:#000"><path d="M 1.101 64.6 L 7.001 57.9 A 22.787 22.787 0 0 0 11.685 61.732 A 16.566 16.566 0 0 0 20.401 64.2 Q 24.501 64.2 28.001 61.45 A 14.208 14.208 0 0 0 30.85 58.376 Q 31.905 56.865 32.782 54.936 A 29.986 29.986 0 0 0 33.651 52.8 A 31.001 31.001 0 0 0 34.961 47.897 Q 35.801 43.413 35.801 37.6 Q 32.701 40.4 28.901 42.3 Q 25.101 44.2 20.701 44.2 Q 15.401 44.2 10.651 41.75 Q 5.901 39.3 2.951 34.55 Q 0.081 29.93 0.003 23.181 A 32.787 32.787 0 0 1 0.001 22.8 A 24.091 24.091 0 0 1 1.571 14.055 A 22.792 22.792 0 0 1 2.851 11.3 Q 5.701 6.1 10.801 3.05 A 21.482 21.482 0 0 1 19.351 0.191 A 27.036 27.036 0 0 1 22.601 0 A 28.398 28.398 0 0 1 26.578 0.264 Q 28.75 0.572 30.586 1.238 A 16.303 16.303 0 0 1 31.501 1.6 Q 35.201 3.2 37.701 5.8 A 22.776 22.776 0 0 1 41.313 10.801 A 26.029 26.029 0 0 1 41.751 11.65 Q 43.401 15 44.201 20.45 A 63.367 63.367 0 0 1 44.656 24.581 Q 45.001 28.891 45.001 34.6 Q 45.001 47.9 41.701 56.25 A 34.561 34.561 0 0 1 38.912 61.861 Q 36.293 66.055 32.751 68.5 Q 27.101 72.4 19.901 72.4 A 28.172 28.172 0 0 1 14.077 71.822 A 22.735 22.735 0 0 1 9.501 70.35 Q 4.901 68.3 1.101 64.6 Z M 35.801 30.3 L 35.801 27.3 A 39.751 39.751 0 0 0 35.479 22.065 Q 35.122 19.384 34.368 17.203 A 15.762 15.762 0 0 0 32.151 12.9 A 12.066 12.066 0 0 0 28.017 9.303 Q 25.665 8.087 22.722 8.006 A 15.366 15.366 0 0 0 22.301 8 Q 16.601 8 12.651 11.95 A 13.262 13.262 0 0 0 8.925 19.447 A 18.712 18.712 0 0 0 8.701 22.4 A 17.953 17.953 0 0 0 9.064 26.098 A 13.451 13.451 0 0 0 10.601 30.15 Q 12.501 33.4 15.551 35.1 Q 18.601 36.8 22.201 36.8 A 15.326 15.326 0 0 0 29.322 35.021 A 17.939 17.939 0 0 0 29.551 34.9 A 26.394 26.394 0 0 0 35.716 30.384 A 25.001 25.001 0 0 0 35.801 30.3 Z" vector-effect="non-scaling-stroke"/></g></svg>