<svg width="63.8" height="71.7" viewBox="0 0 63.8 71.7" xmlns="http://www.w3.org/2000/svg"><g id="svgGroup" stroke-linecap="round" fill-rule="evenodd" font-size="9pt" stroke="#1d6bd9" stroke-width="0.25mm" fill="#3388ff" style="stroke:#1d6bd9;stroke-width:0.25mm;fill:#3388ff"><path d="M 63.8 71.7 L 54.5 71.7 L 45.9 49.6 L 17.6 49.6 L 9.1 71.7 L 0 71.7 L 27.9 0 L 36 0 L 63.8 71.7 Z M 43.2 41.6 L 35.2 20 Q 34.9 19.2 34.2 17.1 A 112.177 112.177 0 0 1 32.891 12.89 A 122.093 122.093 0 0 1 32.85 12.75 Q 32.352 11.027 32.001 9.92 A 44.761 44.761 0 0 0 31.8 9.3 Q 31.1 12.4 30.2 15.35 Q 29.511 17.609 28.998 19.134 A 61.955 61.955 0 0 1 28.7 20 L 20.6 41.6 L 43.2 41.6 Z" vector-effect="non-scaling-stroke"/></g></svg>