<svg width="49.502" height="71.601" viewBox="0 0 49.502 71.601" xmlns="http://www.w3.org/2000/svg"><g id="svgGroup" stroke-linecap="round" fill-rule="evenodd" font-size="9pt" stroke="#000" stroke-width="0.25mm" fill="#000" style="stroke:#000;stroke-width:0.25mm;fill:#000"><path d="M 0 70.601 L 0 1.001 A 100.907 100.907 0 0 1 1.856 0.807 Q 4.753 0.53 8.576 0.308 A 270.552 270.552 0 0 1 8.7 0.301 A 168.416 168.416 0 0 1 13.537 0.096 Q 16.008 0.024 18.745 0.007 A 285.352 285.352 0 0 1 20.6 0.001 Q 29 0.001 34.859 2.089 A 22.604 22.604 0 0 1 40.3 4.851 A 16.711 16.711 0 0 1 44.863 9.508 Q 47.054 12.941 47.191 17.401 A 19.526 19.526 0 0 1 47.2 18.001 A 17.052 17.052 0 0 1 46.573 22.72 A 13.798 13.798 0 0 1 44.25 27.351 Q 41.3 31.201 35.7 33.701 A 30.217 30.217 0 0 1 40.336 35.761 Q 43.813 37.694 46 40.351 Q 49.5 44.601 49.5 50.801 Q 49.5 60.115 42.29 65.729 A 22.979 22.979 0 0 1 42 65.951 A 24.681 24.681 0 0 1 34.623 69.661 Q 28.579 71.601 20.2 71.601 A 221.836 221.836 0 0 1 12.12 71.459 A 187.566 187.566 0 0 1 8.65 71.301 A 227.449 227.449 0 0 1 6.066 71.144 Q 3.259 70.958 1.195 70.738 A 65.535 65.535 0 0 1 0 70.601 Z M 20.9 38.401 L 9.5 38.401 L 9.5 63.101 Q 14.8 63.701 20.9 63.701 Q 29.8 63.701 34.8 60.501 Q 39.8 57.301 39.8 51.201 A 11.728 11.728 0 0 0 38.928 46.601 Q 37.826 43.988 35.333 42.113 A 14.027 14.027 0 0 0 34.9 41.801 A 16.7 16.7 0 0 0 30.226 39.599 Q 26.303 38.401 20.9 38.401 Z M 9.5 8.201 L 9.5 31.001 L 20.5 31.001 Q 28.4 31.001 33.05 27.701 Q 37.7 24.401 37.7 19.201 A 10.798 10.798 0 0 0 37.026 15.301 Q 35.939 12.471 33.1 10.651 A 16.643 16.643 0 0 0 28.614 8.687 Q 25.125 7.701 20.5 7.701 Q 17.2 7.701 14.5 7.851 Q 11.8 8.001 9.5 8.201 Z" vector-effect="non-scaling-stroke"/></g></svg>