<svg width="49.901" height="71.4" viewBox="0 0 49.901 71.4" xmlns="http://www.w3.org/2000/svg"><g id="svgGroup" stroke-linecap="round" fill-rule="evenodd" font-size="9pt" stroke="#1d6bd9" stroke-width="0.25mm" fill="#3388ff" style="stroke:#1d6bd9;stroke-width:0.25mm;fill:#3388ff"><path d="M 0 0 L 20.4 0 A 73.593 73.593 0 0 1 27.419 0.313 Q 34.838 1.026 39.558 3.367 A 19.741 19.741 0 0 1 40.65 3.95 A 13.076 13.076 0 0 1 47.015 12.899 A 22.246 22.246 0 0 1 47.5 17.7 Q 47.5 24 44 28.15 A 14.647 14.647 0 0 1 38.414 32.186 A 21.29 21.29 0 0 1 33.9 33.5 L 33.9 34 A 27.723 27.723 0 0 1 39.44 35.436 A 23.982 23.982 0 0 1 42.05 36.6 Q 45.7 38.5 47.8 42 A 13.597 13.597 0 0 1 49.299 45.708 Q 49.9 48.104 49.9 51.1 A 22.61 22.61 0 0 1 49.041 57.504 A 16.825 16.825 0 0 1 43.25 66.1 Q 37.469 70.707 28.024 71.31 A 45.96 45.96 0 0 1 25.1 71.4 L 0 71.4 L 0 0 Z M 22.7 37.9 L 9 37.9 L 9 63.8 L 23.4 63.8 A 38.576 38.576 0 0 0 27.788 63.569 Q 33.825 62.875 36.6 60.1 A 12.448 12.448 0 0 0 40.135 52.829 A 17.327 17.327 0 0 0 40.3 50.4 A 13.202 13.202 0 0 0 39.616 46.063 A 11.136 11.136 0 0 0 36.45 41.35 A 10.541 10.541 0 0 0 33.272 39.458 Q 29.352 37.9 22.7 37.9 Z M 9 30.4 L 22.2 30.4 Q 29.416 30.4 33.064 28.585 A 8.22 8.22 0 0 0 34.8 27.45 A 9.422 9.422 0 0 0 37.717 22.668 Q 38.14 21.109 38.192 19.241 A 19.115 19.115 0 0 0 38.2 18.7 A 13.163 13.163 0 0 0 37.834 15.493 A 8.266 8.266 0 0 0 34.05 10.25 A 13.491 13.491 0 0 0 30.884 8.878 Q 27.689 7.913 22.96 7.739 A 58.672 58.672 0 0 0 20.8 7.7 L 9 7.7 L 9 30.4 Z" vector-effect="non-scaling-stroke"/></g></svg>