<svg width="49.268" height="69.385" viewBox="0 0 49.268 69.385" xmlns="http://www.w3.org/2000/svg"><g id="svgGroup" stroke-linecap="round" fill-rule="evenodd" font-size="9pt" stroke="#ffffff" stroke-width="0.25mm" fill="#000" style="stroke:#ffffff;stroke-width:0.25mm;fill:#000"><path d="M 0 69.385 L 0 0 L 24.463 0 A 29.169 29.169 0 0 1 28.255 0.236 A 23.068 23.068 0 0 1 30.981 0.757 Q 33.33 1.359 35.03 2.222 A 12.578 12.578 0 0 1 35.864 2.686 Q 37.793 3.858 39.282 5.469 Q 40.771 7.08 41.553 8.594 A 17.47 17.47 0 0 1 42.822 11.817 Q 43.3 13.488 43.427 14.575 A 8.411 8.411 0 0 1 43.433 14.624 A 20.196 20.196 0 0 1 43.538 15.95 A 16.763 16.763 0 0 1 43.555 16.699 A 13.493 13.493 0 0 1 42.372 22.132 A 18.6 18.6 0 0 1 40.674 25.171 Q 38.752 27.988 36.679 29.469 A 9.301 9.301 0 0 1 34.57 30.615 Q 41.016 31.787 45.142 36.841 Q 49.268 41.895 49.268 48.34 A 19.024 19.024 0 0 1 49.129 50.592 A 22.333 22.333 0 0 1 48.999 51.514 Q 48.73 53.174 47.949 55.274 A 20.916 20.916 0 0 1 45.947 59.277 A 15.896 15.896 0 0 1 44.507 61.176 Q 43.677 62.122 42.627 63.062 A 21.717 21.717 0 0 1 38.526 65.937 A 24.646 24.646 0 0 1 37.817 66.309 Q 35.107 67.676 31.177 68.53 Q 27.246 69.385 22.559 69.385 L 0 69.385 Z M 8.301 36.084 L 8.301 62.061 L 21.24 62.061 Q 22.998 62.061 24.194 62.036 Q 25.391 62.012 27.637 61.743 Q 29.883 61.475 31.47 61.011 A 18.075 18.075 0 0 0 32.928 60.512 Q 33.665 60.226 34.468 59.853 A 32.161 32.161 0 0 0 35.01 59.595 Q 36.963 58.643 38.159 57.324 A 9.471 9.471 0 0 0 39.295 55.764 Q 39.783 54.936 40.186 53.931 A 11.438 11.438 0 0 0 40.889 51.193 A 14.848 14.848 0 0 0 41.016 49.219 A 13.414 13.414 0 0 0 40.217 44.493 A 11.725 11.725 0 0 0 35.986 39.063 A 17.714 17.714 0 0 0 30.301 36.374 Q 26.842 35.401 22.461 35.401 A 14.628 14.628 0 0 0 22.037 35.411 Q 19.879 35.486 8.301 36.084 Z M 21.68 6.348 L 8.301 6.348 L 8.301 29.639 Q 9.155 29.594 11.169 29.57 A 251.68 251.68 0 0 1 11.523 29.566 A 812.121 812.121 0 0 0 12.607 29.553 Q 13.658 29.541 14.436 29.528 A 214.117 214.117 0 0 0 15.088 29.517 A 33.911 33.911 0 0 0 15.787 29.495 Q 16.574 29.464 17.633 29.393 A 128.694 128.694 0 0 0 18.652 29.321 A 78.707 78.707 0 0 0 19.743 29.233 Q 21.295 29.096 22.339 28.931 A 33.555 33.555 0 0 0 23.465 28.732 Q 23.969 28.634 24.529 28.513 A 68.467 68.467 0 0 0 25.708 28.247 A 22.029 22.029 0 0 0 27.062 27.887 Q 27.67 27.703 28.185 27.5 A 10.092 10.092 0 0 0 28.931 27.173 A 18.451 18.451 0 0 0 30.212 26.477 A 24.75 24.75 0 0 0 31.567 25.61 A 9.212 9.212 0 0 0 32.789 24.62 A 6.988 6.988 0 0 0 33.74 23.486 Q 34.521 22.315 35.034 20.679 A 11.203 11.203 0 0 0 35.492 18.338 A 13.767 13.767 0 0 0 35.547 17.09 A 13.147 13.147 0 0 0 35.368 14.891 A 11.715 11.715 0 0 0 35.254 14.307 A 7.558 7.558 0 0 0 34.844 13.039 Q 34.53 12.285 34.033 11.475 Q 33.105 9.961 31.641 8.887 Q 30.176 7.813 27.612 7.08 Q 25.21 6.394 22.101 6.351 A 30.302 30.302 0 0 0 21.68 6.348 Z" vector-effect="non-scaling-stroke"/></g></svg>