<svg width="54.493" height="70.85" viewBox="0 0 54.493 70.85" xmlns="http://www.w3.org/2000/svg"><g id="svgGroup" stroke-linecap="round" fill-rule="evenodd" font-size="9pt" stroke="#ffffff" stroke-width="0.25mm" fill="#000" style="stroke:#ffffff;stroke-width:0.25mm;fill:#000"><path d="M 53.565 3.711 L 51.026 10.596 Q 43.775 8.092 37.926 7.504 A 34.583 34.583 0 0 0 34.473 7.324 A 25.931 25.931 0 0 0 25.516 8.855 A 24.527 24.527 0 0 0 23.609 9.644 A 24.831 24.831 0 0 0 17.535 13.571 A 22.435 22.435 0 0 0 15.308 15.845 A 29.378 29.378 0 0 0 10.157 24.732 A 29.887 29.887 0 0 0 8.302 35.205 A 29.531 29.531 0 0 0 10.279 45.972 Q 12.257 51.074 15.821 54.907 A 24.768 24.768 0 0 0 22.738 60.078 A 29.575 29.575 0 0 0 24.683 60.986 A 28.614 28.614 0 0 0 33.953 63.154 A 33.839 33.839 0 0 0 36.28 63.232 A 43.007 43.007 0 0 0 46.423 61.971 A 53.895 53.895 0 0 0 51.954 60.303 L 54.493 66.455 A 53.797 53.797 0 0 1 41.299 70.307 A 47.207 47.207 0 0 1 34.18 70.85 A 38.332 38.332 0 0 1 25.333 69.854 A 34.353 34.353 0 0 1 22.462 69.043 A 32.216 32.216 0 0 1 15.883 66.051 A 27.978 27.978 0 0 1 12.916 63.989 Q 8.839 60.742 5.909 56.299 A 34.452 34.452 0 0 1 1.49 46.509 A 41.479 41.479 0 0 1 0.007 36.036 A 46.442 46.442 0 0 1 0.001 35.254 A 41.262 41.262 0 0 1 1.322 24.642 A 35.21 35.21 0 0 1 4.176 17.285 A 31.205 31.205 0 0 1 16.309 4.663 A 33.989 33.989 0 0 1 29.629 0.294 A 42.996 42.996 0 0 1 34.718 0 A 50.511 50.511 0 0 1 52.393 3.262 A 57.643 57.643 0 0 1 53.565 3.711 Z" vector-effect="non-scaling-stroke"/></g></svg>