<svg width="54.001" height="73.401" viewBox="0 0 54.001 73.401" xmlns="http://www.w3.org/2000/svg"><g id="svgGroup" stroke-linecap="round" fill-rule="evenodd" font-size="9pt" stroke="#1d6bd9" stroke-width="0.25mm" fill="#3388ff" style="stroke:#1d6bd9;stroke-width:0.25mm;fill:#3388ff"><path d="M 51.201 62.701 L 51.201 70.501 Q 47.201 72.001 42.951 72.701 A 47.684 47.684 0 0 1 39.225 73.154 Q 37.217 73.324 34.933 73.377 A 91.919 91.919 0 0 1 32.801 73.401 A 43.764 43.764 0 0 1 24.834 72.714 Q 20.043 71.827 16.169 69.794 A 26.102 26.102 0 0 1 14.601 68.901 A 27.62 27.62 0 0 1 3.824 56.488 A 33.498 33.498 0 0 1 3.651 56.101 A 41.708 41.708 0 0 1 0.75 46.155 Q 0.002 41.684 0.001 36.621 A 70.154 70.154 0 0 1 0.001 36.601 A 50.241 50.241 0 0 1 0.927 26.736 A 38.801 38.801 0 0 1 3.951 17.551 Q 7.901 9.301 15.601 4.651 A 31.425 31.425 0 0 1 25.908 0.768 A 43.706 43.706 0 0 1 34.301 0.001 A 51.284 51.284 0 0 1 44.179 0.908 A 38.359 38.359 0 0 1 54.001 4.201 L 50.401 11.801 A 51.67 51.67 0 0 0 46.217 10.125 A 65.004 65.004 0 0 0 43.051 9.101 Q 39.001 7.901 34.201 7.901 A 27.624 27.624 0 0 0 26.265 8.984 A 21.076 21.076 0 0 0 16.101 15.601 A 25.917 25.917 0 0 0 10.867 25.685 Q 9.8 29.527 9.566 34.089 A 51.079 51.079 0 0 0 9.501 36.701 Q 9.501 46.864 13.092 53.786 A 24.53 24.53 0 0 0 15.651 57.751 A 19.738 19.738 0 0 0 26.993 64.739 A 31.154 31.154 0 0 0 34.101 65.501 A 49.467 49.467 0 0 0 40.599 65.087 A 43.049 43.049 0 0 0 43.001 64.701 Q 47.201 63.901 51.201 62.701 Z" vector-effect="non-scaling-stroke"/></g></svg>