<svg width="57.201" height="71.401" viewBox="0 0 57.201 71.401" xmlns="http://www.w3.org/2000/svg"><g id="svgGroup" stroke-linecap="round" fill-rule="evenodd" font-size="9pt" stroke="#1d6bd9" stroke-width="0.25mm" fill="#3388ff" style="stroke:#1d6bd9;stroke-width:0.25mm;fill:#3388ff"><path d="M 19.9 71.401 L 0 71.401 L 0 0.001 L 22 0.001 A 49.241 49.241 0 0 1 30.895 0.766 A 35.955 35.955 0 0 1 40.7 4.001 Q 48.6 8.001 52.9 15.751 Q 57.2 23.501 57.2 35.001 A 52.986 52.986 0 0 1 56.238 45.439 Q 54.122 55.96 47.35 62.251 A 32.45 32.45 0 0 1 33.817 69.649 Q 28.778 71.069 22.764 71.338 A 64.117 64.117 0 0 1 19.9 71.401 Z M 20.7 7.701 L 9 7.701 L 9 63.701 L 18.7 63.701 A 42.82 42.82 0 0 0 30 62.342 Q 47.7 57.488 47.7 35.301 Q 47.7 21.001 40.65 14.351 Q 33.6 7.701 20.7 7.701 Z" vector-effect="non-scaling-stroke"/></g></svg>