<svg width="56.445" height="69.385" viewBox="0 0 56.445 69.385" xmlns="http://www.w3.org/2000/svg"><g id="svgGroup" stroke-linecap="round" fill-rule="evenodd" font-size="9pt" stroke="#ffffff" stroke-width="0.25mm" fill="#000" style="stroke:#ffffff;stroke-width:0.25mm;fill:#000"><path d="M 0 0 L 21.484 0 A 58.615 58.615 0 0 1 28.299 0.379 A 45.286 45.286 0 0 1 33.74 1.343 A 36.569 36.569 0 0 1 38.227 2.728 Q 40.892 3.754 42.993 5.127 A 32.065 32.065 0 0 1 47.82 8.965 A 28.294 28.294 0 0 1 49.414 10.645 A 23.373 23.373 0 0 1 53.589 17.505 A 42.136 42.136 0 0 1 55.37 23.113 A 37.09 37.09 0 0 1 55.762 24.951 A 41.2 41.2 0 0 1 56.443 32.075 A 45.449 45.449 0 0 1 56.445 32.569 A 55 55 0 0 1 55.922 40.254 A 50.125 50.125 0 0 1 55.762 41.309 A 41.297 41.297 0 0 1 54.083 47.959 A 47.674 47.674 0 0 1 53.394 49.854 A 32.619 32.619 0 0 1 50.195 56.093 A 29.468 29.468 0 0 1 49.097 57.642 A 25.434 25.434 0 0 1 45.062 61.819 A 31.872 31.872 0 0 1 42.334 63.843 A 29.26 29.26 0 0 1 34.848 67.375 A 34.102 34.102 0 0 1 32.91 67.92 A 38.005 38.005 0 0 1 29.826 68.55 A 50.06 50.06 0 0 1 26.807 68.946 A 115.609 115.609 0 0 1 25.195 69.098 Q 23.041 69.286 21.462 69.331 A 37.664 37.664 0 0 1 21.24 69.336 A 145.3 145.3 0 0 1 20.029 69.358 Q 18.663 69.376 16.817 69.382 A 557.496 557.496 0 0 1 15.039 69.385 L 0 69.385 L 0 0 Z M 21.777 7.324 L 8.301 7.324 L 8.301 62.061 L 18.408 62.061 Q 20.605 62.061 22.046 62.012 A 35.507 35.507 0 0 0 23.046 61.962 Q 24.087 61.897 25.485 61.764 A 123.706 123.706 0 0 0 25.952 61.719 Q 28.006 61.516 29.586 61.143 A 17.779 17.779 0 0 0 30.2 60.987 Q 31.732 60.567 33.624 59.823 A 51.339 51.339 0 0 0 34.253 59.571 A 19.135 19.135 0 0 0 37.012 58.185 A 16.286 16.286 0 0 0 38.281 57.324 Q 40.025 56.016 41.769 53.987 A 30.472 30.472 0 0 0 41.797 53.955 A 23.103 23.103 0 0 0 44.534 49.96 A 26.082 26.082 0 0 0 44.873 49.317 Q 47.905 43.482 48.084 35.269 A 47.72 47.72 0 0 0 48.096 34.229 A 36.633 36.633 0 0 0 47.593 28.029 A 28.951 28.951 0 0 0 46.313 23.12 A 27.07 27.07 0 0 0 44.458 19.01 A 19.622 19.622 0 0 0 41.577 15.064 Q 38.623 11.963 35.278 10.156 Q 31.934 8.35 28.271 7.715 A 17.918 17.918 0 0 0 26.889 7.526 Q 25.367 7.372 23.179 7.336 A 84.824 84.824 0 0 0 21.777 7.324 Z" vector-effect="non-scaling-stroke"/></g></svg>