<svg width="59.301" height="73.401" viewBox="0 0 59.301 73.401" xmlns="http://www.w3.org/2000/svg"><g id="svgGroup" stroke-linecap="round" fill-rule="evenodd" font-size="9pt" stroke="#1d6bd9" stroke-width="0.25mm" fill="#3388ff" style="stroke:#1d6bd9;stroke-width:0.25mm;fill:#3388ff"><path d="M 34.601 42.7 L 34.601 34.7 L 59.301 34.7 L 59.301 69.7 Q 53.501 71.6 47.601 72.5 A 74.922 74.922 0 0 1 41.51 73.161 Q 38.498 73.37 35.161 73.396 A 122.441 122.441 0 0 1 34.201 73.4 Q 23.925 73.4 16.648 69.586 A 27.956 27.956 0 0 1 15.501 68.95 Q 7.901 64.5 3.951 56.25 A 38.978 38.978 0 0 1 0.784 46.159 Q 0.001 41.732 0.001 36.7 A 47.976 47.976 0 0 1 0.904 27.166 A 35.751 35.751 0 0 1 4.401 17.3 Q 8.801 9.1 17.051 4.55 A 35.371 35.371 0 0 1 27.424 0.871 Q 31.743 0.027 36.681 0.001 A 59.815 59.815 0 0 1 37.001 0 A 58.569 58.569 0 0 1 45.29 0.568 A 51.059 51.059 0 0 1 48.351 1.1 A 51.922 51.922 0 0 1 55.954 3.256 A 45.923 45.923 0 0 1 58.301 4.2 L 54.901 12 A 47.033 47.033 0 0 0 50.325 10.246 A 60.102 60.102 0 0 0 46.351 9.1 Q 41.601 7.9 36.501 7.9 A 34.146 34.146 0 0 0 28.199 8.852 A 23.19 23.19 0 0 0 16.551 15.6 A 25.676 25.676 0 0 0 10.536 26.927 Q 9.543 30.807 9.418 35.38 A 48.661 48.661 0 0 0 9.401 36.7 Q 9.401 45.2 12.151 51.75 Q 14.901 58.3 20.801 61.95 Q 25.707 64.985 33.171 65.497 A 45.815 45.815 0 0 0 36.301 65.6 A 74.362 74.362 0 0 0 39.629 65.53 Q 41.26 65.457 42.677 65.307 A 36.229 36.229 0 0 0 44.301 65.1 Q 47.601 64.6 50.301 63.9 L 50.301 42.7 L 34.601 42.7 Z" vector-effect="non-scaling-stroke"/></g></svg>