<svg width="59.863" height="70.899" viewBox="0 0 59.863 70.899" xmlns="http://www.w3.org/2000/svg"><g id="svgGroup" stroke-linecap="round" fill-rule="evenodd" font-size="9pt" stroke="#ffffff" stroke-width="0.25mm" fill="#000" style="stroke:#ffffff;stroke-width:0.25mm;fill:#000"><path d="M 56.69 5.908 L 53.418 12.109 Q 49.707 10.156 44.775 8.74 A 35.928 35.928 0 0 0 34.815 7.324 A 26.386 26.386 0 0 0 24.927 9.229 A 27.195 27.195 0 0 0 16.455 14.575 Q 12.744 18.018 10.523 23.267 A 28.401 28.401 0 0 0 8.379 32.457 A 33.67 33.67 0 0 0 8.301 34.766 A 31.986 31.986 0 0 0 9.592 43.98 A 28.21 28.21 0 0 0 11.963 49.609 A 26.168 26.168 0 0 0 22.07 59.863 A 28.284 28.284 0 0 0 34.996 63.493 A 33.706 33.706 0 0 0 36.475 63.525 A 25.552 25.552 0 0 0 43.489 62.608 A 19.57 19.57 0 0 0 51.807 57.861 L 51.807 40.137 L 32.08 40.137 L 32.08 33.301 L 59.863 33.301 L 59.863 60.547 A 23.78 23.78 0 0 1 57.854 62.582 A 28.07 28.07 0 0 1 56.812 63.477 A 24.962 24.962 0 0 1 55.595 64.404 Q 54.157 65.438 52.114 66.666 A 79.358 79.358 0 0 1 51.978 66.748 Q 49.186 68.419 45.226 69.515 A 40.595 40.595 0 0 1 44.336 69.751 Q 39.795 70.898 34.522 70.898 A 40.468 40.468 0 0 1 26.308 70.093 A 34.339 34.339 0 0 1 21.753 68.823 A 33.835 33.835 0 0 1 16.236 66.313 A 26.373 26.373 0 0 1 11.963 63.281 A 33.118 33.118 0 0 1 5.274 55.2 Q 2.539 50.586 1.27 45.557 A 41.734 41.734 0 0 1 0 35.303 A 40.542 40.542 0 0 1 1.392 24.683 A 34.359 34.359 0 0 1 5.664 15.039 Q 8.545 10.547 12.573 7.202 A 28.603 28.603 0 0 1 18.862 3.272 A 35.123 35.123 0 0 1 22.217 1.929 A 35.981 35.981 0 0 1 31.557 0.092 A 42.437 42.437 0 0 1 34.375 0 A 45.158 45.158 0 0 1 56.69 5.908 Z" vector-effect="non-scaling-stroke"/></g></svg>