<svg width="35.001" height="71.2" viewBox="0 0 35.001 71.2" xmlns="http://www.w3.org/2000/svg"><g id="svgGroup" stroke-linecap="round" fill-rule="evenodd" font-size="9pt" stroke="#000" stroke-width="0.25mm" fill="#000" style="stroke:#000;stroke-width:0.25mm;fill:#000"><path d="M 0 65.4 L 4.6 58.1 A 16.858 16.858 0 0 0 8.67 61.216 A 19.43 19.43 0 0 0 9.4 61.6 A 13.114 13.114 0 0 0 13.275 62.86 A 11.941 11.941 0 0 0 15.1 63 A 10.741 10.741 0 0 0 18.607 62.452 A 8.936 8.936 0 0 0 22.7 59.55 Q 25.5 56.1 25.5 47.9 L 25.5 0 L 35 0 L 35 46.9 A 47.346 47.346 0 0 1 34.573 53.498 Q 33.481 61.231 29.6 65.4 A 17.93 17.93 0 0 1 17.808 71.085 A 24.68 24.68 0 0 1 15.4 71.2 A 23.443 23.443 0 0 1 7.322 69.817 A 22.405 22.405 0 0 1 6.75 69.6 A 22.827 22.827 0 0 1 2.828 67.618 A 18.183 18.183 0 0 1 0 65.4 Z" vector-effect="non-scaling-stroke"/></g></svg>