<svg width="30.908" height="70.215" viewBox="0 0 30.908 70.215" xmlns="http://www.w3.org/2000/svg"><g id="svgGroup" stroke-linecap="round" fill-rule="evenodd" font-size="9pt" stroke="#ffffff" stroke-width="0.25mm" fill="#000" style="stroke:#ffffff;stroke-width:0.25mm;fill:#000"><path d="M 22.607 49.023 L 22.607 0 L 30.908 0 L 30.908 48.584 A 49.837 49.837 0 0 1 30.777 52.321 Q 30.642 54.108 30.369 55.64 A 23.082 23.082 0 0 1 29.932 57.617 A 14.882 14.882 0 0 1 27.042 63.166 A 18.045 18.045 0 0 1 26.123 64.209 A 18.37 18.37 0 0 1 17.6 69.204 Q 14.688 70.025 11.207 70.179 A 37.06 37.06 0 0 1 9.57 70.215 Q 4.688 70.215 0 69.043 L 1.318 62.109 Q 4.59 62.891 8.203 62.891 A 24.902 24.902 0 0 0 10.94 62.747 A 18.21 18.21 0 0 0 13.525 62.28 A 21.66 21.66 0 0 0 15.163 61.788 Q 16.428 61.349 17.358 60.815 Q 18.848 59.961 19.922 58.569 Q 20.72 57.535 21.195 56.663 A 8.149 8.149 0 0 0 21.484 56.079 Q 21.902 55.14 22.177 53.844 A 17.467 17.467 0 0 0 22.266 53.394 A 36.076 36.076 0 0 0 22.395 52.65 Q 22.518 51.899 22.561 51.385 A 6.827 6.827 0 0 0 22.583 51.025 Q 22.605 50.327 22.607 49.276 A 115.229 115.229 0 0 0 22.607 49.023 Z" vector-effect="non-scaling-stroke"/></g></svg>