<svg width="26.001" height="90.4" viewBox="0 0 26.001 90.4" xmlns="http://www.w3.org/2000/svg"><g id="svgGroup" stroke-linecap="round" fill-rule="evenodd" font-size="9pt" stroke="#1d6bd9" stroke-width="0.25mm" fill="#3388ff" style="stroke:#1d6bd9;stroke-width:0.25mm;fill:#3388ff"><path d="M 0 89.1 L 0 81.5 A 41.741 41.741 0 0 0 2.403 82.023 A 48.559 48.559 0 0 0 3.4 82.2 Q 5.2 82.5 7.2 82.5 Q 9.7 82.5 11.95 81.5 A 7.327 7.327 0 0 0 14.745 79.288 A 9.829 9.829 0 0 0 15.6 78 Q 17 75.5 17 71 L 17 0 L 26 0 L 26 70.3 A 32.95 32.95 0 0 1 25.551 75.94 Q 24.486 82.055 20.9 85.5 A 17.223 17.223 0 0 1 11.879 90.01 A 24.584 24.584 0 0 1 7.4 90.4 Q 5 90.4 3.2 90.05 Q 1.4 89.7 0 89.1 Z" vector-effect="non-scaling-stroke"/></g></svg>