<svg width="71.3" height="71.4" viewBox="0 0 71.3 71.4" xmlns="http://www.w3.org/2000/svg"><g id="svgGroup" stroke-linecap="round" fill-rule="evenodd" font-size="9pt" stroke="#1d6bd9" stroke-width="0.25mm" fill="#3388ff" style="stroke:#1d6bd9;stroke-width:0.25mm;fill:#3388ff"><path d="M 38.9 71.4 L 31.5 71.4 L 8 8.8 L 7.6 8.8 Q 7.83 11.173 8.001 14.807 A 262.013 262.013 0 0 1 8.1 17.15 Q 8.3 22.4 8.3 28.1 L 8.3 71.4 L 0 71.4 L 0 0 L 13.3 0 L 35.3 58.5 L 35.7 58.5 L 58.1 0 L 71.3 0 L 71.3 71.4 L 62.4 71.4 L 62.4 27.5 Q 62.4 22.3 62.65 17.2 Q 62.874 12.638 63.057 9.596 A 328.457 328.457 0 0 1 63.1 8.9 L 62.7 8.9 L 38.9 71.4 Z" vector-effect="non-scaling-stroke"/></g></svg>