<svg width="56.6" height="71.4" viewBox="0 0 56.6 71.4" xmlns="http://www.w3.org/2000/svg"><g id="svgGroup" stroke-linecap="round" fill-rule="evenodd" font-size="9pt" stroke="#1d6bd9" stroke-width="0.25mm" fill="#3388ff" style="stroke:#1d6bd9;stroke-width:0.25mm;fill:#3388ff"><path d="M 56.6 0 L 56.6 71.4 L 46.1 71.4 L 7.9 12.1 L 7.5 12.1 Q 7.7 15.6 8 20.8 A 185.598 185.598 0 0 1 8.3 31.328 A 201.525 201.525 0 0 1 8.3 31.5 L 8.3 71.4 L 0 71.4 L 0 0 L 10.4 0 L 48.5 59.1 L 48.9 59.1 Q 48.823 57.875 48.718 55.712 A 685.066 685.066 0 0 1 48.65 54.3 Q 48.5 51.1 48.35 47.3 Q 48.2 43.5 48.2 40.3 L 48.2 0 L 56.6 0 Z" vector-effect="non-scaling-stroke"/></g></svg>