<svg width="65.236" height="70.85" viewBox="0 0 65.236 70.85" xmlns="http://www.w3.org/2000/svg"><g id="svgGroup" stroke-linecap="round" fill-rule="evenodd" font-size="9pt" stroke="#ffffff" stroke-width="0.25mm" fill="#000" style="stroke:#ffffff;stroke-width:0.25mm;fill:#000"><path d="M 32.666 0.001 Q 39.551 0.001 45.533 2.418 A 30.568 30.568 0 0 1 55.884 9.229 A 29.119 29.119 0 0 1 61.183 16.645 A 36.06 36.06 0 0 1 62.745 20.191 Q 65.235 26.758 65.235 34.62 A 45.762 45.762 0 0 1 64.078 45.114 A 37.174 37.174 0 0 1 61.011 53.541 A 31.986 31.986 0 0 1 53.708 63.099 A 30.19 30.19 0 0 1 49.292 66.334 A 31.648 31.648 0 0 1 34.662 70.78 A 38.259 38.259 0 0 1 32.325 70.85 A 32.717 32.717 0 0 1 20.362 68.629 A 32.278 32.278 0 0 1 10.059 62.159 A 27.266 27.266 0 0 1 5.047 55.828 A 35.707 35.707 0 0 1 2.735 51.05 Q 0 44.19 0 35.596 A 45.363 45.363 0 0 1 0.878 26.511 A 37.952 37.952 0 0 1 2.491 20.85 A 35.549 35.549 0 0 1 5.879 13.997 A 29.535 29.535 0 0 1 9.327 9.595 A 30.229 30.229 0 0 1 19.678 2.515 Q 25.684 0.001 32.666 0.001 Z M 32.227 7.276 A 22.565 22.565 0 0 0 23.682 8.936 A 24.477 24.477 0 0 0 16.462 13.498 A 27.795 27.795 0 0 0 16.138 13.795 A 19.679 19.679 0 0 0 12.698 18.088 A 27.279 27.279 0 0 0 10.621 22.388 A 30.781 30.781 0 0 0 8.843 29.627 A 39.661 39.661 0 0 0 8.545 34.571 A 38.81 38.81 0 0 0 9.289 42.298 A 33.044 33.044 0 0 0 10.45 46.558 A 30.974 30.974 0 0 0 12.696 51.606 A 24.18 24.18 0 0 0 15.625 55.762 A 23.006 23.006 0 0 0 23.365 61.524 A 22.723 22.723 0 0 0 32.959 63.575 Q 36.426 63.575 39.771 62.549 A 21.475 21.475 0 0 0 45.224 59.967 A 24.821 24.821 0 0 0 46.192 59.302 A 23.801 23.801 0 0 0 51.587 53.858 Q 53.907 50.635 55.298 45.899 A 34.048 34.048 0 0 0 56.494 39.616 A 42.147 42.147 0 0 0 56.69 35.499 A 39.521 39.521 0 0 0 56.226 29.326 A 31.99 31.99 0 0 0 55.225 24.952 A 31.029 31.029 0 0 0 53.672 20.872 Q 52.646 18.681 51.343 16.944 A 24.383 24.383 0 0 0 45.728 11.5 A 23.993 23.993 0 0 0 41.264 9.033 A 20.963 20.963 0 0 0 39.136 8.277 A 24.299 24.299 0 0 0 32.227 7.276 Z" vector-effect="non-scaling-stroke"/></g></svg>