<svg width="45.7" height="71.401" viewBox="0 0 45.7 71.401" xmlns="http://www.w3.org/2000/svg"><g id="svgGroup" stroke-linecap="round" fill-rule="evenodd" font-size="9pt" stroke="#1d6bd9" stroke-width="0.25mm" fill="#3388ff" style="stroke:#1d6bd9;stroke-width:0.25mm;fill:#3388ff"><path d="M 0 0.001 L 18.9 0.001 Q 32.9 0.001 39.3 5.501 A 17.933 17.933 0 0 1 45.3 16.282 A 26.586 26.586 0 0 1 45.7 21.001 Q 45.7 26.901 43.05 32.051 A 17.59 17.59 0 0 1 38.254 37.788 A 24.577 24.577 0 0 1 34.15 40.401 Q 29.67 42.694 22.904 43.344 A 59.805 59.805 0 0 1 17.2 43.601 L 9 43.601 L 9 71.401 L 0 71.401 L 0 0.001 Z M 18.1 7.701 L 9 7.701 L 9 35.901 L 16.2 35.901 Q 25.605 35.901 30.589 33.095 A 13.444 13.444 0 0 0 31.4 32.601 Q 36.4 29.301 36.4 21.401 A 17.133 17.133 0 0 0 35.949 17.339 A 10.874 10.874 0 0 0 32 11.101 A 13.46 13.46 0 0 0 28.179 9.096 Q 24.186 7.701 18.1 7.701 Z" vector-effect="non-scaling-stroke"/></g></svg>