<svg width="45.996" height="69.385" viewBox="0 0 45.996 69.385" xmlns="http://www.w3.org/2000/svg"><g id="svgGroup" stroke-linecap="round" fill-rule="evenodd" font-size="9pt" stroke="#ffffff" stroke-width="0.25mm" fill="#000" style="stroke:#ffffff;stroke-width:0.25mm;fill:#000"><path d="M 0 69.385 L 0 0 L 22.9 0 A 185.984 185.984 0 0 1 23.671 0.002 Q 24.701 0.006 25.456 0.022 A 61.353 61.353 0 0 1 25.562 0.024 A 24.452 24.452 0 0 1 26.146 0.046 Q 26.81 0.077 27.727 0.148 A 104.445 104.445 0 0 1 28.613 0.22 Q 30.615 0.391 32.031 0.708 A 23.587 23.587 0 0 1 33.165 0.994 Q 34.171 1.273 35.376 1.685 Q 37.305 2.344 38.672 3.223 A 15.493 15.493 0 0 1 39.98 4.17 Q 40.737 4.777 41.528 5.542 A 12.179 12.179 0 0 1 43.921 8.74 Q 44.697 10.251 45.239 12.302 A 26.04 26.04 0 0 1 45.41 12.988 A 21.839 21.839 0 0 1 45.907 16.205 A 27.535 27.535 0 0 1 45.996 18.457 A 32.489 32.489 0 0 1 45.752 22.534 A 24.376 24.376 0 0 1 45.02 26.172 A 25.117 25.117 0 0 1 44.062 28.936 Q 43.502 30.279 42.824 31.386 A 14.497 14.497 0 0 1 42.505 31.885 A 14.481 14.481 0 0 1 38.901 35.577 A 16.624 16.624 0 0 1 38.525 35.84 A 25.572 25.572 0 0 1 35.794 37.468 A 20.611 20.611 0 0 1 33.691 38.403 A 23.502 23.502 0 0 1 31.261 39.164 Q 30.009 39.487 28.585 39.732 A 40.412 40.412 0 0 1 28.052 39.819 A 72.92 72.92 0 0 1 25.341 40.198 Q 24.098 40.347 22.976 40.43 A 42.75 42.75 0 0 1 22.241 40.479 Q 19.678 40.625 16.309 40.625 A 80.574 80.574 0 0 1 13.626 40.577 Q 11.23 40.497 8.301 40.283 L 8.301 69.385 L 0 69.385 Z M 8.301 7.324 L 8.301 32.959 A 114.294 114.294 0 0 0 13.969 33.295 A 96.356 96.356 0 0 0 17.188 33.35 A 206.837 206.837 0 0 0 18.335 33.347 Q 19.983 33.337 21.191 33.301 A 29.99 29.99 0 0 0 22.503 33.23 Q 23.682 33.142 25.146 32.959 Q 26.929 32.736 28.26 32.386 A 13.818 13.818 0 0 0 29.053 32.153 A 14.881 14.881 0 0 0 30.664 31.512 Q 31.494 31.128 32.373 30.615 A 10.559 10.559 0 0 0 33.998 29.46 A 8.336 8.336 0 0 0 35.181 28.198 Q 36.23 26.807 36.914 24.683 A 13.74 13.74 0 0 0 37.447 22.254 A 18.733 18.733 0 0 0 37.598 19.824 A 18.631 18.631 0 0 0 37.437 17.314 A 13.497 13.497 0 0 0 36.865 14.819 A 9.876 9.876 0 0 0 36.05 12.998 A 7.439 7.439 0 0 0 34.741 11.328 Q 33.35 10.01 31.812 9.155 Q 30.273 8.301 28.101 7.935 A 55.202 55.202 0 0 0 26.546 7.694 Q 25.776 7.587 25.088 7.517 A 29.707 29.707 0 0 0 24.292 7.446 Q 23.04 7.353 21.429 7.331 A 74.993 74.993 0 0 0 20.41 7.324 L 8.301 7.324 Z" vector-effect="non-scaling-stroke"/></g></svg>