<svg width="66.601" height="72.401" viewBox="0 0 66.601 72.401" xmlns="http://www.w3.org/2000/svg"><g id="svgGroup" stroke-linecap="round" fill-rule="evenodd" font-size="9pt" stroke="#000" stroke-width="0.25mm" fill="#000" style="stroke:#000;stroke-width:0.25mm;fill:#000"><path d="M 57.701 59.601 L 66.601 64.501 L 62.301 72.401 L 52.601 65.201 A 31.258 31.258 0 0 1 46.61 69.114 A 37.52 37.52 0 0 1 43.901 70.351 A 27.019 27.019 0 0 1 37.287 72.088 A 35.306 35.306 0 0 1 32.501 72.401 A 34.822 34.822 0 0 1 24.652 71.548 A 28.732 28.732 0 0 1 18.851 69.551 Q 12.801 66.701 8.601 61.751 A 34.129 34.129 0 0 1 2.631 51.424 A 39.283 39.283 0 0 1 2.201 50.201 Q 0.001 43.601 0.001 36.101 A 46.749 46.749 0 0 1 1.101 25.764 A 38.315 38.315 0 0 1 3.901 17.651 Q 7.801 9.501 15.051 4.751 Q 22.301 0.001 32.501 0.001 A 35.418 35.418 0 0 1 40.35 0.838 A 29.08 29.08 0 0 1 46.151 2.801 Q 52.201 5.601 56.401 10.601 A 36 36 0 0 1 62.846 22.088 A 47.375 47.375 0 0 1 62.851 22.101 A 41.439 41.439 0 0 1 65.022 33.323 A 48.215 48.215 0 0 1 65.101 36.101 Q 65.101 43.352 63.199 48.832 A 27.738 27.738 0 0 1 62.901 49.651 Q 60.701 55.401 57.701 59.601 Z M 45.501 60.701 L 37.901 55.901 L 41.901 48.601 L 50.901 55.101 Q 53.301 51.201 54.351 46.551 A 41.439 41.439 0 0 0 55.17 41.285 A 55.717 55.717 0 0 0 55.401 36.101 Q 55.401 30.701 53.851 25.701 A 29.647 29.647 0 0 0 50.066 17.754 A 27.805 27.805 0 0 0 49.351 16.751 Q 46.401 12.801 42.151 10.501 A 19.165 19.165 0 0 0 34.848 8.315 A 23.691 23.691 0 0 0 32.501 8.201 A 23.683 23.683 0 0 0 26.309 8.976 A 18.838 18.838 0 0 0 20.201 11.851 A 22.551 22.551 0 0 0 13.303 19.896 A 27.531 27.531 0 0 0 12.401 21.801 A 33.09 33.09 0 0 0 10.049 30.57 A 42.465 42.465 0 0 0 9.701 36.101 Q 9.701 41.501 11.201 46.551 A 30.102 30.102 0 0 0 14.729 54.325 A 27.976 27.976 0 0 0 15.601 55.601 Q 18.501 59.601 22.701 61.901 A 18.74 18.74 0 0 0 29.676 64.057 A 23.421 23.421 0 0 0 32.301 64.201 A 29.177 29.177 0 0 0 36.445 63.918 A 22.935 22.935 0 0 0 39.751 63.201 A 27.908 27.908 0 0 0 42.683 62.153 Q 44.177 61.518 45.421 60.75 A 17.361 17.361 0 0 0 45.501 60.701 Z" vector-effect="non-scaling-stroke"/></g></svg>