<svg width="65.901" height="89.501" viewBox="0 0 65.901 89.501" xmlns="http://www.w3.org/2000/svg"><g id="svgGroup" stroke-linecap="round" fill-rule="evenodd" font-size="9pt" stroke="#1d6bd9" stroke-width="0.25mm" fill="#3388ff" style="stroke:#1d6bd9;stroke-width:0.25mm;fill:#3388ff"><path d="M 45.101 71.701 L 62.201 89.501 L 49.301 89.501 L 35.501 73.401 Q 34.901 73.401 34.251 73.451 Q 33.601 73.501 33.001 73.501 A 44.193 44.193 0 0 1 24.901 72.799 Q 20.13 71.909 16.279 69.892 A 25.976 25.976 0 0 1 14.551 68.901 Q 7.201 64.301 3.601 56.001 A 42.268 42.268 0 0 1 0.714 45.931 A 58.111 58.111 0 0 1 0.001 36.601 A 56.829 56.829 0 0 1 0.74 27.207 A 41.276 41.276 0 0 1 3.601 17.401 Q 7.201 9.201 14.551 4.601 A 28.713 28.713 0 0 1 23.373 1.028 Q 27.807 0.001 33.101 0.001 A 41.787 41.787 0 0 1 41.233 0.752 Q 46.42 1.781 50.554 4.219 A 26.234 26.234 0 0 1 51.101 4.551 Q 58.401 9.101 62.151 17.351 Q 65.901 25.601 65.901 36.701 Q 65.901 49.801 60.651 59.001 Q 55.401 68.201 45.101 71.701 Z M 9.501 36.701 A 51.906 51.906 0 0 0 10.114 44.941 Q 10.821 49.33 12.342 52.898 A 25.106 25.106 0 0 0 15.201 57.951 A 18.233 18.233 0 0 0 25.906 64.906 Q 29.024 65.676 32.759 65.7 A 37.49 37.49 0 0 0 33.001 65.701 Q 42.152 65.701 47.59 61.34 A 17.322 17.322 0 0 0 50.801 57.951 A 26.998 26.998 0 0 0 54.773 49.585 Q 56.401 43.978 56.401 36.701 A 52.606 52.606 0 0 0 55.798 28.471 Q 54.563 20.691 50.801 15.551 A 17.826 17.826 0 0 0 40.651 8.805 Q 37.578 7.985 33.874 7.909 A 37.298 37.298 0 0 0 33.101 7.901 A 30.185 30.185 0 0 0 26.158 8.648 Q 21.272 9.803 17.867 12.743 A 17.923 17.923 0 0 0 15.251 15.551 A 26.201 26.201 0 0 0 11.147 23.927 Q 10.067 27.569 9.695 31.932 A 56.253 56.253 0 0 0 9.501 36.701 Z" vector-effect="non-scaling-stroke"/></g></svg>