<svg width="66.749" height="72.853" viewBox="0 0 66.749 72.853" xmlns="http://www.w3.org/2000/svg"><g id="svgGroup" stroke-linecap="round" fill-rule="evenodd" font-size="9pt" stroke="#ffffff" stroke-width="0.25mm" fill="#000" style="stroke:#ffffff;stroke-width:0.25mm;fill:#000"><path d="M 57.911 59.377 L 66.749 68.117 L 62.256 72.853 L 53.125 64.211 A 30.723 30.723 0 0 1 36.529 70.685 A 39.667 39.667 0 0 1 32.862 70.851 Q 25.977 70.851 20.02 68.459 A 31.379 31.379 0 0 1 9.595 61.672 A 28.778 28.778 0 0 1 4.352 54.545 A 36.038 36.038 0 0 1 2.564 50.588 A 38.631 38.631 0 0 1 0.276 40.915 A 48.102 48.102 0 0 1 0 35.695 A 45.84 45.84 0 0 1 0.873 26.589 A 38.177 38.177 0 0 1 2.491 20.876 A 35.583 35.583 0 0 1 5.879 14.003 A 29.417 29.417 0 0 1 9.327 9.597 Q 13.672 5.031 19.703 2.516 A 33.141 33.141 0 0 1 31.238 0.032 A 38.435 38.435 0 0 1 32.764 0.002 A 35.757 35.757 0 0 1 43.692 1.597 A 28.883 28.883 0 0 1 56.299 9.67 A 32.749 32.749 0 0 1 64.226 25.331 A 47.728 47.728 0 0 1 65.235 35.402 A 47.716 47.716 0 0 1 64.117 46.011 A 33.462 33.462 0 0 1 57.911 59.377 Z M 47.657 59.035 L 32.276 44.484 L 37.403 39.211 L 52.344 53.908 A 25.344 25.344 0 0 0 55.637 46.119 Q 56.46 42.794 56.64 38.898 A 48.268 48.268 0 0 0 56.69 36.672 A 46.417 46.417 0 0 0 56.287 30.416 A 35.171 35.171 0 0 0 55.079 24.831 Q 53.77 20.569 51.866 17.642 A 18.375 18.375 0 0 0 50.953 16.359 A 23.115 23.115 0 0 0 45.093 11.013 A 26.03 26.03 0 0 0 41.785 9.218 A 19.692 19.692 0 0 0 38.55 8.083 Q 35.352 7.277 32.081 7.277 A 22.407 22.407 0 0 0 23.731 8.889 A 23.869 23.869 0 0 0 17.198 12.83 A 27.668 27.668 0 0 0 16.211 13.698 A 19.585 19.585 0 0 0 12.786 17.937 Q 11.58 19.916 10.645 22.341 A 30.733 30.733 0 0 0 8.905 29.249 A 40.659 40.659 0 0 0 8.545 34.767 A 39.399 39.399 0 0 0 9.176 41.96 A 31.84 31.84 0 0 0 10.596 47.17 A 28.836 28.836 0 0 0 12.927 52.087 A 22.05 22.05 0 0 0 16.163 56.276 Q 19.678 59.816 24.219 61.696 A 24.898 24.898 0 0 0 33.838 63.576 A 23.406 23.406 0 0 0 41.916 62.218 A 21.159 21.159 0 0 0 47.657 59.035 Z" vector-effect="non-scaling-stroke"/></g></svg>