<svg width="49.854" height="69.385" viewBox="0 0 49.854 69.385" xmlns="http://www.w3.org/2000/svg"><g id="svgGroup" stroke-linecap="round" fill-rule="evenodd" font-size="9pt" stroke="#ffffff" stroke-width="0.25mm" fill="#000" style="stroke:#ffffff;stroke-width:0.25mm;fill:#000"><path d="M 30.273 39.551 L 49.854 69.385 L 40.576 69.385 L 21.777 40.479 L 8.35 40.479 L 8.35 69.385 L 0 69.385 L 0 0 L 25.488 0 A 54.512 54.512 0 0 1 27.154 0.024 Q 27.951 0.049 28.662 0.098 Q 30.063 0.194 32.252 0.601 A 61.881 61.881 0 0 1 32.3 0.61 Q 34.521 1.025 36.23 1.733 Q 37.939 2.441 39.819 3.882 A 13.17 13.17 0 0 1 42.944 7.275 A 13.756 13.756 0 0 1 43.95 9.19 Q 44.542 10.553 44.995 12.256 A 23.417 23.417 0 0 1 45.646 15.887 A 30.902 30.902 0 0 1 45.801 19.043 A 26.076 26.076 0 0 1 45.253 24.451 A 23.761 23.761 0 0 1 44.971 25.635 A 21.917 21.917 0 0 1 42.383 31.592 A 15.509 15.509 0 0 1 38.991 35.414 A 18.926 18.926 0 0 1 37.524 36.499 A 20.537 20.537 0 0 1 32.884 38.792 A 25.478 25.478 0 0 1 30.273 39.551 Z M 8.35 7.275 L 8.35 33.154 L 20.313 33.154 Q 22.453 33.154 24.16 33.028 A 34.952 34.952 0 0 0 24.707 32.983 Q 26.611 32.813 29.175 32.056 A 14.888 14.888 0 0 0 31.317 31.249 Q 32.502 30.69 33.423 29.956 Q 34.917 28.765 36.028 26.613 A 15.822 15.822 0 0 0 36.304 26.05 Q 37.465 23.561 37.499 20.176 A 20.419 20.419 0 0 0 37.5 19.971 A 16.819 16.819 0 0 0 37.326 17.498 A 12.995 12.995 0 0 0 36.865 15.479 Q 36.23 13.477 35.254 12.183 A 9.858 9.858 0 0 0 32.861 9.937 A 15.18 15.18 0 0 0 31.47 9.1 A 11.329 11.329 0 0 0 30.127 8.496 A 15.857 15.857 0 0 0 28.458 7.985 A 19.961 19.961 0 0 0 27.197 7.715 Q 26.115 7.518 25.286 7.42 A 15.903 15.903 0 0 0 24.536 7.349 A 30.406 30.406 0 0 0 23.035 7.283 A 35.703 35.703 0 0 0 22.314 7.275 L 8.35 7.275 Z" vector-effect="non-scaling-stroke"/></g></svg>