<svg width="51" height="71.401" viewBox="0 0 51 71.401" xmlns="http://www.w3.org/2000/svg"><g id="svgGroup" stroke-linecap="round" fill-rule="evenodd" font-size="9pt" stroke="#1d6bd9" stroke-width="0.25mm" fill="#3388ff" style="stroke:#1d6bd9;stroke-width:0.25mm;fill:#3388ff"><path d="M 0 0.001 L 19.7 0.001 A 55.97 55.97 0 0 1 26.631 0.4 Q 34.35 1.366 38.852 4.67 A 16.175 16.175 0 0 1 39.35 5.051 A 16.16 16.16 0 0 1 45.008 14.128 Q 45.678 16.846 45.699 20.091 A 32.515 32.515 0 0 1 45.7 20.301 A 25.72 25.72 0 0 1 45.405 24.308 Q 44.913 27.426 43.6 29.801 A 18.549 18.549 0 0 1 40.548 33.923 A 16.295 16.295 0 0 1 38.25 35.851 Q 35 38.101 31.4 39.401 L 51 71.401 L 40.5 71.401 L 23.2 41.901 L 9 41.901 L 9 71.401 L 0 71.401 L 0 0.001 Z M 19.2 7.801 L 9 7.801 L 9 34.301 L 19.7 34.301 A 34.791 34.791 0 0 0 24.222 34.028 Q 29.214 33.371 32.054 31.136 A 9.984 9.984 0 0 0 32.4 30.851 Q 36.288 27.497 36.397 21.074 A 21.991 21.991 0 0 0 36.4 20.701 A 18.334 18.334 0 0 0 36.068 17.083 Q 35.643 14.977 34.676 13.394 A 8.8 8.8 0 0 0 32.2 10.751 Q 28 7.801 19.2 7.801 Z" vector-effect="non-scaling-stroke"/></g></svg>