<svg width="47.9" height="70.996" viewBox="0 0 47.9 70.996" xmlns="http://www.w3.org/2000/svg"><g id="svgGroup" stroke-linecap="round" fill-rule="evenodd" font-size="9pt" stroke="#000000" stroke-width="0.5mm" fill="#ffffff" style="stroke:#000000;stroke-width:0.5mm;fill:#ffffff"><path d="M 45.605 2.783 L 42.92 10.352 Q 36.191 8.408 30.836 7.952 A 37.195 37.195 0 0 0 27.686 7.813 Q 20.459 7.813 15.454 10.864 A 13.048 13.048 0 0 0 12.924 12.833 A 8.168 8.168 0 0 0 10.449 18.75 A 7.651 7.651 0 0 0 12.061 23.535 A 11.564 11.564 0 0 0 15.166 26.316 A 14.106 14.106 0 0 0 16.309 26.953 A 58.392 58.392 0 0 0 19.128 28.265 A 79.083 79.083 0 0 0 22.314 29.565 Q 25.684 30.859 29.175 31.934 Q 32.666 33.008 36.035 34.668 Q 39.404 36.328 42.041 38.306 A 14.308 14.308 0 0 1 45.87 42.682 A 16.878 16.878 0 0 1 46.289 43.457 A 14.92 14.92 0 0 1 47.8 48.685 A 18.475 18.475 0 0 1 47.9 50.635 A 18.164 18.164 0 0 1 47.021 56.177 A 16.682 16.682 0 0 1 45.515 59.521 A 21.426 21.426 0 0 1 44.092 61.646 A 20.911 20.911 0 0 1 39.755 65.883 A 23.924 23.924 0 0 1 39.014 66.406 A 20.786 20.786 0 0 1 35.827 68.157 Q 34.324 68.828 32.57 69.376 A 36.916 36.916 0 0 1 31.372 69.727 Q 26.758 70.996 21.094 70.996 Q 15.43 70.996 10.669 69.824 A 66.807 66.807 0 0 1 6.284 68.575 Q 3.323 67.627 0 66.309 L 2.832 58.252 Q 13.411 62.187 20.14 62.712 A 25.491 25.491 0 0 0 22.119 62.793 A 30.349 30.349 0 0 0 27.097 62.408 Q 31.217 61.723 34.204 59.814 A 11.493 11.493 0 0 0 36.811 57.587 A 8.579 8.579 0 0 0 38.867 51.855 A 8.521 8.521 0 0 0 36.792 46.118 A 14.365 14.365 0 0 0 33.19 43.13 A 17.879 17.879 0 0 0 31.421 42.212 A 63.951 63.951 0 0 0 27.257 40.512 A 80.215 80.215 0 0 0 24.121 39.429 A 185.723 185.723 0 0 1 16.138 36.646 Q 12.158 35.156 8.862 33.203 A 15.702 15.702 0 0 1 3.491 27.93 A 13.578 13.578 0 0 1 1.58 22.551 A 17.521 17.521 0 0 1 1.416 20.117 A 16.234 16.234 0 0 1 3.345 12.451 A 20.373 20.373 0 0 1 8.374 6.291 A 23.334 23.334 0 0 1 8.691 6.03 A 22.728 22.728 0 0 1 12.941 3.349 A 31.09 31.09 0 0 1 17.236 1.636 A 34.856 34.856 0 0 1 25.241 0.115 A 41.677 41.677 0 0 1 28.369 0 A 53.028 53.028 0 0 1 37.764 0.881 A 70.393 70.393 0 0 1 45.605 2.783 Z" vector-effect="non-scaling-stroke"/></g></svg>