<svg width="55.001" height="72.401" viewBox="0 0 55.001 72.401" xmlns="http://www.w3.org/2000/svg"><g id="svgGroup" stroke-linecap="round" fill-rule="evenodd" font-size="9pt" stroke="#1d6bd9" stroke-width="0.25mm" fill="#3388ff" style="stroke:#1d6bd9;stroke-width:0.25mm;fill:#3388ff"><path d="M 55 0 L 55 46.2 A 31.425 31.425 0 0 1 53.97 54.374 A 27.016 27.016 0 0 1 52 59.55 A 21.912 21.912 0 0 1 43.232 68.732 A 26.456 26.456 0 0 1 42.85 68.95 A 25.039 25.039 0 0 1 36.349 71.426 Q 33.401 72.126 29.964 72.323 A 48.35 48.35 0 0 1 27.2 72.4 A 39.002 39.002 0 0 1 19.332 71.656 Q 14.576 70.676 10.951 68.403 A 20.894 20.894 0 0 1 6.95 65.15 A 24.496 24.496 0 0 1 0.55 52.326 A 34.837 34.837 0 0 1 0 46 L 0 0 L 9 0 L 9 46.3 A 26.143 26.143 0 0 0 9.525 51.705 Q 10.238 55.077 11.918 57.636 A 14.687 14.687 0 0 0 13.65 59.8 A 14.537 14.537 0 0 0 19.598 63.437 Q 21.933 64.218 24.788 64.475 A 32.584 32.584 0 0 0 27.7 64.6 Q 37.4 64.6 41.75 59.45 A 18.028 18.028 0 0 0 45.632 51.198 A 25.449 25.449 0 0 0 46.1 46.2 L 46.1 0 L 55 0 Z" vector-effect="non-scaling-stroke"/></g></svg>