<svg width="52.832" height="70.362" viewBox="0 0 52.832 70.362" xmlns="http://www.w3.org/2000/svg"><g id="svgGroup" stroke-linecap="round" fill-rule="evenodd" font-size="9pt" stroke="#ffffff" stroke-width="0.25mm" fill="#000" style="stroke:#ffffff;stroke-width:0.25mm;fill:#000"><path d="M 0 45.605 L 0 0 L 8.301 0 L 8.301 44.971 A 40.82 40.82 0 0 0 8.418 48.149 Q 8.535 49.649 8.77 50.954 A 21.341 21.341 0 0 0 9.009 52.1 A 12.204 12.204 0 0 0 10.934 56.306 A 15.255 15.255 0 0 0 12.012 57.666 A 15.581 15.581 0 0 0 19.685 62.342 Q 22.697 63.184 26.416 63.184 A 26.075 26.075 0 0 0 31.589 62.697 Q 35.157 61.975 37.915 60.181 A 13.705 13.705 0 0 0 43.896 51.709 A 18.58 18.58 0 0 0 44.258 49.745 Q 44.395 48.72 44.463 47.526 A 44.836 44.836 0 0 0 44.531 44.971 L 44.531 0 L 52.734 0 A 17486.611 17486.611 0 0 0 52.736 7.48 Q 52.74 18.164 52.759 25.635 A 23393.719 23393.719 0 0 1 52.767 29.119 Q 52.783 35.861 52.783 38.226 A 726.175 726.175 0 0 1 52.783 38.403 A 553.229 553.229 0 0 0 52.785 39.737 Q 52.789 41.632 52.808 42.896 A 306.926 306.926 0 0 1 52.818 43.703 Q 52.832 44.824 52.832 45.649 A 107.184 107.184 0 0 1 52.832 45.703 A 89.42 89.42 0 0 1 52.818 47.309 Q 52.803 48.183 52.769 48.954 A 48.16 48.16 0 0 1 52.734 49.634 A 18.812 18.812 0 0 1 52.628 50.789 Q 52.472 52.081 52.126 53.805 A 62.342 62.342 0 0 1 52.075 54.053 A 24.331 24.331 0 0 1 51.458 56.461 Q 51.081 57.657 50.602 58.678 A 15.003 15.003 0 0 1 50.537 58.813 Q 49.706 60.537 48.152 62.455 A 29.538 29.538 0 0 1 47.583 63.135 Q 45.605 65.43 42.896 66.919 Q 40.789 68.077 37.768 68.924 A 40.219 40.219 0 0 1 35.962 69.385 A 36.439 36.439 0 0 1 31.464 70.117 Q 29.114 70.358 26.499 70.361 A 57.877 57.877 0 0 1 26.416 70.361 A 46.815 46.815 0 0 1 20.996 70.062 A 34.803 34.803 0 0 1 16.162 69.165 A 38.177 38.177 0 0 1 13.271 68.288 Q 10.732 67.398 9.033 66.309 A 18.456 18.456 0 0 1 4.565 62.305 A 29.433 29.433 0 0 1 3.505 60.904 Q 2.464 59.435 1.978 58.276 Q 1.27 56.592 0.83 54.736 A 20.767 20.767 0 0 1 0.392 52.46 Q 0.055 50.06 0.008 46.723 A 78.678 78.678 0 0 1 0 45.605 Z" vector-effect="non-scaling-stroke"/></g></svg>