<svg width="60" height="71.4" viewBox="0 0 60 71.4" xmlns="http://www.w3.org/2000/svg"><g id="svgGroup" stroke-linecap="round" fill-rule="evenodd" font-size="9pt" stroke="#1d6bd9" stroke-width="0.25mm" fill="#3388ff" style="stroke:#1d6bd9;stroke-width:0.25mm;fill:#3388ff"><path d="M 50.5 0 L 60 0 L 34.5 71.4 L 25.5 71.4 L 0 0 L 9.4 0 L 25.5 45.8 A 137.021 137.021 0 0 1 27.142 50.576 A 108.299 108.299 0 0 1 28.2 54.05 A 100.006 100.006 0 0 1 29.419 58.726 A 84.12 84.12 0 0 1 30 61.4 A 91.733 91.733 0 0 1 31.031 56.869 A 110.878 110.878 0 0 1 31.8 54 Q 32.9 50.1 34.5 45.6 L 50.5 0 Z" vector-effect="non-scaling-stroke"/></g></svg>