<svg width="90.5" height="71.4" viewBox="0 0 90.5 71.4" xmlns="http://www.w3.org/2000/svg"><g id="svgGroup" stroke-linecap="round" fill-rule="evenodd" font-size="9pt" stroke="#1d6bd9" stroke-width="0.25mm" fill="#3388ff" style="stroke:#1d6bd9;stroke-width:0.25mm;fill:#3388ff"><path d="M 81.1 0 L 90.5 0 L 71.5 71.4 L 62.4 71.4 L 48.5 24.6 L 46.9 18.8 A 132.732 132.732 0 0 1 46.257 16.387 Q 45.881 14.916 45.6 13.65 L 44.9 10.5 A 10.666 10.666 0 0 1 44.816 11.21 Q 44.645 12.373 44.169 14.593 A 166.808 166.808 0 0 1 43.85 16.05 A 116.747 116.747 0 0 1 42.212 22.481 A 135.372 135.372 0 0 1 41.5 24.9 L 28 71.4 L 18.9 71.4 L 0 0 L 9.4 0 L 20.5 43.6 A 157.046 157.046 0 0 1 22.103 50.331 A 138.971 138.971 0 0 1 22.55 52.5 A 138.079 138.079 0 0 1 23.476 57.68 A 112.787 112.787 0 0 1 23.9 60.6 Q 24.4 56.7 25.4 52.1 Q 26.4 47.5 27.7 43.1 L 40.3 0 L 49.6 0 L 62.7 43.4 Q 64.1 48 65.1 52.55 Q 65.959 56.46 66.449 59.595 A 77.037 77.037 0 0 1 66.6 60.6 Q 67.1 56.9 68 52.55 A 195.858 195.858 0 0 1 69.519 45.828 A 223.301 223.301 0 0 1 70.1 43.5 L 81.1 0 Z" vector-effect="non-scaling-stroke"/></g></svg>